<svg width="329" height="329" viewBox="0 0 329 329" fill="none" xmlns="http://www.w3.org/2000/svg">
<path d="M226.497 35.3676C226.614 34.9761 226.808 34.6119 227.067 34.296C227.327 33.9802 227.646 33.719 228.007 33.5277C228.368 33.3364 228.764 33.2187 229.171 33.1816C229.578 33.1444 229.988 33.1885 230.378 33.3113C238.5 35.8302 223.849 43.901 226.497 35.3676Z" stroke="#F9AF8C" stroke-miterlimit="10"/>
<path d="M307.719 88.6244C307.839 88.2353 308.035 87.8737 308.296 87.5607C308.556 87.2477 308.876 86.9893 309.237 86.8005C309.598 86.6117 309.992 86.4963 310.398 86.4608C310.804 86.4253 311.212 86.4706 311.6 86.5938C319.723 89.087 305.072 97.1578 307.719 88.6244Z" stroke="#F9AF8C" stroke-miterlimit="10"/>
<path d="M151.777 73.4082C152.026 72.6262 152.573 71.9741 153.3 71.5937C154.027 71.2134 154.874 71.1357 155.658 71.3776C163.781 73.8708 149.078 81.9416 151.777 73.4082Z" stroke="#F9AF8C" stroke-miterlimit="10"/>
<path d="M70.1187 223.309C70.1187 217.637 70.1187 211.94 70.1187 206.216C70.1187 204.134 69.8359 202.052 69.8359 199.97C69.8359 192.619 69.8359 185.251 69.8359 177.866C69.8359 174.601 69.7074 171.311 69.5532 168.073L69.1934 161.93C69.2275 159.828 69.4165 157.732 69.7588 155.658C69.9645 154.347 71.0697 154.527 72.3291 155.658C73.8812 157.097 74.9042 159.017 75.2336 161.107C75.6705 169.512 75.9019 177.943 75.5934 186.502C75.3621 191.643 75.9533 196.783 76.1332 202.129L76.5959 219.428C76.5959 222.975 76.5959 226.522 76.5959 230.069C76.5959 235.441 76.5959 240.864 76.5959 246.21L76.9814 258.548C77.0281 259.404 77.0281 260.262 76.9814 261.118C76.6987 264.511 76.2617 265.565 75.0537 266.259C74.7962 266.427 74.5302 266.581 74.2569 266.721C73.3573 267.004 72.6376 265.591 72.2263 263.123C71.1438 255.638 70.5343 248.092 70.4014 240.53C70.2215 234.824 70.0159 229.092 69.8359 223.36L70.1187 223.309Z" fill="#F9AF8C"/>
<path d="M115.948 272.607C121.243 274.407 126.589 276.12 131.987 277.748C133.941 278.339 135.971 278.699 137.925 279.29C144.864 281.424 151.804 283.711 158.77 285.947L168.1 288.749C170.105 289.417 172.11 289.88 174.089 290.754C175.091 291.165 176.068 291.576 177.019 292.065C177.915 292.653 178.774 293.297 179.589 293.992C180.695 294.866 179.821 295.689 178.253 296.229C177.377 296.512 176.471 296.693 175.554 296.768C174.509 296.901 173.448 296.805 172.444 296.486C164.99 293.915 156.816 292.142 148.848 289.469C144.068 287.849 138.85 287.104 133.838 285.767C128.312 284.354 122.811 282.812 117.336 281.218L107.209 278.134C102.069 276.514 97.0566 274.715 92.0188 272.993C90.0653 272.299 88.1119 271.708 86.1071 271.142C84.1022 270.577 82.1745 269.832 80.1953 269.163C79.3156 268.902 78.4565 268.575 77.625 268.187C74.5406 266.567 73.9495 265.333 74.335 263.277C74.4078 262.8 74.5108 262.328 74.6435 261.864C75.1575 260.398 77.0081 259.884 79.3985 260.347C82.7656 261.272 86.2099 262.326 89.6798 263.509C93.1497 264.691 96.5682 265.848 100.115 267.056C105.256 268.906 110.602 270.757 115.974 272.428L115.948 272.607Z" fill="#F9AF8C"/>
<path d="M233.898 280.524C247.907 276.437 261.786 271.682 275.64 266.824C280.781 265.051 285.665 263.072 290.702 261.247L304.017 256.389L305.045 256.003C305.199 256.003 305.43 256.003 305.533 255.772C305.546 255.592 305.546 255.412 305.533 255.232V253.947L305.893 246.879L307.307 218.605C307.718 210.226 307.975 201.795 308.206 193.468C308.489 182.775 308.695 172.031 309.466 161.339C309.697 158.023 310.494 158.486 311.265 161.339C312.352 165.997 312.879 170.769 312.833 175.552C312.833 197.426 312.576 219.248 311.445 241.275C311.291 244.591 311.136 247.907 311.034 251.248L311.008 257.031C310.953 257.672 310.815 258.303 310.597 258.908V259.37C310.597 259.37 309.928 258.933 310.237 259.139V259.293L309.62 259.962L309.311 260.321L308.823 260.527L307.872 260.938L306.433 261.555C300.161 264.125 293.838 266.696 287.541 269.06C273.661 274.372 259.644 279.333 245.491 283.943C236.752 286.718 228.012 289.443 218.888 291.396L215.649 291.988C214.382 292.19 213.103 292.31 211.82 292.347C210.349 292.47 208.873 292.185 207.553 291.525C207.239 291.367 206.96 291.147 206.735 290.877C206.509 290.607 206.342 290.294 206.242 289.957C206.06 289.267 205.948 288.561 205.908 287.849V272.685C205.908 267.904 205.908 263.123 205.908 258.368C205.908 247.701 205.702 237.214 205.908 226.676C205.908 224.337 205.908 222.075 206.062 219.71C206.679 211.048 207.424 208.324 208.632 206.499C208.88 206.081 209.164 205.685 209.481 205.317C210.354 204.52 211.074 208.118 211.46 214.467C211.82 219.196 211.922 223.951 212.025 228.758C212.128 233.564 212.334 238.448 212.334 243.332C212.334 253.099 212.513 263.02 212.616 272.967C212.616 277.08 212.616 281.192 212.616 285.33C214.953 285.073 217.27 284.67 219.556 284.122C224.337 283.069 229.169 281.706 233.976 280.267L233.898 280.524Z" fill="#F9AF8C"/>
<path d="M119.444 163.78C126.075 165.991 132.741 168.09 139.441 170.078C142.011 170.797 144.376 171.311 146.817 172.082C155.428 174.653 164.038 177.223 172.752 179.793C176.582 180.899 180.463 181.824 184.37 182.724L191.824 184.42C194.394 185.063 196.733 185.859 199.175 186.708C200.743 187.324 200.306 187.864 198.84 188.327C196.545 189.025 194.139 189.286 191.746 189.098C181.356 187.799 171.085 185.676 161.031 182.749C154.991 180.924 148.539 179.793 142.294 178.225C135.431 176.426 128.62 174.473 121.731 172.442L109.214 168.638C102.891 166.685 96.6192 164.449 90.3733 162.341C85.4897 160.696 80.6061 159.385 75.8253 157.2C74.7715 156.686 73.692 156.352 72.6381 155.71C68.6799 153.653 68.4228 151.057 68.6542 149.644C68.685 149.303 68.754 148.967 68.8598 148.641C69.0654 148.204 69.6052 148.153 70.4534 148.23C71.6066 148.275 72.7521 148.439 73.8719 148.718C77.7274 150.081 81.9684 151.469 86.3122 152.728L99.4465 157.098C106.078 159.205 112.684 161.57 119.418 163.6L119.444 163.78Z" fill="#F9AF8C"/>
<path d="M299.674 148.23C285.692 142.704 271.401 137.64 257.007 132.628L241.251 127.333L213.543 117.875L199.664 113.248L197.505 112.554C196.605 112.246 195.654 111.989 194.934 111.654L195.191 106.514C195.191 104.098 195.397 101.682 195.448 99.2655C195.511 90.6752 195.022 82.0898 193.983 73.5624C192.404 62.5882 191.417 51.537 191.027 40.4567C191.027 36.9868 192.03 37.3981 193.264 40.2511C195.121 44.8347 196.29 49.6678 196.733 54.5934C197.916 65.7486 199.535 76.9552 200.075 88.4445C200.358 94.1763 200.332 99.9338 200.075 105.666L199.946 107.799V108.107C199.946 108.262 200.075 108.236 200.152 108.287H200.383L201.386 108.621L209.482 111.346C222.334 115.793 235.931 119.879 249.142 124.198C263.664 129.03 278.161 133.99 292.606 139.208C296.076 140.468 299.52 141.778 302.887 143.115C305.333 143.903 307.652 145.036 309.776 146.482C310.444 147.099 311.241 147.819 310.701 148.667L308.876 150.903C306.486 152.677 303.53 154.373 302.065 155.247C289.407 161.972 276.381 167.979 263.047 173.239C252.766 177.454 242.871 181.695 232.589 185.474C230.327 186.322 228.117 187.17 225.778 187.916C217.09 190.614 213.929 190.743 211.641 189.149C211.141 188.863 210.69 188.498 210.305 188.07C209.611 186.708 212.541 185.499 218.632 183.443C227.629 180.359 236.933 176.812 246.289 173.162C255.645 169.512 265.129 165.708 274.562 161.673C277.133 160.567 279.703 159.462 282.273 158.28C284.844 157.098 287.414 155.967 289.83 154.733C292.246 153.499 294.765 152.163 297.207 150.98C298.466 150.363 299.597 149.644 300.78 148.975H301.011L299.777 148.487L299.674 148.23Z" fill="#F9AF8C"/>
<path d="M88.6001 146.508C85.5928 147.51 82.5856 148.513 79.4755 149.412L78.2932 149.746L76.7253 150.158C75.3936 150.531 74.0209 150.738 72.6385 150.775C71.461 150.809 70.3108 150.416 69.3999 149.669C68.9372 149.31 68.9372 148.667 68.7316 148.153L68.2689 146.508C68.2689 141.367 68.3975 139.157 68.4746 136.227L68.6545 125.945C69.04 114.148 69.2971 102.401 68.6545 90.655C68.3717 85.5144 67.8063 80.2195 67.138 75.0789C66.2127 68.4732 64.9789 61.9189 64.0793 55.3132C63.848 53.257 64.7476 53.3341 66.0071 54.8763C67.8552 57.3555 69.1203 60.2196 69.7083 63.2555C71.1739 70.0478 72.2892 76.9111 73.0497 83.818C73.7481 90.7181 74.0742 97.6509 74.0264 104.586C74.0264 112.888 74.3092 121.499 74.2321 129.955L74.0007 143.681V144.323C73.984 144.375 73.9801 144.429 73.9892 144.483C73.9983 144.536 74.0202 144.586 74.0531 144.629C74.086 144.672 74.1288 144.707 74.1779 144.729C74.227 144.752 74.2808 144.763 74.3349 144.76C74.761 144.822 75.1939 144.822 75.62 144.76C75.8257 144.76 77.0594 144.375 78.0361 144.092L81.0434 143.141C86.4153 141.367 91.813 139.465 97.2107 137.615C105.384 134.787 113.712 132.14 121.937 129.595C128.337 127.59 134.609 125.534 141.086 123.992C142.525 123.632 143.913 123.272 145.378 122.964C147.302 122.544 149.278 122.422 151.239 122.604C152.23 122.657 153.186 122.996 153.989 123.581C154.294 123.785 154.586 124.008 154.863 124.249C155.48 124.994 153.398 126.048 149.722 127.462C144.145 129.287 138.413 130.829 132.655 132.603C126.898 134.376 120.806 135.97 114.92 137.872C106.181 140.648 97.442 143.629 88.6515 146.714L88.6001 146.508Z" fill="#F9AF8C"/>
<path d="M96.8253 42.2817C101.118 41.4849 105.436 40.6881 109.677 39.7114C111.245 39.3772 112.761 38.8889 114.329 38.5804L131.088 35.4447C133.658 34.9563 135.997 34.3137 138.413 33.6969C141.498 32.7168 144.692 32.1211 147.923 31.9233C148.951 31.9233 148.977 32.7972 148.334 33.9282C147.507 35.327 146.216 36.3913 144.685 36.9354C138.478 38.8819 132.15 40.4188 125.741 41.5363C121.834 42.2046 118.03 43.5412 114.021 44.4408C109.703 45.4432 105.359 46.3685 101.015 47.2938L92.9441 48.836C88.883 49.6585 84.7705 50.3525 80.7608 51.2521C77.5994 51.869 74.5921 52.7943 71.4306 53.4369C70.7723 53.6806 70.0925 53.8613 69.4001 53.9766C66.8298 53.9766 65.853 53.6425 65.1848 52.5115C65.0198 52.2659 64.8738 52.0081 64.7478 51.7404C64.4394 50.8922 65.4161 49.9926 67.1896 49.1701C69.8265 48.0561 72.5633 47.1955 75.3632 46.5998C78.1391 45.8801 80.9922 45.2633 83.8966 44.7235L96.7482 42.1532L96.8253 42.2817Z" fill="#F9AF8C"/>
<path d="M73.152 240.479C71.5584 240.864 32.5668 237.908 16.6051 254.718C-0.898702 273.353 116.462 290.214 173.394 292.733L74.54 262.172L73.152 240.479Z" fill="#F9AF8C"/>
<path d="M258.497 109.033C256.235 113.685 254.05 118.414 252.071 123.221C251.3 124.969 250.786 126.794 250.092 128.567C247.522 134.762 245.157 141.059 242.998 147.433C242.072 150.261 241.327 153.165 240.684 156.018C239.913 159.694 239.322 163.575 238.525 166.89C238.268 167.893 237.06 167.944 235.955 166.89C235.27 166.218 234.743 165.402 234.413 164.5C234.051 163.461 233.937 162.352 234.079 161.261C235.312 153.341 237.425 145.582 240.376 138.129C242.175 133.708 243.46 128.953 245.157 124.378C247.025 119.391 249.055 114.448 251.248 109.547C252.559 106.54 254.024 103.584 255.387 100.602L258.805 93.9193C260.013 91.7345 261.221 89.5498 262.378 87.3393C264.331 83.9979 265.848 80.4766 268.058 77.0581C268.481 76.2936 268.962 75.5632 269.498 74.8733C271.708 72.303 272.813 71.9431 274.484 72.7399C274.876 72.8971 275.254 73.0863 275.615 73.3054C276.746 74.1022 276.695 75.8757 275.615 77.6749C272.556 83.2525 268.881 88.8044 265.694 94.9988C263.123 99.4969 260.836 104.123 258.651 108.853L258.497 109.033Z" fill="#F9AF8C"/>
<path d="M282.428 63.2812C282.404 63.1537 282.341 63.0367 282.248 62.947H282.042C282.042 62.947 281.862 62.947 281.477 62.947C279.84 63.3638 278.254 63.9585 276.747 64.7206C275.591 65.286 274.562 66.1085 273.431 66.7768C269.355 69.3923 265.495 72.332 261.891 75.5673C260.22 76.9809 258.575 78.5488 257.007 80.0653C254.977 81.9931 253.255 83.9979 251.25 85.7457C250.633 86.2855 249.707 85.5915 249.193 84.2806C248.906 83.5228 248.813 82.7054 248.92 81.9022C249.028 81.099 249.334 80.3353 249.81 79.6798C251.715 77.4549 253.74 75.3355 255.876 73.3311C257.968 71.2967 260.21 69.4236 262.585 67.7278C265.464 65.6459 268.085 62.9727 271.272 60.9165C273.045 59.7831 274.911 58.8029 276.85 57.9863C277.849 57.5491 278.88 57.1882 279.934 56.9068C281.36 56.4855 282.878 56.4855 284.304 56.9068C286.01 57.5496 287.407 58.8179 288.211 60.4538C288.847 61.796 289.239 63.2409 289.367 64.7206C289.482 66.6295 289.482 68.5435 289.367 70.4524C289.367 71.352 289.367 72.2516 289.367 73.0227C289.367 73.7938 289.367 74.8219 289.547 75.593C289.828 78.2225 290.415 80.8103 291.295 83.3039C291.475 83.8437 291.732 84.332 291.886 84.8461C292.555 86.7481 292.195 87.4164 290.601 88.5988C290.216 88.8558 289.881 89.1642 289.496 89.3956C289.153 89.5766 288.776 89.6851 288.389 89.7141C288.002 89.7432 287.613 89.6922 287.246 89.5644C286.88 89.4366 286.543 89.2347 286.258 88.9713C285.973 88.7079 285.745 88.3886 285.589 88.0333C284.246 85.523 283.374 82.7874 283.019 79.9625C282.839 78.6002 282.71 77.2637 282.633 75.9271V73.9737C282.633 73.4082 282.633 72.4572 282.633 71.7889C282.633 69.707 282.813 67.9334 282.633 66.2884C282.67 65.253 282.531 64.2187 282.222 63.2298L282.428 63.2812Z" fill="#F9AF8C"/>
<path d="M187.12 136.227C188.071 139.542 188.894 142.884 189.69 146.225C189.973 147.433 190.384 148.616 190.641 149.849C191.515 154.167 192.106 158.563 192.595 162.932C192.8 164.886 193.109 166.813 193.392 168.741C193.914 171.208 194.027 173.743 193.726 176.246C193.597 177.043 192.518 176.915 191.438 176.246C190.842 175.94 190.319 175.508 189.907 174.98C189.494 174.452 189.201 173.84 189.048 173.188C188.482 168.433 187.634 163.652 187.171 158.691C186.714 155.716 186.009 152.784 185.064 149.926C184.267 146.688 183.367 143.449 182.494 140.236C181.902 138.257 181.26 136.304 180.591 134.35C179.575 131.388 178.409 128.48 177.096 125.637C175.971 123.509 174.709 121.457 173.318 119.494C173.035 119.057 172.726 118.62 172.469 118.157C171.544 116.435 171.647 115.587 172.855 114.585C173.116 114.322 173.391 114.073 173.677 113.839C174.201 113.504 174.836 113.386 175.445 113.511C176.055 113.636 176.591 113.993 176.942 114.507C178.5 116.173 179.816 118.051 180.849 120.085C181.957 122.124 182.944 124.227 183.804 126.382C185.115 129.595 186.195 132.911 187.249 136.201L187.12 136.227Z" fill="#F9AF8C"/>
<path d="M163.731 99.8824C164.125 97.9423 165.071 96.1573 166.455 94.7418C167.015 94.2648 167.661 93.8984 168.357 93.6623C169.062 93.4552 169.811 93.4552 170.516 93.6623C172.049 94.1572 173.4 95.0966 174.397 96.3611C175.04 97.1065 175.811 98.0061 176.299 98.623C176.788 99.2398 177.071 99.5997 177.405 100.088C179.692 103.635 181.748 107.156 184.113 110.369C185.158 111.893 186.336 113.321 187.634 114.636C189.254 116.204 191.002 117.489 192.569 118.98C193.032 119.442 192.569 120.342 191.464 120.908C190.857 121.267 190.165 121.457 189.459 121.457C188.754 121.457 188.061 121.267 187.455 120.908C183.264 117.974 179.807 114.112 177.353 109.624C175.793 107.152 174.076 104.782 172.213 102.53L171.93 102.119V101.964L171.724 101.656L171.236 100.988C171.047 100.759 170.81 100.575 170.542 100.448C170.233 100.448 170.002 100.576 169.822 100.782C169.691 100.925 169.586 101.09 169.514 101.27C169.331 101.683 169.193 102.114 169.103 102.556C168.966 103.407 168.881 104.265 168.846 105.126C168.846 106.565 168.846 108.133 168.511 109.778C168.177 111.423 168.177 112.76 168.049 114.276C167.843 116.615 168.049 119.031 167.612 121.524C167.564 122.078 167.478 122.628 167.355 123.169C166.866 125.251 165.967 125.74 164.296 125.329C163.911 125.329 163.499 125.329 163.139 125.097C162.564 124.892 162.069 124.511 161.723 124.008C161.377 123.505 161.198 122.906 161.212 122.296C161.417 118.62 161.829 114.765 162.343 110.446L162.651 108.236L162.831 105.974L163.037 103.404L163.191 102.041C163.191 101.27 163.474 100.499 163.576 99.7539L163.731 99.8824Z" fill="#F9AF8C"/>
<path d="M120.548 140.211C116.744 141.162 112.965 142.19 109.187 143.244L105.075 144.452C100.217 145.788 95.3331 147.022 90.501 148.538L84.0752 150.543C81.3464 151.578 78.5098 152.302 75.6189 152.702C74.5907 152.702 74.7964 152.137 75.4389 151.469C76.334 150.505 77.4435 149.765 78.6775 149.31L86.8511 146.508C89.6271 145.583 92.4544 144.786 95.3075 143.938C98.7003 143.038 102.144 141.727 105.589 140.673C109.033 139.619 113.3 138.437 117.001 137.358L124.069 135.43C127.616 134.453 131.215 133.579 134.736 132.551C137.486 131.754 140.108 130.778 142.833 129.981C143.424 129.801 144.015 129.595 144.632 129.441C146.894 128.953 147.716 129.261 148.384 129.827L148.796 130.238C149.13 130.7 148.333 131.42 146.817 132.294C144.459 133.337 142.048 134.255 139.594 135.044C137.024 135.79 134.453 136.484 131.883 137.203L120.471 140.262L120.548 140.211Z" fill="#F9AF8C"/>
<path d="M257.033 174.499C261.505 173.136 265.978 171.748 270.424 170.232L275.231 168.433C280.911 166.453 286.566 164.371 292.066 161.955C294.502 160.894 296.879 159.701 299.186 158.383C302.091 156.661 304.892 154.759 307.591 152.959C308.465 152.42 308.928 152.959 308.774 154.244C308.631 155 308.371 155.729 308.002 156.404C307.514 157.234 306.846 157.945 306.049 158.485C300.097 162.449 293.673 165.653 286.926 168.021C282.916 169.461 278.906 171.337 274.871 172.905C270.424 174.576 265.926 176.169 261.428 177.686L253.049 180.436L240.403 184.497C237.19 185.602 234.08 186.913 230.919 188.147C230.199 188.404 229.531 188.712 228.811 188.944C226.241 189.818 225.213 189.715 224.287 188.558C224.044 188.317 223.829 188.05 223.645 187.761C223.105 186.836 223.953 185.679 225.804 184.805C231.54 182.366 237.42 180.281 243.41 178.56L257.033 174.396V174.499Z" fill="#F9AF8C"/>
<path d="M96.3876 45.9572C99.7804 45.3403 103.173 44.6721 106.669 43.9524L110.37 43.0785L123.453 40.5081C125.381 40.0969 127.308 39.5828 129.21 39.0688C131.622 38.3183 134.088 37.7597 136.587 37.3981C137.384 37.3981 137.41 37.9121 136.921 38.6575C136.213 39.6625 135.206 40.4182 134.043 40.8166C129.125 42.4092 124.111 43.6883 119.032 44.6464C115.999 45.2118 112.915 46.1885 109.805 46.9082C106.695 47.6279 102.968 48.4247 99.5234 49.1444L93.2004 50.4553L83.6131 52.3573C81.0428 52.8457 78.7552 53.5396 76.2877 54.0537C75.7583 54.1998 75.216 54.2945 74.6684 54.3364C72.6122 54.4906 71.9182 54.3364 71.3784 53.591C71.2584 53.4344 71.1468 53.2713 71.0443 53.1027C70.7873 52.5886 71.5327 51.9717 72.9463 51.4063C75.0559 50.5819 77.2312 49.937 79.4492 49.4785C81.6768 48.9131 83.9387 48.4247 86.2348 48.0135L96.5161 45.9829L96.3876 45.9572Z" fill="#F9AF8C"/>
</svg>
