<svg width="267" height="267" viewBox="0 0 267 267" fill="none" xmlns="http://www.w3.org/2000/svg">
<path d="M90.8008 57.4049C92.407 54.1926 93.3456 53.4416 94.3886 53.379C97.7678 53.233 101.23 53.0244 104.672 52.9827C107.634 52.9827 110.617 53.2747 113.6 53.2956C118.731 53.2956 123.884 53.1705 129.036 53.0453C130.559 53.0453 132.081 53.0453 133.583 52.941C135.085 52.8367 136.504 52.6698 137.964 52.6072C138.193 52.6072 138.464 52.4404 138.694 52.6072C139.038 53.2099 139.248 53.8798 139.309 54.571C139.37 55.2622 139.281 55.9585 139.049 56.6122C139.049 56.946 138.84 57.5092 138.715 57.5092C137.588 57.6135 136.629 60.2835 135.502 60.2835C133.274 60.3551 131.055 60.6132 128.869 61.0553C127.982 61.1592 127.086 61.1592 126.199 61.0553C125.073 60.9093 123.946 60.5547 122.82 60.4087C121.255 60.2209 113.976 60.0958 106.967 59.8455C103.462 59.7203 100.021 59.5534 97.3923 59.3448C95.8382 59.2828 94.2906 59.1085 92.7616 58.8233C92.052 58.4331 91.3934 57.9567 90.8008 57.4049Z" fill="#F9AF8C"/>
<path d="M98.0391 77.8471C99.3532 74.5722 100.125 73.8421 100.855 73.6753C103.191 73.6753 105.528 73.3832 107.906 73.3415C109.991 73.3415 112.077 73.6544 114.163 73.6544C117.751 73.6544 121.339 73.4875 124.948 73.3624C126.011 73.3624 127.034 73.3624 128.139 73.3624C129.127 73.1954 130.123 73.0771 131.122 73.0078C131.289 73.0078 131.477 72.8409 131.644 73.0078C132.14 74.2846 132.227 75.6841 131.894 77.0128C131.894 77.3465 131.748 77.9097 131.664 77.9306C130.872 77.9306 130.267 80.684 129.432 80.684C127.857 80.7419 126.295 80.9941 124.781 81.4349C124.166 81.5392 123.539 81.5392 122.924 81.4349C122.132 81.2889 121.339 80.9343 120.525 80.7883C119.712 80.6423 114.268 80.5171 109.387 80.2668C106.904 80.1417 104.443 79.9539 102.566 79.7245C101.45 79.639 100.346 79.4433 99.2698 79.1404C98.8943 78.9527 98.5605 78.4103 98.0391 77.8471Z" fill="#F9AF8C"/>
<path d="M29.9125 47.3924C30.0952 46.8006 30.5054 46.3055 31.0531 46.016C31.6007 45.7266 32.2408 45.6664 32.8328 45.8488C38.9237 47.7262 27.9308 53.7754 29.9125 47.3924Z" stroke="#F9AF8C" stroke-width="0.95" stroke-miterlimit="10"/>
<path d="M177.68 65.8739C177.863 65.282 178.273 64.7869 178.821 64.4975C179.368 64.208 180.008 64.1479 180.6 64.3303C186.691 66.2285 175.698 72.2777 177.68 65.8739Z" stroke="#F9AF8C" stroke-width="0.95" stroke-miterlimit="10"/>
<path d="M202.649 79.3698C202.832 78.778 203.242 78.2829 203.789 77.9934C204.337 77.704 204.977 77.6438 205.569 77.8263C211.66 79.7245 200.667 85.7737 202.649 79.3698Z" fill="#F9AF8C"/>
<path d="M95.8272 144.284C95.9679 144.011 96.1615 143.769 96.3966 143.572C96.6318 143.375 96.9038 143.226 97.1969 143.135C97.49 143.044 97.7983 143.012 98.1039 143.041C98.4095 143.07 98.7063 143.159 98.977 143.304C104.63 146.245 92.7192 150.187 95.8272 144.284Z" stroke="#F9AF8C" stroke-width="0.95" stroke-miterlimit="10"/>
<path d="M45.89 114.893C46.1788 114.347 46.6708 113.936 47.26 113.748C47.8492 113.561 48.4884 113.613 49.0398 113.892C54.6301 116.812 42.7402 120.817 45.89 114.893Z" fill="#F9AF8C"/>
<path d="M158.887 155.757L151.92 144.973C151.064 143.679 150.105 142.449 149.291 141.114C146.392 136.441 143.576 131.727 140.635 127.096C139.341 125.01 137.902 123.07 136.463 121.151C134.534 118.711 132.843 116.092 131.415 113.329C131.019 112.453 131.603 112.119 132.75 112.244C133.465 112.324 134.167 112.499 134.836 112.766C135.688 113.03 136.452 113.52 137.047 114.184C138.111 115.394 139.133 116.604 140.197 117.835C141.26 119.065 142.032 120.421 142.929 121.735C144.681 124.405 146.329 127.117 147.894 129.933C149.875 133.291 152.274 136.42 154.506 139.758L161.557 150.521C163.017 152.732 164.477 154.943 165.979 157.092C168.253 160.388 170.505 163.704 172.988 166.771C174.922 169.087 177.013 171.269 179.245 173.3C179.723 173.718 180.176 174.164 180.601 174.635C180.952 174.962 181.266 175.325 181.54 175.719C181.746 175.968 181.908 176.25 182.02 176.554C182.102 177.058 182.157 177.566 182.187 178.076C182.231 178.306 182.301 178.53 182.395 178.744C182.958 179.37 180.622 180.1 178.703 179.015C176.085 177.485 173.767 175.492 171.861 173.133C169.775 171.047 168.065 168.669 166.313 166.353C163.684 162.891 161.244 159.303 158.782 155.757H158.887Z" fill="#F9AF8C"/>
<path d="M183 167.021C183.807 169.123 184.449 171.285 184.919 173.487C185.195 174.74 185.273 176.028 185.149 177.305C185.086 177.721 184.995 178.132 184.877 178.535C184.688 178.997 184.45 179.438 184.168 179.85C183.63 180.582 182.911 181.164 182.082 181.539C181.232 181.893 180.3 182.001 179.391 181.852C178.668 181.739 177.966 181.521 177.306 181.205C176.203 180.636 175.173 179.936 174.239 179.119C172.54 177.681 170.963 176.104 169.525 174.405C167.439 171.986 165.478 169.545 163.664 167.021C157.197 158.344 151.294 149.061 145.558 139.904C143.013 135.732 140.364 131.79 137.694 127.826C134.314 122.716 130.852 117.647 127.89 112.265C126.993 110.555 127.389 110.576 128.828 111.535C131.193 113.069 133.305 114.962 135.086 117.146C138.948 122.117 142.521 127.306 145.787 132.686C149.055 138.026 152.351 143.373 155.674 148.727C159.554 155.152 164.414 161.243 168.878 167.501C171.227 170.864 173.98 173.925 177.076 176.616C178.599 177.826 180.393 178.494 180.914 177.805C181.769 177.43 181.54 175.26 181.06 173.362C179.59 168.455 177.626 163.71 175.199 159.199C171.632 152.19 167.731 145.265 163.664 138.548C160.514 133.333 157.03 128.452 153.714 123.425L151.482 120.129C148.77 115.957 148.374 114.351 148.728 112.87C148.779 112.529 148.863 112.194 148.978 111.869C149.437 111.014 151.064 112.307 153.505 115.144C160.271 124.198 166.411 133.705 171.882 143.596C176.135 151.134 179.884 158.946 183.104 166.979L183 167.021Z" fill="#F9AF8C"/>
<path d="M126.24 110.263C132.908 108.785 139.123 105.731 144.367 101.356C149.631 96.9321 153.818 91.368 156.611 85.0854C158.622 80.4402 159.916 75.517 160.45 70.4838C160.85 66.0687 160.717 61.6214 160.053 57.2381C159.224 52.8663 157.821 48.6231 155.881 44.6182C153.81 40.7055 151.19 37.1091 148.101 33.9382C144.884 30.8271 141.239 28.1929 137.275 26.1159C133.716 24.2775 129.948 22.8766 126.052 21.944C122.162 21.078 118.19 20.6236 114.204 20.5882C104.015 20.6489 94.0589 23.6395 85.5227 29.2031C82.8944 30.9136 82.4355 29.8497 84.0417 27.284C86.9685 23.215 91.1546 20.2239 95.9524 18.7734C106.759 15.197 118.395 14.9788 129.327 18.1476C140.4 21.154 150.023 28.0386 156.445 37.5468C160.258 43.2916 162.869 49.7485 164.121 56.5289C165.422 63.6786 165.197 71.0226 163.46 78.0793C161.724 85.136 158.516 91.746 154.046 97.4758C151.677 100.418 148.999 103.096 146.057 105.465C143.077 107.79 139.844 109.77 136.42 111.368C127.925 115.186 118.526 116.53 109.302 115.248C96.9228 113.747 85.556 107.659 77.4461 98.1855C69.3363 88.7124 65.0729 76.543 65.4977 64.08C65.5512 61.7229 65.7813 59.3731 66.1861 57.0504C66.696 53.9491 67.6441 50.9361 69.0021 48.1017C69.5779 46.7637 70.5265 45.6196 71.7346 44.8059C72.1269 44.5221 72.5461 44.2776 72.9862 44.0758C74.2378 43.8255 72.9862 47.0796 71.5261 52.8368C69.2506 61.566 69.4238 70.7535 72.0267 79.3908C74.6558 88.1601 79.9664 95.8852 87.2123 101.481C92.6834 105.685 99.0087 108.641 105.744 110.14C112.479 111.639 119.461 111.645 126.198 110.158L126.24 110.263Z" fill="#F9AF8C"/>
<path d="M189.257 144.889C188.186 142.579 186.849 140.402 185.273 138.402C184.682 137.755 184.048 137.148 183.375 136.587C182.392 135.61 181.18 134.893 179.85 134.501C178.461 134.159 177 134.268 175.678 134.814C174.374 135.332 173.199 136.13 172.236 137.15C170.901 138.423 169.921 140.029 168.461 141.322C168.023 141.656 167.021 140.988 166.375 139.862C166.013 139.318 165.82 138.68 165.82 138.026C165.82 137.373 166.013 136.735 166.375 136.191C167.849 134.295 169.651 132.677 171.694 131.414C173.943 130.063 176.577 129.498 179.182 129.808C180.758 130.031 182.287 130.51 183.709 131.226C184.376 131.581 184.96 131.998 185.586 132.394C186.212 132.791 186.692 133.312 187.213 133.771C189.279 135.894 191.029 138.304 192.407 140.926C193.262 142.469 194.013 144.055 194.722 145.64C195.807 148.06 196.683 150.542 197.601 152.983C198.31 154.881 199.207 156.696 199.896 158.615C200.07 159.031 200.223 159.455 200.355 159.887C200.813 161.514 200.542 162.14 199.395 162.682C199.134 162.822 198.862 162.94 198.581 163.037C198.111 163.162 197.611 163.102 197.185 162.869C196.758 162.636 196.436 162.248 196.287 161.785C194.785 158.698 193.638 155.381 192.345 152.065C191.413 149.616 190.348 147.221 189.153 144.889H189.257Z" fill="#F9AF8C"/>
<path d="M209.178 154.192C208.366 152.149 207.404 150.169 206.299 148.268C205.882 147.58 205.36 146.996 204.901 146.349C203.537 144.082 201.602 142.213 199.29 140.926C198.311 140.507 197.228 140.391 196.182 140.592C194.876 141.061 193.595 141.597 192.344 142.198C191.885 142.324 191.134 141.364 190.842 140.112C190.612 139.522 190.588 138.872 190.774 138.266C190.959 137.661 191.343 137.135 191.864 136.775C193.994 135.668 196.44 135.329 198.79 135.815C200.95 136.325 202.91 137.465 204.422 139.09C206.124 140.7 207.693 142.444 209.115 144.305C210.513 146.339 211.734 148.488 212.765 150.73C213.391 152.086 213.934 153.462 214.476 154.902C215.289 156.988 215.936 159.074 216.562 161.16C217.104 162.807 217.855 164.351 218.397 166.061C218.531 166.43 218.642 166.806 218.731 167.188C219.044 168.648 218.731 169.274 217.48 169.587C217.188 169.587 216.916 169.754 216.624 169.795C216.194 169.834 215.763 169.739 215.389 169.522C215.015 169.306 214.718 168.978 214.538 168.585C213.412 166.082 212.453 163.287 211.493 160.471C210.763 158.385 210.012 156.299 209.094 154.213L209.178 154.192Z" fill="#F9AF8C"/>
<path d="M233.417 198.769C233.125 194.493 232.708 190.238 232.04 186.003C231.79 184.48 231.415 182.958 231.122 181.435C230.284 176.081 228.719 170.867 226.471 165.936C225.532 163.904 224.097 162.139 222.299 160.805C221.286 160.15 220.105 159.803 218.899 159.804C218.3 159.843 217.706 159.941 217.126 160.096C216.834 160.096 216.521 160.221 216.208 160.325L215.249 160.68C214.435 160.93 213.767 159.929 213.976 158.594C214.086 157.728 214.466 156.918 215.061 156.278C215.85 155.433 216.931 154.919 218.085 154.839C220.401 154.63 222.717 155.235 224.635 156.55C225.517 157.153 226.328 157.853 227.055 158.636C227.693 159.348 228.285 160.101 228.828 160.888C230.758 163.847 232.168 167.113 233 170.546C234.022 174.468 235.274 178.41 236.024 182.415C236.838 186.796 237.38 191.218 237.797 195.619C238.027 198.331 238.236 201.043 238.382 203.754C238.611 207.926 238.653 212.098 238.757 216.103C238.757 219.274 239.112 222.361 239.132 225.573C239.132 226.283 239.132 226.95 239.132 227.659C239.007 230.288 238.528 231.101 237.234 231.497C236.948 231.6 236.655 231.684 236.358 231.748C235.378 231.748 234.71 230.726 234.627 228.89C234.293 223.425 234.231 217.688 234.043 211.91C233.876 207.613 233.709 203.275 233.313 198.978L233.417 198.769Z" fill="#F9AF8C"/>
<path d="M173.696 209.303C168.628 204.01 164.003 198.31 159.866 192.261C158.357 190.055 156.965 187.771 155.695 185.419C153.28 181.164 151.741 176.469 151.168 171.61C150.985 170.243 151.076 168.853 151.434 167.521C151.792 166.189 152.41 164.942 153.254 163.85C154.286 162.707 155.69 161.967 157.217 161.764C158.661 161.643 160.109 161.94 161.389 162.62C163.328 163.66 165.118 164.958 166.708 166.479C168.273 167.918 169.754 169.378 171.13 170.859C172.945 172.778 174.718 174.676 176.491 176.491C177.409 177.388 178.285 178.264 179.182 179.057C179.944 179.791 180.835 180.378 181.81 180.788C181.993 180.824 182.169 180.887 182.332 180.976C182.466 181.067 182.569 181.199 182.624 181.351C182.624 181.602 182.624 182.269 181.685 182.624C180.503 182.996 179.23 182.951 178.077 182.499C176.633 182.019 175.305 181.245 174.176 180.225C170.004 176.429 166.667 172.382 163.058 168.961C161.683 167.453 159.912 166.361 157.947 165.811C157.62 165.791 157.293 165.849 156.992 165.98C156.691 166.11 156.425 166.31 156.216 166.562C155.605 167.236 155.193 168.066 155.027 168.961C154.694 171.875 155.185 174.823 156.445 177.472C157.595 180.407 158.99 183.24 160.617 185.94C164.35 191.945 168.706 197.538 173.613 202.628C176.616 205.836 179.784 208.886 183.104 211.764C188.128 216.174 193.469 220.211 199.082 223.842C203.675 227.024 207.063 231.661 208.698 237.004C209.064 238.144 209.35 239.308 209.553 240.488C209.872 242.01 209.935 243.575 209.741 245.119C209.682 245.549 209.548 245.965 209.345 246.349C209.13 246.664 208.885 246.957 208.615 247.225C208.364 247.455 208.156 247.747 207.968 247.893C207.405 248.435 205.882 246.704 205.382 243.721C204.654 239.553 203.039 235.591 200.646 232.102C199.408 230.467 197.939 229.02 196.287 227.805L194.994 226.887L193.471 225.844C192.428 225.163 191.406 224.468 190.405 223.759C184.382 219.449 178.756 214.611 173.592 209.303H173.696Z" fill="#F9AF8C"/>
<path d="M72.5073 102.023C77.3379 107.921 83.5501 112.536 90.5924 115.457C91.8648 116.041 93.2206 116.395 94.5348 116.854C95.8489 117.313 97.2256 117.584 98.5815 117.918C108.298 120.253 118.499 119.525 127.785 115.832C131.887 114.169 135.707 111.882 139.111 109.053C143.345 105.282 147.182 101.088 150.563 96.5372C151.71 95.1813 152.649 95.974 152.649 97.8722C152.641 99.081 152.429 100.28 152.023 101.418C151.434 102.929 150.61 104.336 149.583 105.59C141.335 115.375 129.654 121.63 116.938 123.07C109.35 123.996 101.655 123.43 94.2845 121.402C86.2182 119.038 78.8504 114.742 72.8202 108.886C69.1341 105.297 66.0555 101.134 63.7046 96.558C61.9122 93.0728 60.6001 89.3608 59.8039 85.5234C59.5679 84.5903 59.3937 83.6426 59.2824 82.6865C59.1573 81.727 58.9904 80.7675 58.8861 79.808C58.7124 77.8802 58.6636 75.9431 58.7401 74.009C58.9448 68.0334 60.3271 62.1569 62.8077 56.7166C63.356 55.5192 63.9759 54.356 64.6642 53.2331C67.2716 49.0612 68.836 48.1226 70.2753 48.1226C70.6216 48.0789 70.972 48.0789 71.3183 48.1226C72.2987 48.4563 71.4852 50.2085 69.7747 53.0662C64.3825 61.5089 62.1647 71.5924 63.5169 81.5184C64.6161 89.0111 67.7471 96.0594 72.5699 101.898L72.5073 102.023Z" fill="#F9AF8C"/>
<path d="M37.2243 81.2971C37.2814 81.1435 37.3734 81.0051 37.4929 80.8929C37.6125 80.7807 37.7565 80.6978 37.9135 80.6506C38.2692 80.5395 38.6462 80.5141 39.0136 80.5766C39.2766 80.6124 39.7385 81.0853 39.694 81.2853C39.6133 81.6707 39.5354 82.0512 39.4161 82.4143C39.3909 82.4578 39.2895 82.6893 39.1281 83.0023L38.8556 83.5413L38.5792 84.1876C38.375 84.6306 38.235 85.13 38.0842 85.5587C37.9334 85.9874 37.8713 86.3964 37.8057 86.6552C37.6058 87.6938 37.4013 88.6846 37.1537 89.6828C37.0137 90.1822 36.9573 90.7041 36.8616 91.2162C36.7658 91.7282 36.7573 92.2455 36.7426 92.7399C36.6862 93.7887 36.7084 94.8403 36.8089 95.8858C36.8636 96.3493 36.8581 96.8167 36.8671 97.2926C36.8869 98.9253 37.2542 100.535 37.9444 102.015C38.0138 102.281 38.155 102.523 38.3527 102.715C38.539 102.861 39.0418 103.944 39.6737 104.96C40.3056 105.976 41.0166 106.967 41.1596 107.211C41.87 108.444 42.7737 109.556 43.8362 110.503C43.9823 110.652 44.1988 110.713 44.2754 110.937C44.3616 111.164 44.5068 111.364 44.6959 111.516C44.8893 111.627 45.0876 111.742 45.2615 111.887C45.7764 112.268 46.3403 112.542 46.871 112.952C47.1408 113.162 47.3979 113.388 47.6409 113.628C47.6787 113.662 47.7069 113.704 47.7224 113.752C47.7379 113.8 47.7402 113.851 47.7291 113.9C47.718 113.949 47.6938 113.994 47.6591 114.031C47.6244 114.067 47.5806 114.094 47.5321 114.107C47.2086 114.12 47.3897 114.354 47.3808 114.503C47.3774 114.556 47.3633 114.607 47.3392 114.653C47.1102 114.669 46.8804 114.667 46.6516 114.65C46.1401 114.643 45.6301 114.592 45.1273 114.498C44.5908 114.41 44.0592 114.295 43.5346 114.152C43.231 114.068 42.937 113.952 42.6573 113.807C42.6331 113.793 42.2557 113.62 41.7434 113.279C41.4775 113.126 41.1819 112.923 40.8518 112.713C40.5217 112.503 40.2099 112.239 39.8744 111.994C38.8782 111.213 37.9436 110.357 37.0789 109.432C36.8222 109.157 36.6153 108.839 36.4675 108.493C36.4336 108.473 36.2257 108.185 35.9117 107.791C35.5977 107.397 35.2163 106.874 34.8794 106.319L34.3386 105.536L33.9229 104.793C33.766 104.533 33.6243 104.264 33.4985 103.987C33.3151 103.501 33.0755 103.033 32.9357 102.527C32.7583 102.032 32.6761 101.508 32.6933 100.982C32.6854 100.772 32.6438 100.565 32.57 100.369C32.1255 98.6521 31.9262 96.8808 31.9778 95.108L31.9761 93.7596C31.9657 93.3087 31.9878 92.8573 32.0223 92.4066C32.0449 92.2437 32.0796 92.0827 32.1263 91.925C32.1837 91.7264 32.2292 91.5245 32.2626 91.3204C32.5297 89.1919 33.1061 87.1138 33.9737 85.1519C34.2459 84.6625 34.5533 84.1936 34.8934 83.7488L35.5155 82.9281C35.6662 82.7485 35.8069 82.5607 35.937 82.3655C36.127 82.1537 36.3461 81.9698 36.5876 81.8193C36.8333 81.6906 37.05 81.5129 37.2243 81.2971Z" fill="#F9AF8C"/>
<path d="M50.1914 83.8515C50.204 83.3495 50.6353 83.0827 51.3198 83.0137C51.4707 83.0212 51.6185 83.0591 51.7542 83.1253C51.89 83.1915 52.0109 83.2846 52.1097 83.3988C52.1805 83.6767 52.2329 83.959 52.2666 84.2437C52.2814 84.3297 52.1174 84.9377 52.0305 85.6354C51.9535 86.2511 51.908 86.8704 51.8941 87.4908C51.9441 88.2417 51.8335 88.958 51.8753 89.6785C51.8777 90.4054 51.9235 91.1315 52.0125 91.8529C52.061 92.2115 52.129 92.5671 52.2162 92.9183C52.2861 93.2795 52.3879 93.6339 52.5203 93.9772C52.6228 94.2869 52.6933 94.6063 52.7308 94.9303C52.8538 95.4769 53.0295 96.0102 53.2556 96.5227C53.5108 97.0332 53.806 97.5226 54.1383 97.9866C54.2408 98.1529 54.3805 98.2931 54.5464 98.3963C54.7206 98.5348 54.8743 98.6973 55.0027 98.8789C55.2357 99.1231 55.5293 99.4409 55.7884 99.7516C56.0474 100.062 56.3916 100.371 56.6287 100.63C56.8021 100.8 56.965 100.98 57.1166 101.17C57.4354 101.566 57.7828 101.947 58.0946 102.379C58.4064 102.81 58.8198 103.133 59.1872 103.513C59.2927 103.632 59.4532 103.666 59.5022 103.849C59.6383 104.168 59.8847 104.427 60.1964 104.579C60.5573 104.858 60.9224 105.153 61.279 105.462C61.454 105.639 61.6157 105.83 61.7627 106.031C61.9094 106.213 61.6952 106.405 61.6176 106.405C61.3857 106.394 61.5032 106.603 61.4445 106.705C61.431 106.744 61.4102 106.78 61.3831 106.811C61.3664 106.84 60.6516 106.705 59.8661 106.58C59.4953 106.533 59.1306 106.446 58.7786 106.32C58.57 106.263 58.3653 106.192 58.1659 106.108C58.1321 106.088 57.1793 105.583 56.1805 105.013C55.449 104.55 54.7493 104.038 54.0861 103.482C53.8959 103.303 53.7282 103.103 53.5867 102.884C53.5867 102.884 53.3817 102.714 53.1391 102.464L52.2649 101.566C51.9686 101.267 51.6911 100.95 51.434 100.616C51.2129 100.34 51.0593 100.148 51.0387 100.117C50.8265 99.8159 50.6298 99.5044 50.4493 99.1835C50.2791 98.8751 50.1557 98.5431 50.0832 98.1984C50.0457 98.0556 49.991 97.918 49.9202 97.7884C49.6272 97.231 49.3801 96.6506 49.1814 96.0531C49.0207 95.4381 48.8267 94.8361 48.7214 94.2144C48.6161 93.5927 48.4264 92.961 48.3649 92.3194C48.3653 92.2011 48.3732 92.0829 48.3886 91.9656C48.4054 91.819 48.4109 91.6713 48.4051 91.5239C48.3224 90.7707 48.3285 90.0104 48.4235 89.2586L48.4572 88.6978L48.5455 88.1428C48.5977 87.7732 48.6451 87.4008 48.68 87.0277C48.702 86.874 48.7396 86.7229 48.7921 86.5767L49.0617 85.92C49.2302 85.5567 49.3715 85.1814 49.4843 84.7972C49.5234 84.5619 50.1995 84.0496 50.1914 83.8515Z" fill="#F9AF8C"/>
</svg>
