<svg width="319" height="319" viewBox="0 0 319 319" fill="none" xmlns="http://www.w3.org/2000/svg">
<path d="M24.0745 72.2735C34.6016 56.6371 49.2708 44.2373 66.4417 36.4607C72.6883 33.6761 79.2615 31.6915 86.0054 30.5542C109.718 26.4191 134.126 30.9857 154.74 43.4139C163.811 48.817 171.887 55.7379 178.615 63.8748C187.46 74.1739 193.343 86.6808 195.637 100.061C196.384 104.198 194.59 103.849 192.198 100.859C190.723 98.95 189.461 96.8859 188.434 94.7031C186.743 91.9159 185.292 88.9895 184.098 85.9556C178.866 74.3441 171.008 64.1064 161.145 56.0493C151.117 47.9002 139.533 41.8796 127.102 38.3548C125.229 37.781 123.323 37.3232 121.394 36.9841C119.475 36.6601 117.556 36.0869 115.588 35.9374C111.63 35.4263 107.64 35.2014 103.65 35.2645C95.6336 35.3219 87.6555 36.3767 79.8995 38.4046C75.6763 39.5071 71.557 40.9747 67.5881 42.7909C65.5995 43.7088 63.6611 44.7321 61.7813 45.8563L58.8904 47.4762L56.1241 49.2955C48.6836 54.1344 41.9703 60.0085 36.1866 66.7408C32.6701 70.8947 29.4868 75.3196 26.6664 79.9743C24.0373 84.6982 21.7873 89.6233 19.9375 94.7031C14.0595 110.23 12.5174 127.064 15.4765 143.4C17.9694 155.78 23.1975 167.445 30.7785 177.543C31.5511 178.665 32.4234 179.712 33.2707 180.758C34.118 181.805 34.9903 182.877 35.9373 183.899C42.7909 191.55 45.2581 193.668 45.9061 196.534C46.0885 197.152 46.2136 197.787 46.2799 198.428C46.2799 199.3 45.2332 199.226 43.4388 198.428C42.3013 197.843 41.2025 197.185 40.1491 196.459C38.928 195.537 37.657 194.391 36.062 193.045C26.9838 184.667 19.7888 174.456 14.9531 163.089C12.4862 157.257 10.5996 151.197 9.32078 144.995C8.1073 138.721 7.48982 132.346 7.47656 125.955C7.57148 116.442 9.03185 106.991 11.813 97.8931C14.661 88.84 18.7362 80.2199 23.925 72.2735H24.0745Z" fill="#F9AF8C"/>
<path d="M90.3663 223.375C85.0337 228.056 78.9059 231.744 72.2731 234.266C69.9466 235.274 67.5672 236.156 65.1454 236.907C63.2763 237.505 61.3573 237.929 59.4632 238.378L56.5972 238.976L55.1517 239.225L53.3573 239.549C50.3169 240.047 47.3512 240.446 44.6845 240.621C42.0179 240.795 38.5288 241.368 38.5039 240.421C39.8746 238.851 41.4447 237.057 42.6659 235.437L44.4353 233.244L45.5817 231.25C45.9724 230.634 46.306 229.983 46.5786 229.306L47.102 228.06C47.7084 226.369 48.1915 224.637 48.5474 222.876C49.5194 218.341 49.5692 213.63 50.3667 208.97C50.591 207.549 52.2608 207.674 53.9056 208.97C54.888 209.805 55.6563 210.862 56.1462 212.055C56.6362 213.247 56.8335 214.539 56.7218 215.823C56.3299 219.874 55.4941 223.868 54.2296 227.736C53.8807 228.708 53.5318 229.705 53.1081 230.652L52.5349 231.923C52.2998 232.092 52.0751 232.275 51.862 232.471L51.4882 232.795C51.4882 232.795 51.4882 232.795 51.4882 232.945C51.4882 233.094 51.6627 233.119 51.862 233.219C52.2316 233.299 52.614 233.299 52.9835 233.219H53.3573H53.9056L55.0022 232.995L57.1704 232.496C60.0364 231.773 62.8775 230.851 65.6688 230.004C71.7987 228.03 77.5836 225.112 82.815 221.356C83.6142 220.797 84.3721 220.18 85.0829 219.512C85.8056 218.839 86.6031 218.241 87.2511 217.543L89.7433 214.677L90.5159 213.805C90.5159 213.805 90.5159 213.655 90.7152 213.63H90.9645H91.5127L93.656 214.054L96.2728 214.527C97.0454 214.527 97.793 214.802 98.5656 214.901C100.086 215.151 101.606 215.325 103.126 215.499C106.119 215.871 109.132 216.062 112.148 216.073C116.816 215.861 121.45 215.176 125.98 214.029L128.945 213.256C132.634 212.359 133.93 212.409 135.151 213.88C135.462 214.186 135.746 214.52 135.998 214.876C136.746 216.048 135.5 217.618 132.684 218.689C123.899 221.798 114.561 223.037 105.27 222.328C101.768 222.14 98.2808 221.741 94.8273 221.132L93.6311 220.932H93.3819C93.2324 220.932 92.9582 220.808 93.008 220.932L92.5595 221.456C91.967 222.181 91.3079 222.848 90.5906 223.45L90.3663 223.375Z" fill="#F9AF8C"/>
<path d="M204.136 116.659C198.08 118.453 192.233 120.884 186.69 123.912C181.178 127.031 176.022 130.741 171.313 134.977C166.638 139.307 162.511 144.195 159.027 149.531C150.483 162.694 146.05 178.102 146.292 193.793C146.443 210.356 152.058 226.406 162.265 239.452C172.472 252.498 186.699 261.809 202.74 265.941C209.888 267.755 217.249 268.593 224.621 268.434C226.466 268.434 228.31 268.434 230.129 268.184C231.948 267.935 233.818 267.96 235.637 267.611L238.378 267.187L240.472 266.863L241.543 266.714H242.067C242.216 266.714 242.316 266.963 242.44 267.088L244.933 269.904C245.524 270.529 246.166 271.104 246.852 271.624C251.801 275.454 257.609 278.02 263.774 279.1C266.9 279.703 270.064 280.095 273.244 280.271H274.764H277.456L277.331 280.072C276.978 279.593 276.654 279.094 276.359 278.577L275.935 277.754L275.487 276.857C275.288 276.483 275.138 276.11 274.964 275.761C273.609 272.796 272.702 269.646 272.272 266.415C271.948 263.549 272.272 262.128 272.92 261.904C273.568 261.68 274.141 262.627 275.013 264.396C275.886 266.166 277.057 268.483 278.752 271.15C279.175 271.823 279.624 272.496 280.122 273.219L280.87 274.29L281.269 274.838L281.991 275.91C283.985 278.901 287.2 282.689 290.116 286.552C289.368 286.701 288.272 286.801 287.25 286.926L284.135 287.274C283.038 287.274 281.942 287.499 280.795 287.549H277.157H275.337H273.643H271.699C270.403 287.424 269.207 287.349 267.786 287.15C265.166 286.837 262.568 286.354 260.01 285.704C254.681 284.449 249.618 282.255 245.057 279.225C243.882 278.48 242.766 277.647 241.718 276.733C241.168 276.299 240.651 275.824 240.173 275.312L239.45 274.515L235.861 275.013C233.369 275.337 230.727 275.462 228.16 275.661C225.593 275.86 223.026 275.661 220.434 275.661C210.055 275.284 199.826 273.056 190.229 269.082C180.634 265.066 171.914 259.217 164.56 251.861C160.146 247.262 156.244 242.198 152.921 236.758C149.563 231.417 146.797 225.726 144.672 219.786C140.399 207.818 138.957 195.022 140.46 182.403C141.326 175.583 142.999 168.891 145.445 162.466C147.819 155.972 151.027 149.814 154.99 144.148C156.945 141.308 159.067 138.587 161.345 135.999C163.706 133.465 166.202 131.061 168.821 128.796C173.99 124.23 179.698 120.313 185.818 117.133C200.848 109.208 217.832 105.749 234.765 107.164C237.945 107.417 241.107 107.858 244.235 108.485C245.809 108.779 247.365 109.162 248.895 109.631C250.44 110.08 252.01 110.379 253.506 110.952C256.536 112 259.498 113.232 262.378 114.641C263.823 115.338 265.269 116.011 266.689 116.759L270.777 119.251L272.82 120.497L274.764 121.918L278.602 124.759L282.191 127.899C283.403 128.925 284.552 130.023 285.63 131.189L288.92 134.578C289.966 135.774 290.914 137.07 291.91 138.292C299.975 148.482 305.509 160.439 308.06 173.182C309.937 182.822 309.996 192.729 308.234 202.391C307.465 206.637 306.323 210.806 304.82 214.852C302.902 220.27 300.18 225.37 296.745 229.979C295.272 232.151 293.274 233.917 290.938 235.113C290.197 235.507 289.421 235.833 288.621 236.085C287.624 236.085 287.973 234.889 289.269 232.421C290.565 229.954 292.758 226.216 295.2 221.306C302.639 206.397 304.817 189.411 301.381 173.107C297.865 156.487 288.815 141.551 275.711 130.74C270.879 126.689 265.543 123.279 259.836 120.597C256.994 119.264 254.073 118.107 251.088 117.133C249.593 116.659 248.048 116.31 246.528 115.887L244.235 115.189C243.462 115.015 242.665 114.915 241.892 114.765C229.337 112.474 216.419 113.174 204.185 116.809L204.136 116.659Z" fill="#F9AF8C"/>
<path d="M230.329 155.139C229.854 154.751 229.304 154.467 228.713 154.305C228.122 154.143 227.504 154.107 226.898 154.199C226.292 154.29 225.713 154.508 225.196 154.837C224.679 155.166 224.237 155.6 223.899 156.111C223.724 169.02 233.693 189.606 238.852 201.444C241.519 201.045 241.344 199.325 241.344 197.132C241.17 188.958 232.522 157.008 230.329 155.139Z" fill="#F9AF8C"/>
<path d="M203.912 162.565C202.886 161.908 201.642 161.683 200.451 161.94C199.261 162.197 198.22 162.915 197.557 163.936C199.351 176.173 209.494 196.733 215.351 208.222C217.993 207.674 217.843 205.954 217.569 203.761C216.821 195.612 206.379 164.011 203.912 162.565Z" fill="#F9AF8C"/>
<path d="M117.483 115.563C120.859 112.143 122.795 107.558 122.891 102.753C122.902 100.996 122.641 99.2471 122.118 97.5692C120.673 91.6877 114.143 87.6005 107.339 88.2734C104.316 88.4721 101.388 89.4138 98.8161 91.0148C95.5591 93.0963 92.9109 96.0025 91.1402 99.4384C90.5172 100.485 89.7446 100.136 89.3707 98.7655C89.1266 97.7069 89.116 96.6078 89.3398 95.5447C89.5636 94.4816 90.0164 93.48 90.6667 92.6098C93.5442 88.6187 97.6646 85.6951 102.382 84.297C107.099 82.8989 112.147 83.1053 116.735 84.884C119.574 86.0255 122.127 87.7783 124.212 90.0179C126.285 92.323 127.735 95.1196 128.423 98.1424C129.8 104.538 128.752 111.217 125.483 116.884C123.35 120.215 120.497 123.025 117.134 125.108C112.399 128.248 107.314 130.267 103.177 133.232C101.618 134.302 100.224 135.595 99.0404 137.07C97.9632 138.54 97.0756 140.139 96.3987 141.83C96.0249 142.653 95.7258 143.5 95.2523 144.323C93.4829 147.413 92.3115 148.036 90.2679 147.538C89.8096 147.463 89.3591 147.346 88.9222 147.189C87.5265 146.566 87.3272 144.696 88.1247 142.553C88.7228 140.883 89.2461 139.239 90.0935 137.394C91.0059 135.284 92.2606 133.339 93.8068 131.637C96.839 128.551 100.338 125.961 104.174 123.961C109.358 121.071 114.143 118.753 117.258 115.413L117.483 115.563Z" fill="#F9AF8C"/>
<path d="M87.8238 162.192V162.665C87.6948 163.279 87.4326 163.857 87.0557 164.359C86.6789 164.86 86.1965 165.273 85.6427 165.568C85.089 165.862 84.4772 166.032 83.8508 166.064C83.2243 166.097 82.5983 165.991 82.017 165.755C81.1921 165.574 80.4316 165.172 79.8162 164.594C79.2007 164.015 78.753 163.281 78.5207 162.469C78.2883 161.657 78.2797 160.797 78.496 159.98C78.7122 159.164 79.1452 158.421 79.7491 157.83C83.2133 154.017 88.4469 157.656 87.8238 162.192Z" fill="#F9AF8C"/>
<path d="M226.142 218.739C226.316 221.231 224.92 223.4 220.783 222.826C219.959 222.708 219.182 222.372 218.531 221.853C217.88 221.334 217.379 220.651 217.079 219.875C216.78 219.098 216.693 218.256 216.827 217.434C216.961 216.612 217.312 215.841 217.843 215.2C221.506 210.191 225.842 214.802 226.142 218.739Z" fill="#F9AF8C"/>
<path d="M248.67 211.437C248.67 213.929 246.876 215.898 242.838 214.826C242.027 214.611 241.288 214.181 240.7 213.582C240.112 212.983 239.695 212.237 239.494 211.422C239.293 210.606 239.314 209.752 239.556 208.948C239.798 208.144 240.252 207.42 240.87 206.851C245.106 202.366 248.869 207.475 248.67 211.437Z" fill="#F9AF8C"/>
<path d="M186.167 265.742C193.58 269.512 201.547 272.078 209.768 273.343C212.774 273.77 215.804 274.012 218.839 274.066H222.877C224.222 274.066 225.543 274.066 226.889 273.891L230.926 273.667C232.272 273.667 233.593 273.293 234.914 273.119L239.5 272.446C240.123 272.147 240.372 272.87 240.796 273.194L241.718 274.165L243.063 275.586C244.01 276.483 245.082 277.256 246.079 278.078C247.076 278.901 248.297 279.499 249.419 280.222C253.596 282.437 258.123 283.92 262.802 284.608C268.831 285.413 274.927 285.597 280.995 285.156C282.839 285.156 282.764 285.904 281.244 286.95C278.72 288.39 275.849 289.105 272.945 289.019C266.355 289.068 259.808 287.954 253.605 285.729C250.452 284.584 247.462 283.035 244.708 281.119C243.359 280.114 242.069 279.032 240.845 277.879L239.126 276.01V275.86C239.126 275.86 238.926 275.86 238.901 275.86C231.123 277.161 223.227 277.62 215.35 277.231C206.636 276.522 198.09 274.436 190.03 271.05C188.784 270.502 187.537 270.004 186.341 269.455L182.802 267.536C180.434 266.287 178.153 264.88 175.974 263.324C169.369 258.667 163.49 253.057 158.528 246.677C154.715 241.792 151.424 236.521 148.709 230.951C148.111 229.73 147.538 228.459 146.94 227.263C145.17 222.478 144.921 220.833 145.42 219.562C145.496 219.265 145.614 218.979 145.768 218.714C146.267 218.091 147.463 219.836 148.809 223.2C152.896 233.462 158.901 242.85 166.503 250.864C172.238 256.919 178.985 261.929 186.441 265.667L186.167 265.742Z" fill="#F9AF8C"/>
<path d="M95.4257 223.001L93.8556 222.702C93.8556 222.702 93.706 222.702 93.6811 222.702L91.4631 224.995C89.6427 226.608 87.7106 228.09 85.6812 229.431C84.2362 230.432 82.7388 231.356 81.1953 232.197C75.7429 234.959 70.0006 237.108 64.0739 238.602C61.4571 239.275 58.8653 239.973 56.2485 240.571C52.9317 241.504 49.5212 242.064 46.0803 242.241C43.9371 242.241 46.3296 238.826 50.018 238.178C56.7491 237.037 63.4066 235.497 69.9555 233.568C73.9284 232.298 77.7352 230.558 81.2949 228.384C82.2997 227.846 83.2656 227.238 84.1859 226.565C85.1591 225.974 86.0841 225.307 86.9522 224.571C87.7996 223.823 88.7466 223.175 89.4444 222.378L92.2107 219.487L92.5098 219.188H92.9085L93.7559 219.337L95.0269 219.562L97.1453 219.911C98.5658 220.135 99.9863 220.359 101.407 220.534C105.686 221.182 110.015 221.449 114.341 221.331C117.597 221.124 120.812 220.505 123.911 219.487L125.905 218.764C128.397 217.892 129.294 217.742 130.167 218.366C130.38 218.486 130.58 218.628 130.765 218.789C131.263 219.313 130.416 220.285 128.547 221.281C122.617 223.925 116.135 225.088 109.656 224.671C104.877 224.419 100.117 223.886 95.4007 223.076L95.4257 223.001Z" fill="#F9AF8C"/>
<path d="M221.556 78.0803C221.607 77.5618 221.861 77.0845 222.262 76.7528C222.664 76.4212 223.181 76.2622 223.7 76.3108C229.058 76.8093 221.008 83.7376 221.556 78.0803Z" stroke="#F9AF8C" stroke-width="0.6" stroke-miterlimit="10"/>
<path d="M113.195 255.051C113.245 254.532 113.499 254.055 113.901 253.723C114.302 253.391 114.819 253.232 115.338 253.281C120.696 253.779 112.671 260.683 113.195 255.051Z" stroke="#F9AF8C" stroke-width="0.6" stroke-miterlimit="10"/>
<path d="M274.265 68.8342C274.47 68.9141 274.657 69.0335 274.816 69.1858C274.974 69.3381 275.101 69.5202 275.189 69.7216C275.277 69.9231 275.325 70.1399 275.329 70.3597C275.333 70.5795 275.293 70.7979 275.212 71.0024C273.568 75.2641 269.804 67.1146 274.265 68.8342Z" fill="#F9AF8C"/>
</svg>
