<svg width="224" height="224" viewBox="0 0 224 224" fill="none" xmlns="http://www.w3.org/2000/svg">
<path d="M20.002 134.855L13.8945 135.765L67.812 206.815L204.137 192.08L206.71 186.182L71.102 198.52L20.002 134.855Z" fill="#F9AF8C"/>
<path d="M118.16 83.7725C118.056 86.4869 116.904 89.0553 114.946 90.9383C112.988 92.8212 110.376 93.872 107.66 93.87C105.728 93.7607 103.87 93.0901 102.314 91.9405C100.758 90.7908 99.5718 89.2121 98.8999 87.3978C98.228 85.5836 98.1002 83.6127 98.5321 81.7269C98.964 79.8411 99.9368 78.1223 101.331 76.7812C102.726 75.4402 104.481 74.5353 106.383 74.1774C108.284 73.8195 110.248 74.0243 112.035 74.7665C113.821 75.5087 115.353 76.7562 116.441 78.3559C117.528 79.9557 118.126 81.8381 118.16 83.7725Z" fill="#F9AF8C"/>
<path d="M66.9376 68.355C65.9467 72.1021 65.5626 75.9838 65.8001 79.8525C66.0723 83.7513 66.8488 87.5983 68.1101 91.2975C68.5456 92.6677 69.0598 94.0116 69.6501 95.3225C70.1751 96.6525 70.8401 97.93 71.4001 99.225C76.1465 108.285 82.04 116.696 88.9351 124.25C91.9276 127.75 95.0951 130.987 98.2801 134.207C102.358 138.372 106.61 142.397 110.338 146.93C111.493 148.33 111.213 148.26 109.953 147.35C107.831 145.853 105.803 144.229 103.88 142.485C99.5284 138.495 95.2993 134.307 91.1926 129.92C87.0497 125.55 83.1751 120.933 79.5901 116.095C75.0814 110.204 71.2208 103.844 68.0751 97.125C64.5783 89.6141 63.1178 81.3159 63.8401 73.0625C64.4417 68.0128 66.0165 63.1277 68.4776 58.6775C70.3599 55.3484 72.589 52.2277 75.1276 49.3675C77.7094 46.5844 80.6522 44.1595 83.8776 42.1575C88.855 39.09 94.3166 36.8887 100.03 35.6475C101.29 35.3325 102.533 35.14 103.793 34.9125C105.053 34.685 105.98 34.6325 106.803 34.58C107.625 34.5275 108.325 34.58 108.868 34.58C109.643 34.601 110.411 34.7427 111.143 35C111.374 35.0625 111.602 35.1385 111.825 35.2275C112.28 35.525 110.355 35.7525 106.995 36.435C97.0376 37.8 86.6601 41.44 78.8901 48.545C76.0605 51.263 73.6222 54.361 71.6451 57.75C69.5328 61.0408 67.9668 64.6516 67.0076 68.4425L66.9376 68.355Z" fill="#F9AF8C"/>
<path d="M102.34 140.525C102.34 140.525 89.7227 145.25 94.8852 147.805C100.048 150.36 111.58 148.627 111.58 148.627L102.34 140.525Z" fill="#F9AF8C"/>
<path d="M126.805 137.462C127.137 136.937 133.42 136.99 135.905 138.32C138.39 139.65 136.15 141.82 134.347 142.87C130.076 144.992 125.48 146.387 120.75 147L126.805 137.462Z" fill="#F9AF8C"/>
<path d="M45.3068 124.46C48.6143 124.25 51.9393 124.005 55.2468 123.707L58.8518 123.305C63.1218 122.955 67.3743 122.622 71.6443 122.22C73.5343 122.027 75.4243 121.765 77.2793 121.502L80.8843 120.977C82.1187 120.872 83.3598 120.872 84.5943 120.977C85.3818 121.065 85.2943 121.607 84.7168 122.307C83.9417 123.249 82.9256 123.963 81.7768 124.372C79.3618 124.862 76.9118 125.247 74.4618 125.58C72.0118 125.912 69.5093 126 67.0068 126.087C64.0143 126.087 60.9518 126.735 57.9243 127.05C54.5818 127.382 51.2218 127.662 47.8793 127.96L41.7018 128.45C38.5693 128.712 35.4368 128.87 32.3393 129.167C29.9243 129.377 27.5793 129.867 25.1643 130.042C24.6393 130.042 24.1318 130.182 23.5893 130.2C21.5943 130.2 20.9643 129.99 20.5268 129.08C20.4393 128.87 20.3168 128.66 20.2468 128.45C20.0718 127.75 20.8593 127.137 22.2768 126.857C26.5815 126.018 30.9367 125.463 35.3143 125.195L45.2893 124.372L45.3068 124.46Z" fill="#F9AF8C"/>
<path d="M188.439 189C171.616 190.867 154.786 192.617 137.951 194.25C131.809 194.88 125.701 195.597 119.541 196.175C108.691 197.137 97.8589 198.065 86.9739 198.765C84.2614 198.94 81.5314 199.097 78.8014 199.202C77.4189 199.202 76.0539 199.307 74.6714 199.307C73.9714 199.307 73.2713 199.307 72.5538 199.307H71.9588H71.1713C70.9047 199.288 70.6409 199.241 70.3839 199.167L69.8414 198.59L67.0238 195.265L64.4164 192.132L59.1664 185.815L40.9839 163.362C33.2139 153.807 25.4089 144.235 18.2339 134.172C16.0289 130.987 16.8864 131.057 19.3539 133.245C23.4028 136.905 27.1701 140.866 30.6239 145.092L54.3714 174.37L66.3064 189L72.0639 195.877C72.0639 195.877 72.1688 195.877 72.2388 195.877H73.0964C73.8314 195.877 74.6014 195.877 75.3714 195.877C76.9289 195.877 78.4864 195.877 80.0614 195.755C95.1114 195.055 110.791 193.182 126.191 191.677C143.131 189.986 160.048 188.201 176.941 186.322L192.551 184.572L206.761 182.822H207.286H207.549H207.654V182.717L207.041 181.895L181.491 147.962L170.484 133.385C168.664 130.958 166.867 128.497 165.094 126C164.184 124.775 163.344 123.515 162.451 122.255C162.031 121.66 161.559 120.907 161.226 120.4L160.981 120.05C160.83 120.033 160.678 120.033 160.526 120.05H159.809H158.846H156.904L152.949 120.19C142.991 120.47 139.736 120.085 137.619 119.087C137.137 118.9 136.669 118.678 136.219 118.422C135.309 117.705 139.316 117.197 146.579 116.672C149.274 116.515 151.986 116.27 154.734 116.165C156.116 116.165 157.516 116.042 158.951 116.025H160.701C161.001 116.036 161.3 116.071 161.594 116.13C162.187 116.216 162.773 116.35 163.344 116.532C163.759 117.002 164.133 117.505 164.464 118.037L165.689 119.787L166.861 121.537L169.276 124.897L174.229 131.67C180.931 140.7 187.826 149.817 194.739 158.952L212.239 182.122L212.466 183.872L212.571 184.765L211.591 184.362V184.467V184.607L211.486 184.905L211.259 185.657C211.259 185.99 210.926 186.217 210.541 186.375C209.596 186.55 208.581 186.672 207.601 186.795L200.724 187.67L188.579 189.105L188.439 189Z" fill="#F9AF8C"/>
<path d="M135.135 43.3824C122.675 34.7899 105.752 33.8974 91.2446 38.4999C85.9588 40.2039 81.0552 42.9203 76.8071 46.4974C74.9505 48.0746 73.2563 49.8333 71.7496 51.7474L69.5446 54.7049C68.8621 55.7199 68.2671 56.7874 67.6196 57.8374C65.1943 62.0724 63.6636 66.7598 63.1221 71.6099C62.0546 81.3574 65.3621 91.2274 70.3146 99.9249C74.9135 107.657 80.3669 114.848 86.5721 121.362C90.4921 125.58 94.5521 129.692 98.6471 133.805C102.823 137.866 106.773 142.154 110.477 146.65C112.682 149.59 112.105 149.362 109.742 147.402C108.5 146.387 106.75 145.04 104.72 143.5C103.67 142.695 102.515 141.855 101.342 140.875C100.17 139.895 98.9796 138.845 97.8421 137.707C93.5371 133.647 89.092 129.657 85.0496 125.265C80.9 120.905 77.0083 116.306 73.3946 111.492C69.7091 106.623 66.5364 101.386 63.9271 95.8649C61.1888 90.2202 59.5666 84.0998 59.1496 77.8399C59.0882 76.9018 59.0882 75.9606 59.1496 75.0224C59.1496 74.0774 59.1496 73.1149 59.2546 72.1699C59.4239 70.2631 59.7162 68.3691 60.1296 66.4999C60.5818 64.6291 61.1667 62.7928 61.8796 61.0049C62.1946 60.1124 62.6496 59.2549 63.0346 58.3974C63.4098 57.5127 63.8424 56.6534 64.3296 55.8249C65.2552 54.1583 66.2838 52.551 67.4096 51.0124C67.9871 50.2424 68.5296 49.4724 69.1596 48.7199C69.7896 47.9674 70.4021 47.2324 71.0496 46.5324C73.6754 43.7334 76.6724 41.3075 79.9571 39.3224C87.1308 35.1578 95.1533 32.6691 103.425 32.0424C107.538 31.6838 111.677 31.7365 115.78 32.1999C119.869 32.6979 123.887 33.6729 127.75 35.1049C137.454 38.6796 145.585 45.5649 150.71 54.5474C154.369 61.398 156.139 69.0991 155.837 76.8599C155.509 84.4779 153.839 91.9781 150.902 99.0149C146.44 109.935 139.632 119.245 133.402 128.765C132.02 130.847 130.707 132.912 129.377 135.03C128.047 137.147 127.102 138.565 126.28 140C125.457 141.435 124.53 142.397 124.04 143.307C123.225 144.55 122.306 145.721 121.292 146.807C120.977 147.162 120.644 147.501 120.295 147.822C119.875 148.137 119.945 147.367 120.4 145.687C120.675 144.605 121.02 143.541 121.432 142.502C121.938 141.032 122.522 139.589 123.182 138.18C127.995 128.975 134.312 120.452 139.79 111.562C142.575 107.176 145.009 102.577 147.07 97.8074C149.053 93.0402 150.458 88.052 151.252 82.9499C152.49 75.4635 151.748 67.7835 149.1 60.6724C146.286 53.6511 141.403 47.6515 135.1 43.4699L135.135 43.3824Z" fill="#F9AF8C"/>
<path d="M102.27 76.2125C101.084 77.2531 100.153 78.551 99.5461 80.0069C98.9395 81.4628 98.6739 83.0382 98.7696 84.6125C99.0184 87.3093 100.326 89.7977 102.405 91.5328C104.485 93.2679 107.167 94.1083 109.865 93.87C111.757 93.6917 113.568 93.0155 115.115 91.91C117.004 90.4108 118.47 88.4443 119.367 86.205C119.7 85.54 120.522 85.75 121.117 86.6775C121.443 87.2619 121.623 87.9162 121.642 88.585C121.635 89.4342 121.406 90.2668 120.977 91C119.14 93.6853 116.425 95.6467 113.298 96.5473C110.171 97.4479 106.829 97.2314 103.845 95.935C102.088 95.158 100.509 94.031 99.203 92.6228C97.8971 91.2146 96.8922 89.5548 96.2496 87.745C95.6233 85.7459 95.4839 83.626 95.8431 81.562C96.2023 79.4981 97.0497 77.5499 98.3146 75.88C99.8003 73.8453 101.808 72.2492 104.125 71.26C105.873 70.5221 107.757 70.1585 109.655 70.1925C111.543 70.2489 113.395 70.7209 115.08 71.575C117.73 72.8525 119.914 74.9268 121.327 77.5075C121.633 78.0702 121.896 78.6552 122.115 79.2575C122.797 81.6375 122.43 82.495 121.607 82.9675C121.426 83.1028 121.226 83.2091 121.012 83.2825C120.33 83.475 119.857 82.6 119.437 81.2875C118.85 79.3179 117.73 77.5486 116.202 76.1745C114.673 74.8005 112.795 73.875 110.775 73.5C109.252 73.3011 107.703 73.4428 106.242 73.9149C104.78 74.387 103.441 75.1778 102.322 76.23L102.27 76.2125Z" fill="#F9AF8C"/>
<path d="M170.03 164.832L165.918 165.147C165.41 165.147 164.938 165.305 164.43 165.34C162.68 165.48 160.93 165.637 159.18 165.865C158.408 165.973 157.643 166.125 156.888 166.32C155.944 166.59 154.978 166.772 154 166.862C153.72 166.862 153.58 166.512 153.703 166.04C153.778 165.76 153.914 165.5 154.102 165.279C154.289 165.059 154.524 164.882 154.788 164.762C156.748 164.075 158.789 163.645 160.86 163.485C162.103 163.485 163.328 163.012 164.588 162.802C165.848 162.592 167.335 162.365 168.718 162.207L171.273 161.91C172.568 161.752 173.88 161.647 175.158 161.437C176.155 161.297 177.1 160.965 178.115 160.755C178.325 160.755 178.553 160.632 178.763 160.615C179.62 160.51 179.918 160.72 180.093 161.507C180.093 161.682 180.093 161.857 180.215 162.05C180.256 162.331 180.198 162.617 180.051 162.859C179.904 163.102 179.678 163.286 179.41 163.38C177.706 163.932 175.945 164.29 174.16 164.447L170.065 164.902L170.03 164.832Z" fill="#F9AF8C"/>
<path d="M41.1068 138.6H43.3468C43.6268 138.6 43.8893 138.6 44.1693 138.6H47.0743C47.4943 138.6 47.9318 138.6 48.3518 138.6C48.901 138.495 49.4651 138.495 50.0143 138.6C50.3468 138.687 49.9093 139.877 49.3318 140C48.2735 140.22 47.1918 140.309 46.1118 140.262C45.4418 140.272 44.774 140.342 44.1168 140.472L41.8943 140.717L40.5118 140.84C39.8118 140.84 39.1118 140.962 38.4293 141.067C37.7468 141.172 37.3793 141.33 36.8368 141.452H36.4868C36.0318 141.452 35.8918 141.452 35.7693 140.892C35.732 140.79 35.7028 140.685 35.6818 140.577C35.6479 140.413 35.6689 140.241 35.7416 140.09C35.8143 139.938 35.9347 139.814 36.0843 139.737C36.971 139.328 37.9153 139.056 38.8843 138.932C39.6193 138.827 40.3543 138.757 41.1068 138.687V138.6Z" fill="#F9AF8C"/>
<path d="M174.141 171.71H172.391C172.181 171.71 171.971 171.815 171.744 171.815C170.974 171.815 170.204 171.815 169.434 171.92C169.1 171.96 168.772 172.037 168.454 172.147C168.058 172.342 167.617 172.426 167.176 172.392C166.879 172.392 166.791 170.397 167.281 170.257C168.17 170.017 169.094 169.934 170.011 170.012C170.565 170.015 171.116 169.956 171.656 169.837L173.406 169.68L174.526 169.575C175.114 169.538 175.699 169.462 176.276 169.347C176.696 169.225 177.081 169.05 177.484 168.892L177.746 168.787C178.079 168.787 178.236 168.787 178.394 169.277L178.499 169.75C178.555 169.899 178.566 170.061 178.532 170.216C178.498 170.371 178.42 170.513 178.306 170.625C177.654 171.153 176.865 171.487 176.031 171.587C175.436 171.71 174.824 171.762 174.281 171.832L174.141 171.71Z" fill="#F9AF8C"/>
<path d="M157.028 18.2174C157.26 17.9275 157.548 17.6868 157.875 17.5093C158.201 17.3319 158.56 17.2212 158.93 17.1837C159.299 17.1462 159.673 17.1828 160.028 17.2911C160.384 17.3995 160.714 17.5776 161 17.8149C165.953 22.6449 151.008 24.4999 157.028 18.2174Z" stroke="#F9AF8C" stroke-width="1.2" stroke-miterlimit="10"/>
<path d="M170.887 39.6899C171.364 39.1264 172.041 38.7697 172.775 38.6946C173.509 38.6195 174.244 38.832 174.825 39.2874C179.812 44.1174 164.867 45.9374 170.887 39.6899Z" fill="#F9AF8C"/>
<path d="M41.8766 72.5725C41.5209 72.1407 41.0099 71.8657 40.4535 71.8068C39.8971 71.7479 39.3399 71.9097 38.9016 72.2575C35.1216 75.915 46.4441 77.28 41.8766 72.5725Z" fill="#F9AF8C"/>
</svg>
