<svg width="181" height="181" viewBox="0 0 181 181" fill="none" xmlns="http://www.w3.org/2000/svg">
<path d="M78.2836 84.8437C76.4312 84.066 75.0171 79.1875 73.3344 81.7045C70.5063 85.9467 63.4359 95.4068 56.507 103.75C39.7787 124.027 35.9607 135.326 37.2051 137.518C38.4495 139.709 32.9629 130.772 32.9629 130.772L75.809 74.7615L78.2836 84.8437Z" fill="#F9AF8C"/>
<path d="M37.5019 139.328C36.9166 138.518 36.3829 137.673 35.904 136.796C35.7343 136.471 35.508 136.188 35.3525 135.849C34.8459 134.645 34.5218 133.373 34.3909 132.073C34.3909 131.777 34.3909 131.48 34.3202 131.197V130.292C34.291 129.888 34.3449 129.483 34.4787 129.101C34.6125 128.719 34.8233 128.369 35.098 128.072C35.2818 127.888 35.7343 128.27 36.1444 128.708C36.5545 129.146 36.9645 129.599 36.8938 129.811C36.6819 130.834 36.6389 131.885 36.7666 132.922C36.9163 133.667 37.2144 134.374 37.6433 135.001C38.0535 135.764 38.5265 136.493 39.0573 137.178C39.374 137.611 39.7188 138.022 40.0896 138.408C40.6377 139.007 41.2548 139.539 41.9279 139.992C42.4935 140.275 43.0733 140.487 43.6106 140.699L43.9783 140.841C44.4025 141.01 44.4732 141.279 44.4308 141.831C44.4308 141.958 44.4308 142.085 44.4308 142.198C44.3913 142.402 44.2822 142.585 44.1222 142.716C43.9621 142.848 43.7613 142.92 43.5541 142.919C42.8348 142.957 42.1142 142.881 41.4188 142.693C40.7517 142.415 40.1353 142.028 39.5947 141.548C38.8155 140.886 38.0963 140.158 37.4453 139.37L37.5019 139.328Z" fill="#F9AF8C"/>
<path d="M90.1191 66.1358C84.6609 62.3885 85.6224 53.7627 84.9861 53.1971C84.3498 52.6315 83.0347 54.3849 81.4509 56.7888C80.0185 59.0912 78.874 61.5607 78.043 64.1419C78.043 64.1419 76.9825 51.9527 85.6366 47.9792C90.3878 45.7874 91.2928 45.4622 91.2928 45.4622L90.1191 66.1358Z" fill="#F9AF8C"/>
<path d="M66.5755 95.7887C66.8998 96.5307 67.2927 97.2409 67.7492 97.9098C67.9205 98.1594 68.1046 98.4002 68.3006 98.631C68.9364 99.5071 69.6259 100.343 70.3652 101.134C70.7014 101.477 71.0554 101.803 71.4257 102.11C71.9345 102.495 72.4077 102.926 72.8398 103.396C72.9812 103.552 72.8398 103.679 72.5994 103.736C72.2723 103.813 71.9286 103.778 71.6237 103.637C70.448 103.028 69.4087 102.186 68.5693 101.162C68.0744 100.54 67.4664 99.9743 66.9431 99.338C66.4091 98.6199 65.9361 97.8584 65.5291 97.0613C65.2625 96.5712 65.0356 96.0605 64.8503 95.5342C64.6948 95.1241 64.5958 94.714 64.4827 94.3039C64.3696 93.8938 64.2989 93.4696 64.2423 93.0595C64.1857 92.6495 64.1433 92.4091 64.1009 92.0838C64.0585 91.7586 64.1009 91.4334 64.1009 91.094C64.0796 90.9534 64.0796 90.8104 64.1009 90.6698C64.214 90.1324 64.3554 89.991 64.6665 89.9486H64.8928C65.119 89.9486 65.2746 90.2031 65.3453 90.5708C65.4576 91.5995 65.6371 92.6198 65.8826 93.6252C66.0812 94.3791 66.3609 95.1092 66.7169 95.8028L66.5755 95.7887Z" fill="#F9AF8C"/>
<path d="M89.3548 97.7683C88.5912 97.1744 87.8418 96.5523 87.0782 95.9442C86.3146 95.3362 85.6641 94.6857 84.8864 94.0211C84.1087 93.3565 83.7976 93.1019 83.2885 92.607C81.5701 90.766 80.0092 88.7841 78.6221 86.6821C78.0141 85.7488 77.3777 84.8297 76.8404 83.854C76.501 83.2176 76.1475 82.5955 75.8364 81.945C75.6067 81.2462 75.4828 80.5169 75.4688 79.7815C75.4687 79.329 75.794 79.2865 76.3737 79.4845C76.7154 79.591 77.0467 79.7283 77.3636 79.8946C77.5501 79.9796 77.7297 80.0789 77.9009 80.1915L78.1555 80.3612C78.1555 80.4319 78.2545 80.5026 78.2969 80.5875L82.5391 87.2619C83.5369 88.6002 84.6851 89.8196 85.9611 90.896C86.6116 91.5323 87.2762 92.1828 87.9973 92.7767C88.7185 93.3706 89.4114 93.9928 90.1326 94.5726C90.8538 95.1523 91.9567 95.9866 92.89 96.6512C94.3238 97.6492 95.8159 98.5605 97.3584 99.3804C98.5714 99.9192 99.8129 100.391 101.077 100.794C101.346 100.893 101.629 100.964 101.898 101.077C102.873 101.53 103.114 101.841 103.1 102.491C103.114 102.651 103.114 102.812 103.1 102.972C103.029 103.467 102.463 103.707 101.586 103.608C99.0113 103.173 96.5438 102.246 94.3182 100.879C92.6135 99.9119 90.9614 98.8546 89.369 97.7118L89.3548 97.7683Z" fill="#F9AF8C"/>
<path d="M79.5567 54.2153C81.6248 50.8553 84.2225 47.8517 87.2492 45.3208C88.3056 44.3724 89.4151 43.4848 90.5722 42.6624C92.6732 41.3077 94.922 40.1976 97.2749 39.3535C99.6058 38.4926 102.024 37.8904 104.487 37.5576C106.662 37.2301 108.862 37.0929 111.062 37.1475C112.496 37.1684 113.922 37.3728 115.304 37.7556C115.986 37.9557 116.648 38.2159 117.284 38.5333C117.934 38.8161 118.514 39.2545 119.136 39.5656C119.758 39.8767 119.447 40.612 118.514 41.0645C117.968 41.2986 117.406 41.4924 116.831 41.6442C116.183 41.8949 115.49 42.0103 114.795 41.9836C113.565 41.9836 112.405 41.8988 111.218 41.8563C110.624 41.8563 110.03 41.8563 109.45 41.8563H107.654C105.201 42.0071 102.767 42.3906 100.386 43.0017C97.4337 43.9379 94.6814 45.4148 92.2691 47.3571C89.4669 49.3625 87.0117 51.8129 85.0008 54.6112C83.7471 56.3361 82.6984 58.2011 81.8758 60.1685C80.5847 63.1507 79.8744 66.3518 79.7829 69.6003C79.8824 72.0741 80.2716 74.5277 80.9425 76.911C81.098 77.42 81.2818 77.9291 81.395 78.4523C81.9182 80.4037 81.6071 81.1956 80.9 81.9309C80.7304 82.1006 80.589 82.2985 80.4334 82.4258C79.9526 82.8359 79.0193 82.2561 77.9447 80.842C75.3761 76.1609 74.4972 70.7382 75.4559 65.4853C76.072 61.4895 77.4497 57.6491 79.5143 54.1728L79.5567 54.2153Z" fill="#F9AF8C"/>
<path d="M138.579 63.7177C137.302 59.0103 134.942 54.667 131.686 51.0354C128.43 47.4038 124.369 44.5847 119.828 42.8037C116.5 41.5097 112.964 40.8293 109.393 40.7958C103.012 40.6438 96.7139 42.2588 91.1937 45.4622C85.6174 48.6071 81.4091 53.7125 79.3863 59.7866C77.7994 65.264 77.9775 71.1021 79.8954 76.4726C81.0737 79.9521 82.7401 83.2468 84.8446 86.2579C86.9403 89.2479 89.3798 91.9816 92.1129 94.4029C93.8097 95.9159 93.3007 96.1846 91.321 95.4493C88.0688 94.1172 85.246 91.9157 83.1619 89.086C80.7501 85.8748 78.8163 82.3311 77.4208 78.5654C75.9993 74.749 75.2946 70.7029 75.3421 66.6307C75.3931 64.5771 75.6585 62.5345 76.134 60.5361C77.6801 54.4951 81.2544 49.1685 86.2587 45.448C94.1443 39.4352 104.082 36.7729 113.918 38.0384C122.635 39.3747 130.503 44.0186 135.886 51.005C141.268 57.9915 143.752 66.7832 142.821 75.5534C142.258 80.5016 140.766 85.299 138.423 89.6941C136.144 94.1946 132.733 98.0249 128.525 100.809C126.855 101.86 125.046 102.674 123.152 103.227C121.296 103.726 119.405 104.085 117.495 104.301C113.677 104.718 109.818 104.537 106.056 103.764C104.4 103.439 102.769 102.995 101.177 102.435C95.2804 100.045 93.9512 98.1926 93.3007 96.9058C93.1385 96.6114 93.0014 96.3039 92.8906 95.9866C92.7351 95.2372 95.0258 96.2977 98.9711 97.8815C104.869 100.331 111.285 101.269 117.637 100.611C119.226 100.422 120.8 100.12 122.346 99.7056C123.789 99.2943 125.169 98.6852 126.446 97.8956C129.1 96.2192 131.385 94.0206 133.163 91.4334C135.931 87.4322 137.855 82.9097 138.819 78.1412C139.806 73.3771 139.671 68.4487 138.423 63.746L138.579 63.7177Z" fill="#F9AF8C"/>
<path d="M49.5915 143.004C48.5793 143.519 47.5242 143.945 46.4381 144.277C45.8602 144.458 45.2693 144.595 44.6705 144.687C44.2553 144.762 43.8341 144.8 43.412 144.8L42.7191 144.63L42.2384 144.517C40.0322 143.767 38.0053 142.568 36.2852 140.996C34.5382 139.512 33.0973 137.701 32.043 135.665C31.7239 135.044 31.4726 134.389 31.2935 133.714C31.1945 133.275 31.0531 132.837 30.9824 132.413C31.1945 132.017 31.4066 131.635 31.647 131.253L33.3863 128.425L35.8609 124.664L38.4062 120.987C44.5857 112.503 51.1328 104.344 57.4395 96.0856C60.2677 92.4232 63.0958 88.7042 65.7825 85.0277L70.958 77.8584C72.6548 75.4686 74.3941 73.0788 75.893 70.6608C76.798 69.1619 77.3071 69.5154 77.0102 71.1981C76.4807 73.8477 75.4122 76.3602 73.8709 78.5795C70.5338 83.656 67.0269 88.5628 63.4493 93.4413C59.8717 98.3198 56.0962 103.015 52.3206 107.766C47.8098 113.422 43.4545 119.616 39.283 125.696C38.1234 127.365 37.0205 129.062 35.9316 130.758L34.659 132.837C34.659 132.922 34.659 133.021 34.659 133.106C34.6863 133.233 34.729 133.357 34.7863 133.473C34.9457 133.883 35.1348 134.28 35.3519 134.661C36.2976 136.291 37.5397 137.73 39.0143 138.903C39.7326 139.503 40.5096 140.029 41.3334 140.473C41.7306 140.697 42.1415 140.895 42.5636 141.067L43.1858 141.279L43.6524 141.406H43.8645H44.2463L45.0523 141.223C45.6038 141.067 46.1412 140.883 46.6927 140.671C47.7895 140.198 48.8525 139.65 49.8743 139.031C51.9671 137.786 53.9751 136.302 56.082 134.789C62.516 130.659 69.0066 126.644 75.3416 122.486C80.2766 119.276 85.0279 116.01 89.8781 112.8C90.9387 112.079 91.9851 111.386 93.0598 110.679C97.104 108.02 98.5322 107.469 99.7624 107.469C100.04 107.445 100.319 107.445 100.597 107.469C101.261 107.681 99.8755 109.152 97.0757 111.259C88.6903 117.424 79.7393 123.716 70.4772 129.641L60.1687 136.245C56.7466 138.324 53.6357 141.01 49.648 143.061L49.5915 143.004Z" fill="#F9AF8C"/>
<path d="M49.705 152.62C57.0298 150.188 64.5668 147.713 72.6128 147.105C74.0269 146.992 75.5258 146.921 77.0247 146.935C78.595 146.925 80.1597 147.124 81.6769 147.529C82.4667 147.756 83.2125 148.115 83.8829 148.59C84.748 149.191 85.3659 150.085 85.6222 151.107C85.7207 151.621 85.7207 152.148 85.6222 152.662C85.5743 153.104 85.4648 153.537 85.2969 153.949C85.0206 154.652 84.6648 155.321 84.2364 155.943C83.4052 157.112 82.3706 158.123 81.182 158.927C80.0862 159.645 78.9534 160.306 77.7883 160.906L71.1987 164.357L67.9464 166.068C67.6862 166.187 67.4548 166.36 67.2676 166.577C67.1653 166.681 67.0949 166.812 67.0648 166.955C67.0347 167.098 67.0462 167.246 67.098 167.383C67.2227 167.607 67.416 167.785 67.6494 167.892C67.9676 168.051 68.2987 168.184 68.6393 168.288C69.6397 168.58 70.6607 168.798 71.6937 168.938C73.7754 169.253 75.8841 169.353 77.9862 169.235C80.6992 168.923 83.3812 168.384 86.004 167.623L90.0058 166.492C91.335 166.082 92.7208 165.841 94.0641 165.488C95.761 165.078 95.7327 165.615 94.5591 166.76C93.765 167.515 92.9088 168.2 91.9996 168.811C90.7283 169.608 89.3532 170.227 87.913 170.649C85.065 171.545 82.1463 172.198 79.1882 172.6C77.6309 172.793 76.0583 172.831 74.4935 172.714C72.9769 172.621 71.4663 172.446 69.9685 172.19C69.181 172.05 68.4021 171.866 67.6353 171.639L67.0273 171.441L66.1788 171.102C65.5693 170.826 65.0026 170.464 64.4961 170.027C64.0227 169.626 63.6616 169.109 63.4484 168.526C63.2352 167.944 63.1772 167.316 63.28 166.704C63.3932 166.09 63.6446 165.509 64.0153 165.007C64.3849 164.444 64.8662 163.963 65.4294 163.593C65.7068 163.407 65.9948 163.237 66.2919 163.084L66.8293 162.815L67.7908 162.334L69.7281 161.373L73.5319 159.478C76.6287 157.923 79.9942 156.65 81.479 154.119C81.8568 153.584 82.1215 152.978 82.2567 152.337C82.2919 152.183 82.2797 152.023 82.2216 151.876C82.1636 151.73 82.0624 151.604 81.9315 151.517C81.3973 151.175 80.8018 150.939 80.178 150.824C79.4009 150.65 78.6113 150.536 77.8165 150.485C70.421 150.06 62.8558 151.899 55.5309 154.246C50.9918 155.66 46.4809 157.272 41.8994 158.743C38.4011 159.856 34.835 160.744 31.2232 161.401C29.404 161.738 27.5676 161.974 25.7225 162.108C23.8318 162.268 21.928 162.163 20.0662 161.797C19.2846 161.623 18.5321 161.337 17.832 160.949C17.053 160.519 16.4072 159.883 15.9655 159.11C15.5254 158.329 15.2964 157.447 15.3008 156.551C15.3344 155.726 15.4918 154.911 15.7675 154.133C16.9144 151.401 18.6531 148.957 20.8581 146.978C21.7499 146.088 22.6943 145.252 23.6862 144.475C27.4335 141.647 29.1587 141.237 30.4172 141.647C30.7018 141.718 30.9642 141.859 31.1808 142.057C31.2798 142.198 31.1808 142.34 31.1808 142.495C31.0175 142.703 30.8273 142.889 30.6151 143.047L27.787 145.224C25.9238 146.698 24.1964 148.335 22.6257 150.117C21.8413 151.006 21.1229 151.951 20.4763 152.945C19.8697 153.814 19.3933 154.767 19.0623 155.773C18.9285 156.059 18.8591 156.37 18.8591 156.685C18.8591 157 18.9285 157.312 19.0623 157.597C19.5032 158.136 20.1275 158.494 20.8157 158.601C23.0941 159.02 25.4268 159.054 27.7163 158.7C31.4475 158.228 35.1323 157.443 38.7319 156.353C42.3377 155.264 46.0284 153.921 49.705 152.662V152.62Z" fill="#F9AF8C"/>
<path d="M91.6037 58.825C91.8596 61.1167 92.3816 63.3709 93.1591 65.5418C93.4278 66.362 93.9086 67.0831 94.2055 67.875C95.3524 70.6981 96.8847 73.3487 98.7588 75.7513C99.1847 76.2661 99.6582 76.7395 100.173 77.1654C100.649 77.6456 101.165 78.0855 101.714 78.4805L102.746 79.2582L103.821 79.9652C104.5 80.4884 105.235 80.8702 105.956 81.3793C106.395 81.7045 106.169 82.157 105.504 82.454C104.598 82.828 103.581 82.828 102.676 82.454C101.76 82.0694 100.883 81.5957 100.06 81.0399L98.8578 80.1632L97.7548 79.1734C96.3018 77.8477 95.0364 76.3301 93.9934 74.6625C93.3854 73.6585 92.7349 72.6828 92.0703 71.6788C91.4283 70.6731 90.8566 69.6242 90.3593 68.5396C89.2651 66.1647 88.458 63.6677 87.9554 61.1016C87.7789 60.3137 87.6514 59.5156 87.5736 58.7119L87.418 57.5099V56.2938C87.2944 53.8164 87.5616 51.335 88.2099 48.9407C88.6663 47.0005 89.4353 45.1475 90.4866 43.4541C90.708 43.0972 90.9487 42.7526 91.2077 42.4219C92.4097 41.1916 93.1309 41.1634 94.0359 41.9552C94.2514 42.1244 94.4546 42.3087 94.6439 42.5067C94.9019 42.8463 95.0417 43.261 95.0417 43.6875C95.0417 44.1139 94.9019 44.5287 94.6439 44.8682C93.1425 47.1095 92.1528 49.6537 91.7451 52.3203C91.4121 54.49 91.4121 56.6978 91.7451 58.8674L91.6037 58.825Z" fill="#F9AF8C"/>
<path d="M116.293 51.8254C115.947 51.4259 115.463 51.1728 114.938 51.1177C114.412 51.0625 113.886 51.2094 113.465 51.5285C109.718 55.1485 120.747 56.4353 116.293 51.8254Z" fill="#F9AF8C"/>
<path d="M127.748 55.4879C127.404 55.0853 126.919 54.8301 126.393 54.7748C125.867 54.7196 125.34 54.8685 124.92 55.1909C121.173 58.7543 132.202 60.0977 127.748 55.4879Z" fill="#F9AF8C"/>
<path d="M123.886 71.5799C123.542 71.1774 123.057 70.9221 122.531 70.8669C122.005 70.8116 121.477 70.9606 121.058 71.2829C117.367 74.8322 128.34 76.1756 123.886 71.5799Z" fill="#F9AF8C"/>
<path d="M68.8098 93.1585C69.0096 94.2963 69.3916 95.3946 69.9411 96.4108C70.1604 96.8194 70.416 97.2075 70.7047 97.5704C71.5707 98.949 72.5958 100.221 73.759 101.36C74.291 101.887 74.8736 102.361 75.4983 102.774C76.2761 103.283 77.0821 103.764 77.8174 104.344C78.0437 104.528 77.9164 104.867 77.5204 105.136C77.2843 105.312 77.0133 105.435 76.7257 105.499C76.438 105.562 76.1402 105.564 75.8519 105.503C73.7663 104.929 71.9092 103.724 70.535 102.053C70.1267 101.559 69.6925 101.087 69.234 100.639C68.7957 100.144 68.3573 99.649 67.9472 99.1117C67.1009 97.8999 66.4474 96.5642 66.01 95.1523C65.8621 94.7188 65.7487 94.2744 65.6706 93.8231L65.5151 92.409C65.4585 91.722 65.4585 91.0315 65.5151 90.3445C65.5151 89.6516 65.7837 89.0011 65.8686 88.3365C65.9534 87.6719 66.1231 87.3325 66.2221 86.8235C66.3304 86.3342 66.4966 85.8595 66.717 85.4094C66.816 85.2115 66.9008 84.9993 67.014 84.8014C67.4665 84.0802 67.8058 83.9812 68.428 84.165C68.5672 84.199 68.7042 84.2415 68.8381 84.2923C69.0488 84.4258 69.2134 84.6209 69.3095 84.851C69.4057 85.0812 69.4287 85.3354 69.3755 85.5791C69.3244 85.9886 69.2489 86.3947 69.1492 86.7952C69.0502 87.1911 69.1492 87.6154 69.0078 87.983C68.8316 88.6988 68.7087 89.4267 68.6401 90.1607C68.6401 90.698 68.6401 91.2212 68.6401 91.7586C68.6401 92.2959 68.7957 92.8191 68.923 93.3564L68.8098 93.1585Z" fill="#F9AF8C"/>
<path d="M120.804 29.158C121.129 29.3419 120.931 29.7378 120.479 30.3034C120.252 30.5323 119.969 30.698 119.659 30.7842C119.412 30.7188 119.171 30.6336 118.938 30.5297C118.307 29.8244 117.73 29.0728 117.212 28.2813C116.84 27.7557 116.545 27.1795 116.336 26.5703C115.883 25.3542 115.459 24.1522 115.105 22.9503C115.033 22.678 114.995 22.3977 114.992 22.116C114.987 21.1588 114.849 20.207 114.582 19.2879C114.564 19.1287 114.495 18.9797 114.384 18.8636C114.008 17.8988 113.774 16.8841 113.691 15.8517C113.691 15.0174 113.847 14.1972 113.875 13.3771C113.875 13.264 113.875 13.1508 113.875 13.0236C113.962 12.9163 114.021 12.7888 114.046 12.6529C114.071 12.5169 114.06 12.3769 114.017 12.2458C113.995 11.8974 113.995 11.5479 114.017 11.1994C114.078 11.0033 114.158 10.8138 114.257 10.6338C114.342 10.45 114.752 10.4358 114.809 10.4783C114.865 10.5207 115.134 10.4783 115.289 10.3793H115.459C116 10.9919 116.474 11.6602 116.873 12.3731L117.396 13.8579C117.693 14.5932 117.891 15.3851 117.962 15.5265C117.996 15.7039 117.996 15.8863 117.962 16.0638C117.962 16.1486 118.655 18.3546 118.669 18.4394C118.817 18.896 118.846 19.3826 118.754 19.8535C118.724 19.9455 118.724 20.0443 118.754 20.1363C118.942 20.9178 119.074 21.7117 119.15 22.5119C119.214 22.9098 119.308 23.3022 119.432 23.6856C119.447 23.7651 119.447 23.8465 119.432 23.926C119.419 24.0198 119.419 24.115 119.432 24.2088C119.679 25.1258 120.015 26.0163 120.436 26.8672C120.526 27.3466 120.649 27.8191 120.804 28.2813C120.875 28.4793 120.677 29.1015 120.804 29.158Z" fill="#F9AF8C"/>
<path d="M140.742 29.8934C140.742 30.2186 140.303 30.1055 139.596 29.7237C139.274 29.517 138.987 29.2591 138.748 28.9601C138.675 28.7381 138.619 28.5113 138.578 28.2814C138.578 28.1541 139.101 26.9521 139.243 26.5279C139.393 26.1321 139.608 25.7641 139.879 25.4391C140.388 24.7745 140.855 24.025 141.293 23.3746C141.404 23.2142 141.543 23.0753 141.703 22.9645C142.247 22.586 142.685 22.075 142.976 21.4797C142.976 21.3807 143.117 21.31 143.075 21.1545C143.313 20.4555 143.71 19.8214 144.234 19.3021C144.753 18.9715 145.254 18.6127 145.733 18.2274C145.804 18.2274 145.818 18.086 145.974 18.086C146.129 18.086 146.384 17.9446 146.511 17.8032C146.697 17.6211 146.906 17.4642 147.133 17.3365C147.292 17.2742 147.458 17.2361 147.628 17.2234C147.784 17.2234 148.066 17.4355 148.081 17.4921C148.095 17.5486 148.321 17.6759 148.462 17.7607L148.604 17.8456C148.689 18.4743 148.689 19.1117 148.604 19.7404L148.165 20.7868C147.953 21.31 147.741 21.8615 147.699 21.9888C147.656 22.116 147.543 22.1867 147.43 22.2575C147.317 22.3282 146.681 23.8553 146.624 23.9119C146.398 24.1806 146.299 24.5482 145.861 24.6614C145.827 24.6757 145.797 24.697 145.773 24.7239C145.749 24.7507 145.73 24.7824 145.719 24.8169C145.381 25.326 144.993 25.7997 144.56 26.231C144.363 26.4714 144.179 26.7215 144.008 26.9804C144.008 26.9804 143.909 27.0511 143.853 27.0794C143.787 27.1143 143.729 27.1624 143.683 27.2208C143.204 27.7807 142.756 28.3661 142.34 28.9742C142.269 29.1298 141.477 29.5257 141.392 29.7096C141.307 29.8934 140.742 29.7661 140.742 29.8934Z" fill="#F9AF8C"/>
<path d="M152.252 51.1608C152.111 51.4154 151.8 51.1608 151.432 50.4962C151.272 50.1867 151.167 49.8518 151.121 49.5064C151.168 49.3042 151.229 49.1057 151.305 48.9125C151.305 48.8135 152.337 48.0782 152.719 47.7812C153.026 47.533 153.37 47.3328 153.737 47.1873L155.957 46.1833C156.126 46.1078 156.309 46.0693 156.495 46.0702C157.134 46.0219 157.755 45.8388 158.319 45.5329C158.418 45.5329 158.517 45.4622 158.573 45.3066C158.63 45.1511 160.341 44.5147 160.609 44.5713C161.232 44.6561 161.826 44.6561 162.419 44.7127C162.504 44.7127 162.589 44.7127 162.688 44.7834C162.787 44.8541 163.084 44.9672 163.268 44.9814C163.526 44.9854 163.783 45.0234 164.031 45.0945C164.18 45.1694 164.314 45.27 164.427 45.3914C164.555 45.4904 164.569 45.9005 164.541 45.9571C164.512 46.0136 164.541 46.2823 164.541 46.4379C164.547 46.4989 164.547 46.5606 164.541 46.6217C164.37 46.8497 164.186 47.0669 163.989 47.2722C163.815 47.5189 163.606 47.7382 163.367 47.9226L162.476 48.3327C162.038 48.559 161.585 48.7993 161.5 48.87C161.415 48.9408 161.288 48.87 161.175 48.87C161.062 48.87 159.761 49.6336 159.761 49.6336C159.464 49.6336 159.21 49.9165 158.814 49.7468C158.814 49.7468 158.686 49.7468 158.63 49.7468C158.119 49.9458 157.588 50.088 157.046 50.171C156.777 50.2552 156.512 50.3543 156.254 50.4679C156.198 50.475 156.141 50.475 156.084 50.4679H155.886C155.238 50.6701 154.601 50.9061 153.977 51.175C153.85 51.2598 153.016 51.175 152.86 51.2881C152.705 51.4012 152.309 51.0618 152.252 51.1608Z" fill="#F9AF8C"/>
</svg>
