<svg width="232" height="232" viewBox="0 0 232 232" fill="none" xmlns="http://www.w3.org/2000/svg">
<path d="M185.689 29.87C185.703 29.611 185.769 29.3574 185.883 29.1245C185.997 28.8915 186.157 28.6841 186.354 28.5148C186.55 28.3454 186.779 28.2176 187.026 28.139C187.273 28.0604 187.534 28.0327 187.792 28.0575C193.066 28.6194 185.164 35.4163 185.689 29.87Z" stroke="#FAB794" stroke-miterlimit="10"/>
<path d="M214.381 46.5994C214.399 46.3404 214.469 46.0877 214.586 45.8559C214.703 45.624 214.864 45.4178 215.062 45.2491C215.259 45.0805 215.488 44.9527 215.735 44.8734C215.982 44.794 216.243 44.7646 216.502 44.7869C221.776 45.3125 213.874 52.1275 214.381 46.5994Z" stroke="#FAB794" stroke-miterlimit="10"/>
<path d="M206.624 102.968C206.64 102.71 206.708 102.458 206.823 102.226C206.938 101.994 207.098 101.788 207.294 101.619C207.49 101.45 207.717 101.322 207.963 101.242C208.21 101.163 208.469 101.133 208.727 101.156C214.074 101.718 206.171 108.514 206.624 102.968Z" stroke="#FAB794" stroke-miterlimit="10"/>
<path d="M23.8157 157.561C24.1963 157.035 24.5588 156.509 24.8488 156.02C24.9851 155.811 25.1063 155.593 25.2113 155.367V155.204C25.4885 155.29 25.7741 155.345 26.0632 155.367C26.1773 155.385 26.2935 155.385 26.4076 155.367H26.6795C26.6795 155.367 26.4076 155.367 26.5526 155.367C26.9513 155.367 27.1688 155.041 27.0057 155.367C26.8891 155.819 26.8891 156.293 27.0057 156.745C27.0096 156.823 27.0096 156.902 27.0057 156.981V157.126L26.7157 157.234C26.1758 157.498 25.6496 157.788 25.1388 158.104L24.3232 158.63L23.1813 159.409L20.2995 161.494C19.3928 162.152 18.4487 162.757 17.472 163.306C16.8271 163.651 16.1284 163.884 15.4057 163.995H14.3001C14.0345 163.986 13.7718 163.937 13.5207 163.85C13.1423 163.697 12.811 163.447 12.5601 163.125C12.2235 162.585 12.0887 161.943 12.1795 161.312C12.2946 160.424 12.571 159.564 12.9951 158.775C13.6479 157.584 14.3997 156.45 15.2426 155.386L17.8888 152.069L19.5382 150.021C20.6115 148.696 21.5983 147.303 22.4926 145.852C23.3521 144.638 23.8772 143.219 24.0151 141.737C24.0008 141.467 23.933 141.202 23.8157 140.958L23.562 140.106L24.7582 140.287C24.7762 140.293 24.7951 140.294 24.8136 140.292C24.8322 140.289 24.8499 140.282 24.8655 140.272C24.8811 140.261 24.8942 140.248 24.9038 140.231C24.9135 140.215 24.9195 140.197 24.9213 140.179C24.9213 140.179 24.9213 140.324 24.9213 140.342C24.9213 140.668 25.3382 140.994 25.5195 141.23L25.3745 141.375C25.2113 141.574 25.0301 141.846 24.8488 142.1L23.7432 143.731C23.0001 144.855 22.257 145.997 21.4413 147.102C20.2104 148.891 18.7129 150.48 17.0007 151.815C15.9968 152.563 14.8285 153.06 13.5932 153.265C12.2546 153.461 10.891 153.151 9.76884 152.395C8.48197 151.398 9.51509 150.854 10.7838 150.582C11.4277 150.4 12.0392 150.119 12.5963 149.749C13.0657 149.349 13.5557 148.974 14.0645 148.625C15.7804 147.406 17.2708 145.897 18.4688 144.166C19.1757 143.26 19.8463 142.354 20.5532 141.284L21.6588 139.744L22.3657 138.837C22.5642 138.619 22.776 138.413 23.0001 138.221C23.1769 138.106 23.3652 138.008 23.562 137.931L23.8157 137.804H23.9607C24.094 137.749 24.2343 137.712 24.3776 137.696C24.9906 137.556 25.6331 137.64 26.1901 137.931C26.7128 138.209 27.1323 138.647 27.3863 139.182L27.187 138.837C27.8734 140.059 28.1045 141.485 27.8395 142.861C27.6479 143.888 27.3123 144.883 26.8426 145.816C26.0145 147.407 25.031 148.913 23.9063 150.311L20.1001 155.059C19.8463 155.386 19.6107 155.694 19.3751 156.038C19.1054 156.376 18.9414 156.786 18.9038 157.216C18.9038 157.506 19.2663 157.434 19.4476 157.343C20.1665 156.954 20.8624 156.525 21.532 156.056L22.6195 155.367C23.127 155.023 23.6707 154.679 24.2326 154.352C24.8588 153.984 25.5207 153.681 26.2082 153.446C26.4765 153.38 26.749 153.331 27.0238 153.301C27.2406 153.276 27.4596 153.276 27.6763 153.301C27.9852 153.387 28.2703 153.542 28.5101 153.754C28.704 153.936 28.86 154.155 28.9688 154.398C29.0777 154.64 29.1374 154.902 29.1445 155.168C29.1535 155.468 29.1168 155.767 29.0357 156.056C28.7152 157.015 28.2507 157.92 27.6582 158.739C27.1507 159.5 26.6432 160.207 26.1176 160.896C25.1026 162.255 23.997 163.687 23.1088 164.937C22.8188 165.336 22.5288 165.771 22.257 166.224C21.9851 166.677 21.6407 167.185 21.8401 167.711C21.9611 167.902 22.1354 168.053 22.3415 168.147C22.5476 168.24 22.7765 168.271 23.0001 168.236C23.4397 168.136 23.8534 167.944 24.2145 167.674C24.591 167.41 24.9484 167.119 25.2838 166.804L27.187 164.937C28.1136 164.03 29.245 163.358 30.4857 162.98C30.7566 162.879 31.0477 162.845 31.3346 162.88C31.6215 162.914 31.896 163.017 32.1351 163.179C32.4941 163.566 32.7443 164.042 32.8601 164.557C33.0011 165.15 33.068 165.759 33.0595 166.369C33.0595 167.076 32.9688 167.946 33.0595 168.544C33.053 168.825 33.1087 169.103 33.2226 169.36C33.3054 169.539 33.4457 169.686 33.6213 169.777C33.9838 169.886 34.1288 169.777 34.8176 169.668C36.0863 169.36 37.047 168.961 37.772 168.852C38.3908 168.708 39.0415 168.812 39.5845 169.142C39.8401 169.256 40.0831 169.395 40.3095 169.559C40.9438 170.103 40.1463 171.372 37.8082 172.55C36.8522 173.048 35.8252 173.397 34.7632 173.583C33.9867 173.745 33.1816 173.707 32.4238 173.473C31.666 173.238 30.9803 172.815 30.4313 172.242C29.8965 171.601 29.5346 170.833 29.3801 170.012C29.2895 169.559 29.2532 169.215 29.217 168.907V168.472C29.217 168.472 29.217 168.363 29.1263 168.345C29.0357 168.327 28.9451 168.472 28.9632 168.49L28.7276 168.726L28.2201 169.233L27.4588 169.94C26.2207 171.112 24.7684 172.035 23.1813 172.659C22.241 172.938 21.2398 172.938 20.2995 172.659C19.3321 172.346 18.4719 171.768 17.8163 170.991C17.4333 170.455 17.1903 169.832 17.1095 169.179C17.039 168.465 17.1384 167.744 17.3995 167.076C17.7138 166.198 18.1273 165.359 18.632 164.575C18.9038 164.14 19.1576 163.705 19.4476 163.288L20.1726 162.255C21.4051 160.442 22.692 158.884 23.7976 157.271L23.8157 157.561Z" fill="#FAB794"/>
<path d="M83.8812 209.289C79.2884 211.148 74.3051 211.833 69.3812 211.283C67.6 211.119 65.8394 210.779 64.125 210.268C63.4 209.996 62.6569 209.761 61.95 209.434L60.8806 208.963L59.7206 208.329C58.3853 207.478 57.1349 206.501 55.9869 205.411C53.8638 203.366 51.8549 201.206 49.9694 198.94C48.3019 196.982 46.5981 195.061 44.9125 193.158C42.6328 190.854 40.5812 188.335 38.7862 185.636C37.7169 183.824 42.9731 182.809 45.3837 185.636C49.625 190.675 53.5762 195.859 57.745 200.698C58.948 202.119 60.367 203.343 61.95 204.323C62.7394 204.74 63.5643 205.086 64.415 205.356C65.3031 205.664 66.2275 205.918 67.0975 206.136C71.141 207.099 75.367 206.981 79.35 205.791C81.8159 205.122 84.1593 204.063 86.2919 202.656C86.9724 202.185 87.5365 201.565 87.9412 200.843L88.2494 200.317C88.3204 200.135 88.375 199.947 88.4125 199.756L88.5756 199.194V198.614C88.4401 196.861 87.7038 195.21 86.4912 193.937C84.3176 191.708 81.8834 189.749 79.2412 188.101C78.6794 187.702 78.0631 187.322 77.4287 186.887C75.3081 185.219 74.8187 184.132 75.4169 182.863C75.5324 182.565 75.6781 182.28 75.8519 182.011C76.0209 181.826 76.2345 181.687 76.4725 181.608C76.7105 181.528 76.9648 181.511 77.2112 181.558C77.9102 181.683 78.5727 181.961 79.1506 182.374C81.6609 183.908 84.0815 185.584 86.4006 187.394C87.7066 188.442 88.9195 189.6 90.0256 190.856C91.3181 192.292 92.3048 193.975 92.9256 195.804C93.1919 196.606 93.3385 197.443 93.3606 198.287C93.3606 198.722 93.3606 199.176 93.3606 199.611C93.298 200.045 93.2071 200.475 93.0887 200.897C92.9861 201.327 92.859 201.751 92.7081 202.166L92.1281 203.254C91.7581 203.979 91.2816 204.645 90.7144 205.229C88.7637 207.121 86.4264 208.568 83.8631 209.471L83.8812 209.289Z" fill="#FAB794"/>
<path d="M45.4929 177.19L31.156 178.821L29.3435 179.021L28.2197 179.129C27.8043 179.177 27.3846 179.177 26.9691 179.129C25.6367 178.998 24.316 178.768 23.0179 178.441C21.6897 178.131 20.3963 177.687 19.1572 177.118C18.536 176.851 17.9309 176.548 17.3447 176.211L15.5322 175.106C13.2665 173.516 11.3485 171.48 9.89537 169.124C8.44693 166.837 7.42166 164.307 6.8685 161.657C6.25456 159.064 6.05272 156.391 6.27037 153.736C6.31026 153.061 6.39503 152.389 6.52412 151.724C6.60379 151.049 6.7433 150.382 6.941 149.731C7.09444 149.049 7.3067 148.382 7.57537 147.737L8.13725 146.341C8.49762 145.963 8.88533 145.612 9.29725 145.29C14.5897 140.777 19.7191 136.046 24.8847 131.352C43.1547 114.731 61.0079 97.6937 78.9879 80.7831L102.804 58.1631C112.972 48.6112 123.068 38.7875 134.541 30.5587C138.166 28.0031 138.365 29.3987 136.208 32.5887C134.706 34.6851 133.078 36.6885 131.333 38.5881C130.263 39.7662 129.085 40.9987 127.708 42.2131C126.33 43.4275 125.062 44.8594 123.612 46.1825C102.442 65.0325 81.9241 84.8612 60.7541 104.182C48.0666 115.782 35.3791 128.343 22.1841 140.106C20.3716 141.719 18.5591 143.351 16.7466 144.927L13.9554 147.374L12.5779 148.625L12.1972 148.951C12.1066 148.951 12.1066 149.132 12.0522 149.241C11.2982 151.216 10.8994 153.308 10.8741 155.422C10.8712 157.63 11.1824 159.827 11.7985 161.947C12.4319 164.035 13.4123 166.002 14.6985 167.765C16.0264 169.465 17.6695 170.892 19.5379 171.97C20.494 172.49 21.4876 172.939 22.5104 173.311L24.1054 173.746C24.6336 173.925 25.1812 174.041 25.7366 174.091L27.4041 174.326C27.676 174.326 27.966 174.326 28.0566 174.326H28.8179L32.4429 173.927C44.2604 172.586 56.0597 171.13 67.841 169.559C85.676 167.167 103.583 164.629 121.183 161.494C134.831 159.047 148.153 156.183 161.366 152.703C164.266 151.924 167.075 151.072 169.957 150.202C175.286 148.589 178.693 147.356 181.05 146.577C182.657 145.942 184.319 145.456 186.016 145.127C186.288 145.127 186.614 144.964 186.922 144.873C187.182 144.761 187.449 144.664 187.72 144.583C188.1 144.583 188.264 144.692 188.137 145.199C187.869 146.028 187.387 146.772 186.741 147.356C184.212 149.516 181.297 151.176 178.15 152.25C172.229 154.527 166.176 156.446 160.025 157.996C154.062 159.645 147.736 161.077 141.374 162.4C128.795 165.028 115.999 167.258 103.094 169.306C83.9541 172.333 64.7054 174.906 45.4566 177.299L45.4929 177.19Z" fill="#FAB794"/>
<path d="M47.3779 173.619C42.9351 171.897 38.9075 169.253 35.5604 165.862C32.1098 162.424 29.52 158.22 28.0023 153.591C26.4902 148.913 26.1357 143.937 26.9692 139.091C27.7489 134.281 29.5271 129.688 32.1892 125.606C32.9867 124.229 36.3036 126.367 35.6692 127.636L34.1467 130.5C33.7479 131.515 33.3673 132.548 32.8961 133.527C32.4248 134.506 32.2073 135.593 31.8267 136.608C31.4777 137.635 31.217 138.69 31.0473 139.762C30.1733 144 30.2724 148.382 31.3373 152.576C32.5019 156.809 34.6156 160.72 37.5179 164.013C40.5 167.362 44.0229 170.186 47.9398 172.369C49.6254 173.456 49.3354 174.29 47.3779 173.619Z" fill="#FAB794"/>
<path d="M167.129 48.6475C163.628 43.6139 159.344 39.1717 154.442 35.4887C153.303 34.6844 152.089 33.9925 150.817 33.4225C149.813 32.9877 148.718 32.8012 147.627 32.8787C147.328 32.9165 147.053 33.0576 146.848 33.2775C146.666 33.2775 146.304 34.1294 146.014 34.6369C145.68 35.2021 145.43 35.8126 145.271 36.4494C145.162 36.7756 145.035 37.0837 144.944 37.41L144.781 38.4793C144.246 42.8611 144.485 47.303 145.488 51.6018C146.208 55.6085 147.195 59.5626 148.443 63.4375C149.675 67.3162 151.143 71.1587 152.702 74.965C155.865 82.579 159.416 90.0261 163.341 97.2768C166.821 103.729 170.591 109.964 174.742 116.054C177.352 119.915 180.179 123.685 182.971 127.364C184.384 129.177 185.834 130.989 187.321 132.802C188.722 134.531 190.248 136.155 191.888 137.659C192.232 137.943 192.542 138.266 192.813 138.62C192.873 138.735 192.904 138.862 192.904 138.992C192.904 139.121 192.873 139.249 192.813 139.363C192.729 139.499 192.616 139.614 192.48 139.699C192.345 139.784 192.192 139.837 192.033 139.852C191.439 140.006 190.815 140.006 190.221 139.852C185.971 138.44 182.278 135.718 179.672 132.077C173.711 124.359 168.291 116.237 163.45 107.771C158.607 99.312 154.297 90.5588 150.545 81.5625C148.298 76.125 146.032 70.6875 144.093 64.9056C142.024 59.152 140.59 53.1898 139.815 47.125C139.41 43.6519 139.538 40.1373 140.196 36.7031C140.395 35.815 140.739 34.8906 141.011 34.075C141.341 33.1978 141.754 32.3542 142.244 31.5556C142.371 31.3381 142.461 31.1387 142.606 30.9212L143.204 30.2325C143.402 30.0019 143.614 29.784 143.839 29.58L144.618 29.0906C145.626 28.5084 146.771 28.2079 147.935 28.2206C149.873 28.2477 151.778 28.7255 153.499 29.6162C155.085 30.3773 156.59 31.2941 157.994 32.3531C160.701 34.3806 163.203 36.6693 165.462 39.1862C170.921 45.253 175.614 51.9672 179.436 59.1781C185.143 70.0366 189.553 81.5282 192.577 93.4162C195.03 102.443 196.847 111.631 198.014 120.912C198.232 122.96 198.522 124.972 198.703 127.038C198.945 129.788 198.945 132.553 198.703 135.303C198.6 136.618 198.122 137.876 197.326 138.928C197.036 139.291 196.764 139.762 196.528 140.052C196.293 140.342 195.441 139.852 195.114 138.384C194.93 137.499 194.803 136.603 194.734 135.702C194.734 134.651 194.498 133.599 194.335 132.077C192.932 115.229 189.537 98.6077 184.221 82.5593C180.226 70.477 174.427 59.0682 167.021 48.72L167.129 48.6475Z" fill="#FAB794"/>
<path d="M150.672 71.2312C162.254 60.4469 177.751 90.3712 169.269 105.216C166.423 110.2 146.685 74.9469 150.672 71.2312Z" fill="#FAB794"/>
<path d="M195.75 43.6088C195.55 44.0982 195.007 44.1163 194.263 43.8988C194.01 43.8988 193.557 43.3369 193.575 43.1738C193.626 42.8551 193.699 42.5403 193.792 42.2313C193.792 42.0682 195.496 39.8932 196.022 39.1319C196.57 38.4075 197.176 37.7286 197.834 37.1019C199.103 35.8332 200.39 34.5463 201.695 33.2957C201.984 33.0127 202.3 32.7579 202.637 32.5344C203.784 31.758 204.852 30.8718 205.827 29.8882C206.01 29.7477 206.158 29.568 206.262 29.3625C207.276 28.2131 208.419 27.1852 209.67 26.2994C210.757 25.7194 211.772 25.085 212.823 24.4869C212.968 24.3963 213.077 24.2513 213.295 24.2513C213.689 24.2338 214.063 24.0726 214.346 23.7982C214.777 23.5116 215.232 23.2629 215.705 23.055C215.973 22.9755 216.245 22.9149 216.521 22.8738C216.775 22.8738 216.883 23.1457 216.847 23.2363C216.811 23.3269 217.01 23.49 217.119 23.5807C217.127 23.6225 217.127 23.6656 217.119 23.7075C216.598 24.7295 215.992 25.7057 215.307 26.6257C215.307 26.6257 214.509 27.4232 213.693 28.2207C212.878 29.0182 212.026 29.87 211.881 30.0332C211.685 30.2029 211.465 30.3434 211.228 30.45C211.12 30.45 208.727 32.9332 208.618 33.0057C208.127 33.5173 207.55 33.9403 206.915 34.2563C206.806 34.2945 206.707 34.3564 206.625 34.4375C205.773 35.2713 204.812 36.0144 203.87 36.7757C203.398 37.1744 202.963 37.6275 202.528 38.0625L202.238 38.2438C202.114 38.3074 201.998 38.3866 201.894 38.4794C200.861 39.5307 199.701 40.4369 198.722 41.5425C198.505 41.7963 197.109 42.7025 196.91 43.0107C196.71 43.3188 195.858 43.5 195.75 43.6088Z" fill="#FAB794"/>
<path d="M205.59 90.3532C205.337 90.4982 205.174 90.2082 204.956 89.6463C204.892 89.3843 204.892 89.1108 204.956 88.8488C205.104 88.7055 205.261 88.5722 205.427 88.4501C205.536 88.4501 207.04 88.1601 207.53 88.0694C208.012 88.0151 208.498 88.0151 208.98 88.0694L211.844 88.2688C212.057 88.2955 212.266 88.3567 212.46 88.4501C213.128 88.7298 213.839 88.8952 214.562 88.9394C214.687 88.9742 214.818 88.9742 214.943 88.9394C215.745 88.904 216.547 89.002 217.317 89.2294C217.904 89.5654 218.509 89.868 219.13 90.1357C219.13 90.1357 219.311 90.1357 219.365 90.2988C219.42 90.4619 219.692 90.6069 219.873 90.6794C220.146 90.768 220.398 90.9097 220.616 91.0963C220.743 91.213 220.853 91.3473 220.942 91.4951C221.051 91.6038 220.942 91.8394 220.942 91.8576C220.942 91.8757 220.942 92.0751 220.942 92.1838C220.951 92.2256 220.951 92.2688 220.942 92.3107C220.655 92.4572 220.358 92.5843 220.054 92.6913C219.738 92.8156 219.41 92.9068 219.075 92.9632H216.502C216.368 92.9582 216.24 92.907 216.139 92.8182C216.139 92.8182 214.327 92.8182 214.2 92.7094C213.837 92.6188 213.457 92.7094 213.13 92.3469C213.099 92.3335 213.065 92.3265 213.031 92.3265C212.996 92.3265 212.963 92.3335 212.931 92.3469C212.314 92.2548 211.707 92.1031 211.119 91.8938C210.802 91.8204 210.481 91.7659 210.158 91.7307L209.995 91.6401H209.795C209.054 91.4752 208.304 91.3541 207.548 91.2776C207.367 91.2776 206.569 90.9151 206.388 90.9332C206.207 90.9513 205.681 90.2988 205.59 90.3532Z" fill="#FAB794"/>
<path d="M195.641 68.1681C195.565 68.2478 195.471 68.3077 195.367 68.3425C195.263 68.3772 195.151 68.3858 195.043 68.3675C194.78 68.2981 194.524 68.2009 194.282 68.0775C194.082 67.9869 193.72 67.57 193.829 67.4069C194.006 67.1046 194.219 66.8247 194.463 66.5731C194.608 66.3919 197.037 65.0687 197.852 64.6337C198.632 64.2088 199.444 63.8452 200.281 63.5462C201.967 62.8937 203.652 62.2594 205.338 61.7337C205.715 61.6032 206.103 61.5061 206.498 61.4437C207.848 61.1969 209.171 60.8206 210.449 60.32C210.671 60.2631 210.88 60.1647 211.065 60.03C212.454 59.4217 213.891 58.9306 215.361 58.5619C216.557 58.4169 217.717 58.1812 218.986 58.0181C219.155 57.9541 219.342 57.9541 219.512 58.0181C219.874 58.1544 220.273 58.1544 220.635 58.0181C221.136 57.9015 221.645 57.8228 222.158 57.7825C222.435 57.7816 222.71 57.8244 222.974 57.9094C223.227 57.9094 223.227 58.4169 223.155 58.4894C223.082 58.5619 223.155 58.8337 223.282 58.9969C223.285 59.0572 223.285 59.1177 223.282 59.1781C222.375 59.8552 221.418 60.4612 220.418 60.9906L215.887 62.64C215.641 62.7247 215.385 62.7735 215.125 62.785C215.017 62.785 211.827 64.0175 211.7 64.0356C211.034 64.2972 210.33 64.4502 209.615 64.4887C209.479 64.4997 209.345 64.5302 209.217 64.5794C208.057 64.9781 206.879 65.25 205.7 65.5581C205.102 65.7212 204.54 65.9387 203.888 66.12C203.773 66.1301 203.658 66.1301 203.544 66.12H203.127C201.749 66.5731 200.317 66.8994 198.976 67.4794C198.668 67.6062 197.164 67.86 196.729 68.0412C196.294 68.2225 195.75 68.0412 195.641 68.1681Z" fill="#FAB794"/>
</svg>
