<svg width="237" height="283" viewBox="0 0 237 283" fill="none" xmlns="http://www.w3.org/2000/svg">
<path d="M86.3696 260.891C77.5258 262.394 68.5052 264.119 59.3077 264.981C49.9888 266.126 40.5422 265.655 31.3836 263.588C24.3693 261.959 17.9835 258.316 13.0107 253.108C8.86147 248.386 5.90466 242.737 4.38802 236.637C3.01063 230.874 1.93319 225.044 1.16005 219.17C-0.431827 207.541 -1.24987 195.911 -2.2669 184.348C-3.08151 174.116 -4.41717 163.933 -6.2687 153.837C-7.4405 147.403 -8.76706 140.992 -10.4253 134.69C-10.8453 133.121 -11.2654 131.551 -11.7297 129.981C-12.194 128.411 -12.5478 126.842 -12.9457 125.272C-13.8743 122.154 -14.8692 119.059 -15.9968 115.986C-17.5445 112.249 -17.235 112.625 -15.024 115.433C-11.3469 120.164 -8.45767 125.457 -6.46769 131.109C-4.4648 137.652 -2.79706 144.294 -1.47097 151.007C-0.210735 157.64 0.73997 164.405 1.55802 171.149C3.12778 184.635 3.76896 198.1 5.27239 211.432C6.08438 219.488 7.5109 227.471 9.5395 235.31C10.6 239.047 12.2174 242.602 14.3372 245.856C16.4676 249.026 19.1933 251.752 22.3629 253.882C29.3716 258.525 38.2817 260.095 47.1033 260.205C56.0861 260.138 65.0455 259.279 73.8778 257.641L90.4156 254.789C95.8766 253.771 101.338 252.578 106.754 251.273C114.957 249.261 123.137 247.006 131.075 244.441C139.084 241.968 146.908 238.932 154.489 235.354C157.347 233.981 160.097 232.392 162.713 230.601C165.155 229.079 167.189 226.984 168.639 224.499C169.706 221.677 170.39 218.725 170.673 215.721C171.013 212.653 171.109 209.563 170.96 206.48C170.805 203.76 170.496 201.085 170.12 198.343C168.683 188.195 167.599 185.188 169.037 182.336C169.202 181.719 169.409 181.113 169.656 180.523C170.164 179.174 173.878 182.734 175.78 190.649C176.516 193.608 177.092 196.605 177.504 199.626C177.879 202.707 178.064 205.808 178.057 208.912C178.009 212.112 177.72 215.305 177.195 218.463L176.686 220.873L176.023 223.305C175.503 225.121 174.76 226.866 173.812 228.5C171.692 231.445 169.009 233.939 165.919 235.841C163.202 237.593 160.373 239.166 157.451 240.55C151.76 243.198 145.921 245.516 139.963 247.492C131.119 250.455 122.275 252.909 113.431 255.12C104.588 257.331 95.5007 259.542 86.3917 261.001L86.3696 260.891Z" fill="#FAB794"/>
<path d="M147.392 69.4899C143.866 68.6711 140.211 68.5734 136.647 69.2025C132.815 69.929 129.028 70.8739 125.304 72.0325C117.677 74.2434 110.093 76.9629 102.532 79.6381L85.994 85.696C76.2438 89.1451 66.4493 92.55 56.5443 95.7116C46.6498 98.9464 36.5995 101.684 26.4313 103.914C21.8806 104.885 17.2833 105.623 12.6572 106.125C7.97045 106.777 3.21603 106.777 -1.47071 106.125L-3.68164 105.661C-4.43336 105.462 -5.18508 105.174 -5.89258 104.931C-6.66353 104.672 -7.40467 104.331 -8.10352 103.914C-8.45727 103.715 -8.81102 103.538 -9.16477 103.317C-9.54286 103.061 -9.89795 102.773 -10.226 102.455C-10.925 101.84 -11.4895 101.087 -11.8842 100.244C-12.3055 99.3131 -12.5241 98.3032 -12.5254 97.2814C-12.477 95.5814 -12.0543 93.9131 -11.2873 92.3952C-9.88866 89.6227 -8.03528 87.1042 -5.80414 84.9443C-3.67392 82.7772 -1.28251 80.8834 1.31508 79.3064C2.97328 78.3557 3.94609 78.2894 3.9682 78.5768C3.99031 78.8643 3.32703 79.5496 2.28789 80.7878C-1.10924 84.3822 -4.118 88.3247 -6.68851 92.55C-8.01508 94.7609 -8.61203 97.4361 -7.90453 98.4753C-7.37403 99.2412 -6.59161 99.7967 -5.6936 100.045L-4.91977 100.487L-4.01328 100.775C-3.41707 101.013 -2.8036 101.205 -2.1782 101.349C3.36012 102.35 9.02965 102.388 14.5807 101.46C26.2516 99.587 37.7767 96.8978 49.0713 93.4122C62.8676 89.4325 76.8628 84.06 90.7033 79.0411C98.331 76.2996 105.959 73.5359 113.675 70.927C117.544 69.6225 121.413 68.3844 125.349 67.2126C129.317 65.9511 133.385 65.0266 137.509 64.4489C142.831 63.5456 148.303 64.3749 153.118 66.8146C155.464 68.2205 157.502 70.0855 159.11 72.2978C160.597 74.498 161.773 76.8939 162.603 79.417C164.727 86.847 165.733 94.5518 165.588 102.278C165.588 109.906 165.389 117.445 165.588 124.896C165.588 127.844 165.765 130.696 166.118 133.452C166.266 134.835 166.495 136.209 166.804 137.565C166.936 138.25 167.158 138.891 167.312 139.532L167.467 140.019L167.71 140.726C167.865 141.191 167.998 141.677 168.108 142.163C168.263 142.652 168.266 143.175 168.116 143.665C167.966 144.155 167.67 144.588 167.268 144.905C166.455 145.611 165.507 146.145 164.482 146.475C163.038 146.943 161.56 147.298 160.06 147.536C157.142 148.022 154.268 148.332 151.394 148.641L143.898 149.482C134.568 150.454 131.981 151.073 129.859 151.25C129.373 151.25 128.776 151.494 128.444 151.516C128.112 151.538 128.09 151.383 128.267 151.007C128.628 150.418 129.11 149.913 129.682 149.526C132.034 147.985 134.65 146.891 137.398 146.298C142.542 145.177 147.746 144.357 152.985 143.844C155.572 143.49 158.181 143.158 160.591 142.628C161.188 142.517 161.763 142.362 162.316 142.208C162.551 142.148 162.781 142.067 163.001 141.964C163.001 141.964 163.134 141.964 163.001 141.611C162.989 141.523 162.989 141.433 163.001 141.345L162.714 140.262C162.503 139.535 162.333 138.797 162.205 138.051C161.895 136.614 161.741 135.199 161.564 133.784C161.276 130.954 161.122 128.168 161.077 125.404C160.945 119.877 161.077 114.35 161.077 108.999C161.348 101.117 160.814 93.2273 159.486 85.4529C158.781 81.7955 157.386 78.3061 155.373 75.172C153.502 72.3701 150.658 70.3614 147.392 69.5341V69.4899Z" fill="#FAB794"/>
<path d="M156.566 174.31C159.33 173.758 162.071 173.094 164.791 172.409L168.859 171.281L172.463 170.242H172.839C172.873 170.119 172.873 169.989 172.839 169.866V169.247V167.633C172.784 166.632 172.784 165.628 172.839 164.626L173.126 161.841L173.657 156.38C173.966 152.754 174.209 149.106 174.298 145.458C174.403 142.26 174.262 139.06 173.878 135.884C173.643 133.943 173.183 132.036 172.507 130.202C172.228 129.448 171.791 128.762 171.225 128.19C170.989 127.962 170.695 127.804 170.375 127.734C170.054 127.664 169.721 127.684 169.412 127.792C168.461 128.102 168.019 127.483 168.837 126.267C169.191 125.838 169.65 125.509 170.169 125.311C170.688 125.113 171.25 125.054 171.8 125.139C172.585 125.287 173.327 125.61 173.97 126.085C174.614 126.559 175.141 127.173 175.514 127.881C176.606 130.012 177.352 132.303 177.725 134.668C178.112 136.862 178.37 139.077 178.499 141.301C178.739 145.645 178.613 150.001 178.123 154.323C177.88 156.888 177.725 159.519 177.592 162.15C177.592 163.499 177.415 164.803 177.437 165.953C177.437 166.55 177.437 167.169 177.437 167.788L177.592 169.999C177.686 171.145 177.535 172.298 177.15 173.382C176.199 173.934 175.094 174.354 174.077 174.819C172.529 175.372 171.247 175.792 169.832 176.234C167.046 177.103 164.238 177.899 161.408 178.622C157.937 179.528 154.444 180.324 150.906 181.009C148.21 181.541 145.486 181.925 142.748 182.159C141.338 182.304 139.919 182.348 138.503 182.292C136.863 182.295 135.247 181.9 133.794 181.142C131.89 179.781 130.287 178.042 129.084 176.035C127.904 174.186 126.897 172.232 126.077 170.198C125.679 169.322 125.34 168.421 125.06 167.501C124.627 166.26 124.476 164.938 124.618 163.631C124.711 163.24 124.887 162.873 125.136 162.556C125.384 162.24 125.697 161.98 126.055 161.796C126.34 161.585 126.652 161.414 126.984 161.288C127.267 161.236 127.56 161.267 127.826 161.377C128.093 161.486 128.322 161.67 128.487 161.907C129.121 162.579 129.59 163.389 129.858 164.273C130.933 167.484 132.357 170.568 134.103 173.47C134.782 174.655 135.683 175.698 136.756 176.543L136.314 177.229L136.469 177.008L136.756 176.565C136.911 176.565 137.287 176.565 137.552 176.72C137.817 176.875 138.304 176.72 138.658 176.72C139.055 176.742 139.454 176.742 139.851 176.72C142.544 176.61 145.226 176.315 147.877 175.836C150.619 175.394 153.382 174.797 156.146 174.178L156.566 174.31Z" fill="#FAB794"/>
<path d="M124.243 43.2239C123.478 41.6649 122.487 40.2271 121.302 38.9568C120.838 38.5367 120.308 38.2714 119.843 37.8956C118.167 36.5421 116.072 35.815 113.918 35.8394C112.836 35.9204 111.774 36.1819 110.778 36.6132C109.486 37.311 108.046 37.69 106.578 37.7187C105.583 37.7187 105.074 32.4567 106.843 31.9039C108.372 31.4149 109.93 31.0235 111.508 30.7321C112.454 30.6172 113.408 30.5803 114.36 30.6216C115.325 30.6958 116.277 30.8965 117.19 31.2185C119.383 31.7782 121.463 32.7132 123.336 33.9822C125.193 35.3982 126.755 37.1631 127.935 39.1779C128.647 40.3441 129.282 41.5553 129.837 42.8039C130.721 44.6389 131.252 46.5846 131.937 48.4417C132.446 49.901 133.197 51.2717 133.706 52.7531C133.863 53.0563 133.989 53.3749 134.082 53.7038C134.369 54.964 134.082 55.4062 132.711 55.9147L131.76 56.2242C131.307 56.3613 130.822 56.3494 130.376 56.1902C129.931 56.031 129.548 55.7329 129.284 55.3399C128.104 53.1033 127.127 50.765 126.365 48.3533C125.754 46.642 125.015 44.979 124.155 43.3787L124.243 43.2239Z" fill="#FAB794"/>
<path d="M14.1595 76.8744C14.7786 78.621 15.4198 80.3898 16.1273 82.1364C16.3705 82.7776 16.7242 83.3745 16.9674 84.0157L19.5321 90.8475C19.908 91.8645 20.3723 92.8594 20.8366 93.8323C21.5201 95.0466 22.0123 96.3591 22.2958 97.7235C22.4284 98.5858 19.3331 98.63 18.6477 97.2592C17.3912 94.7755 16.3554 92.1861 15.5524 89.5209C14.971 87.904 14.2918 86.3239 13.5184 84.7895C12.7666 83.0429 12.037 81.252 11.3074 79.4833C10.8873 78.3778 10.4451 77.2723 10.0251 76.189C9.36179 74.5308 8.80905 72.8283 8.12366 71.1701C7.61515 69.8878 6.90765 68.6939 6.37702 67.4116C6.22534 67.1441 6.09949 66.8627 6.00117 66.5714C5.64742 65.488 5.80218 65.068 6.66444 64.6037L7.2614 64.272C7.60044 64.1319 7.97982 64.1246 8.32399 64.2516C8.66816 64.3786 8.95186 64.6306 9.11859 64.9574C10.394 67.0494 11.4392 69.2733 12.236 71.5902C12.8772 73.3148 13.5626 75.0614 14.2259 76.808L14.1595 76.8744Z" fill="#FAB794"/>
<path d="M62.3363 38.0724C57.7376 39.9075 53.0946 41.632 48.4737 43.3786C46.7934 44.0198 45.1573 44.7715 43.4549 45.3906C37.5075 47.6015 31.5158 49.8125 25.6126 52.0234C22.9816 53.0625 20.3285 54.1238 17.8522 55.2735C14.6464 56.7769 11.33 58.3909 8.43365 59.8722C7.8367 60.226 7.04076 59.8722 7.32818 58.4793C7.91475 56.7537 9.15246 55.3255 10.7772 54.4997C17.3589 51.08 24.2055 48.1965 31.2505 45.877C35.4513 44.4399 39.63 42.5164 43.8086 40.8361L57.6712 35.375C60.5012 34.2475 63.3533 33.1641 66.1612 31.926C70.4283 30.113 74.7176 28.3222 78.8299 26.3102C82.0358 24.7625 85.0205 22.9496 88.0937 21.2472L90.1057 20.1417C92.6483 18.793 93.599 18.6382 94.5276 19.0583C94.7479 19.1298 94.9623 19.2185 95.1687 19.3236C95.6993 19.6332 95.014 20.8271 93.3115 22.22C88.0439 26.2896 82.2784 29.6701 76.1547 32.2797C71.6001 34.358 66.9572 36.2815 62.3584 38.205L62.3363 38.0724Z" fill="#FAB794"/>
<path d="M103.638 53.8807C102.886 51.6698 102.09 49.2598 101.272 46.9826C100.963 46.1424 100.52 45.3686 100.211 44.5284L97.1377 35.552C96.6656 34.2398 96.1193 32.9554 95.5016 31.705C94.5104 30.1639 93.855 28.4312 93.5781 26.6198C93.5781 25.448 98.8401 25.0501 99.5698 26.8409C101.015 30.1518 102.162 33.585 102.997 37.0997C103.651 39.2428 104.464 41.3342 105.429 43.3566C106.313 45.6781 107.153 47.9996 107.971 50.3432L109.497 54.7651C110.271 56.976 110.934 59.187 111.708 61.3979C112.327 63.1003 113.233 64.648 113.919 66.3283C114.099 66.6884 114.262 67.0573 114.405 67.4337C114.847 68.8709 114.626 69.4236 113.3 70.0427C113.012 70.1753 112.725 70.3301 112.415 70.4406C111.942 70.6081 111.426 70.6096 110.952 70.4449C110.478 70.2801 110.074 69.9589 109.806 69.5341C108.225 66.792 106.929 63.8953 105.937 60.8894C105.119 58.6784 104.301 56.4675 103.461 54.0797L103.638 53.8807Z" fill="#FAB794"/>
<path d="M86.3925 45.3684H86.2157L84.9112 45.7443C84.0047 45.9875 83.1204 46.297 82.2139 46.5845C80.423 47.2035 78.6322 47.8668 76.8413 48.5964C75.5147 49.127 74.2766 49.7903 72.9279 50.3209C68.2629 52.2002 63.4209 53.9911 58.5126 55.4945L52.0125 57.7055C49.277 58.7935 46.3758 59.4067 43.434 59.5184C41.6211 59.5184 43.0803 54.0353 46.065 53.3941C51.4818 52.1118 56.8102 50.6084 62.4039 48.9723C65.7723 47.8314 69.0657 46.4801 72.2647 44.9263C75.9547 43.317 79.7258 41.9001 83.5625 40.6813L84.7343 40.3496L86.3925 39.8853L89.6868 39.0452L91.0797 42.8922C92.3179 46.496 93.5781 50.0999 94.7941 53.6816C95.7669 56.3568 97.005 58.9215 97.9779 61.6188C98.199 62.2158 98.4421 62.7906 98.6411 63.4097C99.3044 65.6206 99.1054 66.5271 97.8231 67.3009C97.5461 67.4997 97.2498 67.67 96.9387 67.8095C95.9217 68.2517 94.8604 67.522 94.1529 66.0186C92.0746 61.5967 90.3501 56.6663 88.5814 51.7359L86.9674 47.1593L86.6579 45.9875V45.7001V45.5674L86.3925 45.3684Z" fill="#FAB794"/>
<path d="M26.7618 78.9525L27.6904 82.092C27.8009 82.49 28.022 82.8216 28.1105 83.2196C28.4863 84.6125 28.818 86.0054 29.2159 87.3983C29.4094 88.0111 29.6458 88.6095 29.9234 89.1891C30.3907 89.8835 30.6514 90.6961 30.6752 91.5327C30.6752 92.0855 27.6462 92.3729 27.2924 91.5327C26.6023 90.0721 26.1115 88.5253 25.8332 86.934C25.563 85.9796 25.2002 85.054 24.7498 84.1703C24.3298 83.1312 24.0423 81.9594 23.7107 80.9645L23.1137 78.9525C22.7821 77.9576 22.5831 76.9184 22.2294 75.9235C21.8756 74.9286 21.544 74.4643 21.2566 73.7126C21.1749 73.5596 21.1154 73.3958 21.0797 73.2262C20.947 72.5629 21.0797 72.2976 21.7209 71.9881L22.1188 71.7891C22.351 71.7032 22.6036 71.6889 22.844 71.748C23.0844 71.8071 23.3016 71.9369 23.4675 72.1207C24.4272 73.2367 25.1763 74.5178 25.6784 75.9014C26.1427 76.8742 26.408 77.9355 26.7839 78.9525H26.7618Z" fill="#FAB794"/>
<path d="M28.5099 79.3727C28.7973 80.2571 29.0626 81.1414 29.3279 82.0258C29.3279 82.3574 29.6153 82.6449 29.7038 82.9765C30.0133 84.1262 30.3228 85.3422 30.6323 86.4919C30.7912 86.9978 30.9832 87.4926 31.2072 87.9732C31.5808 88.5658 31.8012 89.242 31.8484 89.941C31.8484 90.4053 29.35 90.6485 29.0626 89.941C28.4959 88.7616 28.0871 87.5127 27.8466 86.2266C27.6438 85.3711 27.3473 84.5407 26.9622 83.7503C26.6306 82.8881 26.3652 81.9816 26.0778 81.0751L25.5472 79.4169C25.2377 78.5767 25.0387 77.7145 24.7291 76.8964C24.4196 76.0784 24.088 75.7025 23.8448 75.0835C23.7726 74.9494 23.7133 74.8087 23.6679 74.6634C23.5352 74.1328 23.6679 73.9117 24.1322 73.6242L24.4638 73.4474C24.6476 73.3615 24.854 73.3366 25.0529 73.3764C25.2518 73.4162 25.4327 73.5185 25.5693 73.6685C26.4483 74.5661 27.1464 75.6245 27.6255 76.7859C28.0028 77.6224 28.3349 78.4785 28.6204 79.3506L28.5099 79.3727Z" fill="#FAB794"/>
<path d="M142.66 163.786C143.212 163.654 143.654 163.499 143.809 162.813C143.817 162.516 143.756 162.221 143.632 161.951L143.5 161.133C143.39 160.858 143.232 160.603 143.035 160.381C142.558 159.782 141.933 159.318 141.222 159.033C140.955 158.911 140.665 158.848 140.371 158.848C140.078 158.848 139.787 158.911 139.52 159.033C139.056 159.364 139.034 159.674 138.591 160.558C138.437 160.801 137.596 160.912 136.734 160.558C136.269 160.378 135.852 160.09 135.518 159.718C135.364 159.491 135.261 159.233 135.216 158.962C135.17 158.691 135.183 158.414 135.253 158.148C135.59 157.019 136.319 156.047 137.309 155.407C138.173 154.855 139.161 154.528 140.183 154.456C141.872 154.286 143.565 154.726 144.959 155.694C145.809 156.28 146.602 156.947 147.325 157.684C147.985 158.476 148.522 159.363 148.917 160.315C149.293 161.423 149.394 162.607 149.209 163.763C149.024 164.919 148.559 166.012 147.855 166.948C147.013 168.009 145.897 168.819 144.627 169.291C143.67 169.69 142.638 169.88 141.601 169.85C140.565 169.819 139.546 169.569 138.614 169.115C137.117 168.418 135.935 167.188 135.297 165.666C135.132 165.298 135.013 164.912 134.943 164.516C134.943 163.234 135.408 162.813 136.955 162.747C137.309 162.747 137.663 162.747 138.017 162.747C138.93 162.781 139.811 163.098 140.537 163.654C140.67 163.786 140.802 163.941 140.913 164.029H141.2C141.332 164.055 141.467 164.055 141.598 164.029C141.775 164.029 141.775 163.875 141.775 163.875C141.775 163.875 141.775 163.875 141.908 163.875C142.16 163.837 142.401 163.747 142.615 163.609L142.66 163.786Z" fill="#FAB794"/>
<path d="M141.62 164.206C141.886 164.206 141.952 163.609 141.819 163.123C141.687 162.637 141.598 162.88 141.532 162.703C141.387 161.907 141.07 161.152 140.603 160.492C140.531 160.396 140.438 160.318 140.33 160.264C140.223 160.21 140.104 160.182 139.984 160.182C139.874 160.182 139.741 160.536 139.431 160.404C138.959 159.94 138.577 159.393 138.304 158.79C137.817 157.905 137.707 156.755 138.304 156.424C138.532 156.282 138.777 156.171 139.033 156.092C139.356 156.048 139.683 156.048 140.006 156.092C140.52 156.021 141.04 156.021 141.554 156.092C142.359 156.263 143.088 156.69 143.632 157.308C144.207 157.994 145.091 158.259 145.644 158.966C146.278 159.749 146.765 160.641 147.081 161.597C147.321 162.309 147.434 163.058 147.413 163.808C147.368 164.439 147.196 165.054 146.907 165.616C146.618 166.179 146.219 166.677 145.733 167.081C145.136 167.633 144.605 168.385 144.008 168.849C143.878 168.972 143.737 169.083 143.588 169.181C143.323 169.181 143.124 169.181 142.903 168.805C142.773 168.525 142.662 168.237 142.571 167.943C142.571 167.722 142.416 167.456 142.328 167.169L142.129 166.439C142.04 166.04 141.989 165.633 141.974 165.223V164.317C141.921 164.085 141.906 163.846 141.93 163.609C142.067 163.22 142.12 162.805 142.084 162.393C142.269 162.736 142.484 163.061 142.726 163.366L143.057 163.72C143.121 163.791 143.195 163.85 143.278 163.897C143.654 164.074 142.969 163.698 141.664 164.162L141.62 164.206Z" fill="#FAB794"/>
<path d="M148.564 180.081C150.44 179.943 152.307 179.707 154.158 179.373C154.843 179.373 155.506 178.998 156.192 178.865C158.602 178.401 161.034 177.848 163.444 177.207C164.516 176.91 165.571 176.555 166.605 176.145C167.885 175.527 169.261 175.131 170.673 174.974C171.58 174.974 171.226 177.759 169.811 178.423C167.139 179.564 164.352 180.416 161.498 180.965C159.751 181.275 158.071 182.004 156.302 182.447C154.364 182.954 152.401 183.36 150.421 183.663C149.183 183.817 147.945 183.994 146.685 184.061C145.425 184.127 144.805 184.061 143.833 184.061C142.864 184.049 141.897 183.983 140.936 183.862C140.191 183.803 139.452 183.685 138.725 183.508C138.35 183.508 137.952 183.375 137.576 183.265L136.47 182.756C136.161 182.579 135.807 182.469 135.52 182.27C134.48 181.341 134.348 180.855 134.768 180.059C134.768 179.882 134.967 179.705 135.077 179.55C135.315 179.319 135.616 179.162 135.942 179.099C136.268 179.036 136.605 179.07 136.912 179.197C138.984 179.663 141.093 179.951 143.214 180.059C144.082 180.114 144.954 180.114 145.823 180.059C146.737 180.091 147.652 180.069 148.564 179.992V180.081Z" fill="#FAB794"/>
<path d="M12.5687 117.489L10.0704 117.732C9.76084 117.732 9.47342 117.732 9.16389 117.732C8.05842 117.732 6.95294 117.732 5.89169 117.732H4.45459C3.83454 117.771 3.21266 117.696 2.61951 117.511C2.24365 117.379 2.88482 116.428 3.52599 116.406C4.67568 116.406 5.73693 116.406 7.04138 116.406C7.78744 116.384 8.52883 116.28 9.25232 116.096L11.6844 115.743L13.1878 115.477C13.9395 115.322 14.7133 115.212 15.3987 114.991C16.0841 114.77 16.5263 114.615 17.1012 114.438L17.477 114.305C17.9413 114.305 18.1182 114.305 18.3172 114.725C18.3704 114.817 18.4149 114.913 18.4498 115.013C18.512 115.172 18.5125 115.349 18.4511 115.508C18.3898 115.668 18.271 115.799 18.1182 115.875C17.1992 116.502 16.1603 116.931 15.0671 117.135L12.5908 117.555L12.5687 117.489Z" fill="#FAB794"/>
<path d="M123.005 88.4376L120.418 88.7693L119.468 88.9461C118.362 89.0788 117.257 89.2114 116.129 89.4104C115.621 89.4104 115.156 89.6315 114.67 89.7642C114.07 89.9797 113.447 90.1208 112.813 90.1843C112.393 90.1843 112.614 89.1009 113.299 88.8135C114.503 88.3221 115.755 87.9589 117.036 87.7301C117.824 87.5633 118.6 87.3417 119.357 87.0668C120.197 86.8457 121.082 86.6689 121.944 86.492L123.536 86.1603L125.968 85.6739C126.587 85.5634 127.184 85.2981 127.803 85.1433H128.201C128.709 85.0328 128.908 85.1433 129.085 85.6297C129.139 85.7363 129.183 85.8472 129.218 85.9614C129.269 86.1391 129.259 86.3286 129.191 86.5005C129.123 86.6723 129 86.817 128.842 86.9121C127.834 87.5055 126.736 87.9312 125.592 88.1723L123.027 88.4376H123.005Z" fill="#FAB794"/>
<path d="M52.5423 109.287L50.8399 109.441H50.2208C49.4912 109.441 48.7395 109.574 48.0099 109.685C47.6884 109.737 47.3709 109.811 47.0592 109.906C46.6667 110.041 46.2577 110.123 45.8432 110.149C45.5778 110.149 45.7105 109.397 46.1527 109.22C46.9471 108.892 47.7787 108.662 48.6289 108.535C49.1451 108.433 49.6546 108.3 50.1545 108.137C50.7072 107.982 51.2821 107.894 51.8569 107.783L52.9182 107.606L54.51 107.319C54.908 107.319 55.306 107.076 55.7039 106.965H55.9692C56.3009 106.965 56.4114 106.965 56.5441 107.319V107.54C56.5832 107.662 56.5805 107.793 56.5364 107.913C56.4924 108.033 56.4095 108.135 56.3009 108.203C55.6202 108.613 54.8713 108.898 54.09 109.043L52.4096 109.264L52.5423 109.287Z" fill="#FAB794"/>
<path d="M173.966 201.195C173.966 201.195 200.895 199.25 206.998 211.742C215.709 229.429 150.132 245.746 131.958 249.328C111.087 253.418 115.531 252.843 115.531 252.843C115.531 252.843 160.855 240.904 167.333 232.038C173.811 223.172 175.558 205.794 173.966 201.195Z" fill="#FAB794"/>
<path d="M74.785 90.0516C66.2065 92.8816 57.5397 95.5789 48.8065 98.011C45.6006 98.8953 42.4169 99.846 39.1889 100.62C33.4685 101.987 27.6735 103.021 21.833 103.715C15.8742 104.598 9.80746 104.441 3.90232 103.251C2.55549 102.914 1.23323 102.486 -0.0552535 101.969C-1.40266 101.363 -2.66002 100.574 -3.79174 99.625C-5.01376 98.4656 -5.74888 96.8847 -5.84791 95.2031C-5.92511 93.6918 -5.66846 92.1821 -5.09619 90.7812C-3.75257 87.5435 -1.75839 84.6162 0.762791 82.1806C3.13662 79.7082 5.90952 77.6529 8.96537 76.1006C11.0658 75.2383 10.9331 76.1006 9.82764 77.5598C8.17378 79.8603 6.40269 82.0741 4.52139 84.1926C2.47802 86.4163 0.758652 88.9172 -0.585878 91.6214C-1.13058 92.6874 -1.39678 93.8739 -1.35971 95.0704C-1.3087 95.471 -1.16137 95.8532 -0.930338 96.1843C-0.699305 96.5155 -0.391451 96.7857 -0.0331437 96.9718C2.47924 98.4307 5.29315 99.293 8.19154 99.4923C11.3777 99.8407 14.5873 99.9221 17.787 99.7355C25.881 99.0602 33.8874 97.5789 41.6872 95.3136C50.3983 93.1027 59.0431 90.4053 67.6658 87.5974C72.9499 85.8508 78.2562 84.0821 83.5182 82.2249C91.4776 79.3949 99.5033 76.5649 107.374 73.6243C113.476 71.4134 119.402 68.8266 125.526 66.682C126.875 66.1956 128.201 65.7092 129.572 65.267C134.724 63.7414 136.559 63.9183 137.885 64.471C138.193 64.5733 138.489 64.7067 138.77 64.869C139.411 65.3996 137.465 66.5051 133.95 68.1412C128.666 70.3521 123.182 72.5631 117.611 74.774L100.587 81.1636C92.0819 84.2737 83.4961 87.3174 74.8292 90.2948L74.785 90.0516Z" fill="#FAB794"/>
<path d="M19.4 254.766C21.5408 256.682 23.9645 258.256 26.5856 259.432C27.5142 259.94 28.5754 260.139 29.5482 260.559C33.0749 261.904 36.8296 262.55 40.6029 262.461C42.3345 262.385 44.0612 262.223 45.7765 261.974C48.0387 261.579 50.3431 261.482 52.6304 261.687C53.3379 261.687 53.2274 262.438 52.6304 263.146C51.9168 264.01 50.9234 264.596 49.8225 264.804C45.2345 265.844 40.5097 266.142 35.8273 265.689C32.8687 265.33 29.9467 264.716 27.0941 263.853C24.0061 262.807 21.0865 261.318 18.4272 259.432C17.6313 258.812 16.8353 258.193 16.0615 257.552C15.2877 256.911 14.5802 256.204 13.8506 255.496C11.7323 253.311 9.95133 250.822 8.56644 248.112C7.3768 246.082 6.4623 243.904 5.84699 241.634C5.73644 241.125 5.60378 240.639 5.51535 240.108C5.29425 238.162 5.69222 237.521 6.53238 237.101C6.73234 237.005 6.93928 236.923 7.15144 236.858C7.81473 236.681 8.478 237.411 8.85386 238.582C9.22972 239.754 9.53926 240.329 9.82668 241.191L10.9764 243.712C11.7624 245.376 12.6947 246.966 13.7621 248.465C15.3214 250.805 17.1963 252.918 19.3337 254.744L19.4 254.766Z" fill="#FAB794"/>
</svg>
