<svg width="307" height="307" viewBox="0 0 307 307" fill="none" xmlns="http://www.w3.org/2000/svg">
<g clip-path="url(#clip0_54_4404)">
<path d="M141.637 88.649C136.293 89.9787 130.878 91.0044 125.419 91.7212C123.412 91.9414 121.444 92.338 119.406 92.421C112.364 92.9814 105.288 92.9528 98.2505 92.3354C95.1482 91.9767 91.9677 91.8205 88.9438 91.2593C86.9757 90.9157 84.9642 90.7462 83.0136 90.2959C81.0629 89.8456 79.1428 89.3474 77.2139 88.8101C76.0252 88.4576 76.2755 88.1963 77.3792 88.0742C79.1529 87.9437 80.936 88.0592 82.678 88.4173C90.5885 89.9301 98.6042 90.8284 106.653 91.104C109.083 91.1188 111.558 91.0618 114.048 90.9808L121.491 90.333C126.921 89.7279 132.311 88.8038 137.633 87.5655C140.924 86.8335 144.164 85.8664 147.329 84.9363C152.213 83.3886 157.003 81.5546 161.672 79.4436C163.548 78.6356 165.231 77.7885 166.935 76.8543C168.64 75.9201 170.348 75.0055 171.996 74.0016L174.192 72.6907C176.9 70.9988 177.876 70.7613 178.827 70.8787C179.026 70.8838 179.225 70.9086 179.419 70.9526C179.863 71.1006 178.997 72.1979 177.034 73.5392C170.888 77.5348 164.339 80.8727 157.495 83.4978C152.315 85.5299 147.025 87.2693 141.65 88.7077L141.637 88.649Z" fill="#F9AF8C"/>
<path d="M190.969 255.92C194.832 254.801 198.662 253.531 202.458 252.111L206.518 250.488C211.32 248.609 216.01 246.453 220.564 244.033C222.589 242.966 224.563 241.767 226.496 240.658C228.943 239.086 231.389 237.514 233.631 235.761C234.356 235.23 234.352 235.395 233.873 236.016C233.048 237.04 232.109 237.966 231.074 238.776C226.275 242.439 221.089 245.565 215.608 248.096C212.306 249.612 208.936 251.287 205.501 252.668C201.731 254.205 197.926 255.586 194.086 256.81C191.705 257.566 189.323 258.322 186.9 258.984C183.254 260.062 179.551 260.886 175.885 261.783C173.045 262.415 170.278 263.195 167.422 263.666L165.56 264.079C163.209 264.417 162.426 264.407 161.873 264.139C161.744 264.089 161.62 264.027 161.503 263.954C161.25 263.743 162.151 263.357 163.83 262.861C168.821 261.545 174.115 260.573 179.438 259.081C183.356 258.21 187.218 257.083 191.071 255.918L190.969 255.92Z" fill="#F9AF8C"/>
<path d="M219.331 220.827C221.221 220.818 223.115 220.829 225.017 220.879C225.699 220.892 226.391 220.861 227.077 220.893C229.531 221.012 231.974 221.286 234.394 221.713C235.486 221.901 236.565 222.155 237.627 222.474C238.35 222.683 239.03 223.019 239.636 223.467C239.985 223.726 240.254 224.079 240.409 224.485C240.565 224.891 240.602 225.333 240.516 225.759C240.385 226.281 240.152 226.066 239.869 225.718C239.586 225.369 239.136 225.1 238.737 224.88C237.694 224.294 236.555 223.9 235.374 223.716L231.35 223.007C229.666 222.785 227.968 222.689 226.269 222.718C224.406 222.659 222.508 222.629 220.622 222.658L217.144 222.733C215.389 222.794 213.615 222.859 211.882 223.019C210.534 223.154 209.209 223.387 207.898 223.596L207.036 223.788C205.937 223.93 205.569 223.847 205.279 223.377C205.21 223.278 205.146 223.175 205.088 223.07C205 222.678 205.355 222.332 206.154 222.134C208.607 221.582 211.102 221.233 213.612 221.092C215.515 220.956 217.431 220.88 219.331 220.827Z" fill="#F9AF8C"/>
<path d="M135.97 239.47L138.456 238.074C138.789 238 139.054 237.714 139.37 237.562C140.465 236.993 141.6 236.506 142.768 236.107L144.326 235.534C144.956 235.299 145.616 235.153 146.286 235.099C146.717 235.003 146.355 235.967 145.657 236.246C144.379 236.695 143.175 237.291 141.882 237.764C141.095 238.095 140.338 238.491 139.616 238.947L137.178 240.373L135.674 241.283L133.421 242.709C132.842 243.064 132.324 243.508 131.749 243.883C131.631 243.976 131.505 244.059 131.373 244.131C130.883 244.425 130.678 244.43 130.417 244.179L130.236 244.014C130.067 243.805 130.123 243.504 130.471 243.221C131.414 242.41 132.408 241.66 133.447 240.976L135.872 239.491L135.97 239.47Z" fill="#F9AF8C"/>
<path d="M208.256 227.793C208.256 227.793 214.291 227.191 216.982 228.567C220.104 230.216 202.832 243.619 185.56 245.835L209.685 231.999L208.256 227.793Z" fill="#F9AF8C"/>
<path d="M157.199 154.458C156.734 154.953 156.424 155.573 156.306 156.242C156.188 156.911 156.268 157.6 156.536 158.224C156.823 158.801 157.271 159.283 157.826 159.612C158.38 159.941 159.018 160.103 159.662 160.078C159.972 160.072 160.276 159.999 160.555 159.864C160.833 159.729 161.08 159.535 161.276 159.296C161.473 159.057 161.616 158.778 161.695 158.479C161.774 158.18 161.787 157.867 161.734 157.562C161.605 156.995 161.336 156.471 160.952 156.035C160.568 155.6 160.081 155.268 159.535 155.069C159.163 154.972 158.768 155.017 158.428 155.196C158.087 155.374 157.825 155.673 157.693 156.034C157.601 156.406 157.648 156.799 157.826 157.138C158.004 157.477 158.3 157.74 158.658 157.876C158.658 157.876 158.926 158.063 158.823 158.065C158.721 158.067 159.653 157.079 159.629 157.063C159.605 157.048 159.069 156.859 159.3 156.602C159.563 156.325 159.716 155.961 159.729 155.58C159.743 155.198 159.616 154.824 159.374 154.529C159.106 154.25 158.741 154.084 158.354 154.067C157.967 154.049 157.589 154.182 157.297 154.436L157.199 154.458Z" fill="#F9AF8C"/>
<path d="M171.112 169.869C171.263 169.959 171.403 170.066 171.532 170.186C171.567 170.343 171.532 170.186 171.571 170.363C171.61 170.539 171.747 170.508 171.597 170.48C171.447 170.452 171.427 170.641 171.597 170.48C171.767 170.319 171.811 170.145 172.041 170.073C170.117 170.665 170.771 173.604 172.695 173.012C173.134 172.869 173.529 172.617 173.843 172.277C174.156 171.938 174.376 171.524 174.483 171.074C174.59 170.625 174.579 170.156 174.451 169.712C174.324 169.268 174.085 168.865 173.756 168.54C173.489 168.153 173.147 167.824 172.749 167.574C172.351 167.323 171.907 167.156 171.442 167.083C170.978 167.009 170.503 167.031 170.048 167.146C169.592 167.261 169.164 167.468 168.791 167.753C168.515 168.023 168.353 168.388 168.335 168.773C168.318 169.158 168.447 169.536 168.697 169.83C168.974 170.093 169.338 170.245 169.72 170.259C170.101 170.273 170.475 170.146 170.77 169.903L171.112 169.869Z" fill="#F9AF8C"/>
<path d="M163.118 184.312C163.334 184.079 162.883 184.364 162.785 184.386C162.845 184.432 162.909 184.473 162.977 184.508C162.942 184.351 162.977 184.508 163.012 184.664C163.047 184.821 162.946 184.371 163.042 184.802C163.138 185.233 163.042 184.802 163.064 184.9C163.086 184.998 163.112 184.56 163.149 184.449C163.186 184.338 163.58 184.168 163.31 184.249C162.92 184.335 162.581 184.573 162.367 184.91C162.152 185.247 162.081 185.655 162.167 186.045C162.254 186.435 162.492 186.774 162.829 186.988C163.166 187.202 163.574 187.274 163.963 187.187C168.831 185.961 163.866 178.985 160.948 182.224C159.655 183.622 161.754 185.849 162.999 184.421L163.118 184.312Z" fill="#F9AF8C"/>
<path d="M165.865 246.864C166.088 240.934 171.822 225.39 175.348 221.46C178.166 218.324 181.083 216.462 185.296 217.191C189.657 218.157 193.759 220.049 197.324 222.74C200.78 225.241 205.406 228.016 207.151 232.069C207.504 233.101 188.861 249.769 165.865 246.864Z" fill="#F9AF8C"/>
<path d="M116.313 122.614C114.002 125.533 140.867 162.202 165.178 137.735C172.145 130.696 180.903 118.488 178.849 109.528C178.77 109.176 129.007 106.652 116.313 122.614Z" fill="#F9AF8C"/>
<path d="M96.4995 146.122C92.1451 142.36 88.1185 138.234 84.4632 133.789C83.1568 132.168 81.711 130.659 80.5243 128.929C76.2158 122.998 72.4058 116.721 69.1334 110.161C68.4562 108.687 67.7201 107.227 67.0036 105.762C66.2872 104.297 65.6687 102.81 64.9761 101.36C63.0032 97.6537 61.7289 93.616 61.2167 89.4485C61.1642 88.1032 61.9436 88.0943 63.2934 88.8016C65.1126 89.7028 66.5558 91.2165 67.3694 93.0765C68.2949 94.9267 68.7698 96.8772 69.617 98.7449C70.4641 100.613 71.0762 102.533 71.9429 104.396C72.8097 106.259 73.4609 108.17 74.3472 110.029C75.2336 111.888 76.0219 113.769 76.9671 115.615C79.3135 120.073 82.1219 124.273 85.3461 128.144C88.776 132.507 92.5264 136.607 96.5661 140.412C99.0801 142.714 101.722 144.872 104.48 146.876C105.502 147.677 106.621 148.456 107.681 149.063C108.741 149.67 109.854 150.513 110.982 151.146C113.218 152.426 115.532 153.566 117.909 154.56L120.685 155.67L123.548 156.617C125.431 157.226 127.334 157.831 129.184 158.201C130.007 158.388 130.813 158.496 131.627 158.644C134.677 159.138 135.639 159.397 136.186 160.653C136.359 160.915 136.509 161.191 136.637 161.478C136.846 162.418 135.516 163.187 132.892 163.133C129.025 162.897 125.215 162.074 121.596 160.69L118.938 159.739L116.201 158.621L113.48 157.478L110.852 156.109C108.261 154.747 105.745 153.248 103.314 151.617C100.876 149.898 98.4504 148.237 96.3689 146.274L96.4995 146.122Z" fill="#F9AF8C"/>
<path d="M194.691 121.961L196.293 118.253C196.774 116.995 197.163 115.695 197.6 114.426C198.474 111.847 199.216 109.225 199.822 106.571C200.364 104.662 200.431 102.652 200.837 100.691C202.085 93.7408 202.658 86.6864 202.547 79.6261C202.588 78.0544 202.464 76.4783 202.359 74.8978C202.254 73.3174 202.134 71.7609 201.956 70.2174C201.696 68.219 201.339 66.2424 201.138 64.2309C200.92 63.2513 200.898 62.2282 200.842 61.2333C200.745 60.2174 200.759 59.1942 200.882 58.1812C201.048 56.8902 201.812 56.9054 203.02 57.8086C204.72 59.0066 205.915 60.7917 206.376 62.8194C207.039 66.9926 207.393 71.2092 207.434 75.4347C207.478 77.481 207.332 79.6928 207.228 81.8132C207.123 83.9277 206.906 86.0352 206.576 88.1265C206.319 90.6714 206.028 93.2446 205.761 95.8331C205.546 98.4359 205.196 101.026 204.711 103.592C204.315 106.435 203.464 109.174 202.831 111.967C202.483 113.36 201.961 114.71 201.545 116.077C201.13 117.445 200.714 118.812 200.124 120.135L198.064 125.014C197.35 126.612 196.438 128.152 195.624 129.669L194.701 131.437L193.596 133.122L191.402 136.571C190.637 137.666 189.815 138.721 188.938 139.73C188.074 140.745 187.349 141.831 186.398 142.824C184.933 144.28 183.54 145.783 182.147 147.285C180.754 148.787 179.057 150.029 177.474 151.326C176.812 151.942 176.084 152.483 175.304 152.94C172.394 154.738 171.305 155.022 170.145 154.334C169.875 154.196 169.618 154.033 169.378 153.846C168.695 153.176 169.472 151.77 171.333 150.43C177.122 146.338 182.261 141.397 186.578 135.773C187.424 134.743 188.191 133.651 188.874 132.507C189.609 131.377 190.432 130.269 191.065 129.141L192.941 125.557L193.879 123.765L194.654 121.887L194.691 121.961Z" fill="#F9AF8C"/>
<path d="M112.27 193.831C111.099 196.148 109.882 198.351 108.894 200.75C108.396 201.93 107.822 203.045 107.376 204.275L106.122 207.885C105.419 209.624 105.089 211.466 104.501 213.262C102.512 219.609 101.21 226.15 100.617 232.775C100.446 234.245 100.37 235.725 100.389 237.205C100.385 238.666 100.302 240.144 100.4 241.602C100.512 243.49 100.721 245.355 100.769 247.236C100.833 248.168 100.881 249.124 100.905 250.064C100.946 251.019 100.869 251.976 100.674 252.912C100.453 254.133 99.6797 254.079 98.5149 253.186C96.8772 252.02 95.7513 250.268 95.3705 248.293C94.9795 244.286 94.9562 240.251 95.301 236.239C95.4363 234.234 95.6787 232.238 96.0271 230.259C96.1946 229.255 96.3424 228.256 96.5578 227.283L97.2583 224.331L98.8963 217.182C99.3487 214.778 100.03 212.386 100.719 210.032C101.409 207.679 102.508 204.947 103.383 202.408C104.257 199.87 105.461 197.422 106.673 195.015L108.941 190.604L111.419 186.31C112.64 184.127 114.168 182.121 115.509 180.014C116.85 177.906 118.482 176.001 119.971 174.005C121.179 172.502 122.343 170.989 123.484 169.461C124.624 167.932 125.956 166.526 127.197 165.078C127.707 164.425 128.255 163.802 128.838 163.212C131.125 161.017 132.072 160.56 133.346 161.017C133.641 161.093 133.928 161.202 134.199 161.341C135.009 161.839 134.635 163.3 133.131 164.951C128.83 170.019 124.275 175.145 120.211 180.818C118.614 182.88 117.358 185.092 115.895 187.206C114.433 189.32 113.219 191.626 112.111 193.949L112.27 193.831Z" fill="#F9AF8C"/>
<path d="M209.198 170.548C211.34 172.415 213.598 174.154 215.591 176.179L218.654 179.136C219.66 180.146 220.596 181.213 221.563 182.232L223.725 184.465C224.396 185.261 225.082 186.034 225.733 186.835C230.337 192.481 234.377 198.566 237.792 205.002L238.959 207.107L240.022 209.297C240.734 210.742 241.5 212.155 242.173 213.609C242.981 215.485 243.887 217.34 244.636 219.229C244.858 220.229 245.209 221.158 245.464 222.212C245.743 223.216 245.904 224.25 245.943 225.292C245.992 226.618 245.217 226.646 243.862 225.919C242.04 225.062 240.591 223.573 239.784 221.727C238.917 219.864 238.247 217.957 237.548 216.2C236.848 214.444 235.919 212.574 235.139 210.732C233.503 206.984 231.805 203.414 229.819 199.846C227.318 195.538 224.355 191.516 220.983 187.85C219.151 185.811 217.285 183.8 215.345 181.826C213.405 179.851 211.444 177.964 209.273 176.247C207.962 175.161 206.721 174.018 205.345 173.008L201.261 169.99C199.14 168.405 196.952 167.165 194.788 165.754C192.624 164.344 190.312 163.193 188.008 162.081C186.203 161.269 184.368 160.505 182.561 159.776L176.936 157.964C176.13 157.67 175.287 157.487 174.452 157.242C171.388 156.319 170.513 155.712 170.189 154.345C170.091 154.045 170.023 153.737 169.984 153.424C169.951 152.444 171.444 152.133 173.902 152.553C181.303 154.179 188.405 156.948 194.953 160.763C197.524 162.062 199.879 163.779 202.314 165.294C204.748 166.809 207.003 168.63 209.285 170.385L209.198 170.548Z" fill="#F9AF8C"/>
<path d="M152.018 83.6467L149.351 84.5071L146.65 85.2107L141.243 86.5983C137.64 87.5024 133.963 88.0734 130.326 88.8207C127.646 89.2522 124.957 89.6445 122.358 89.9758C119.993 90.3032 117.611 90.4897 115.224 90.5343C112.841 90.6327 110.455 90.8138 108.069 90.8098L100.926 90.589C99.7439 90.5435 98.5357 90.5654 97.3601 90.4568L93.8008 90.0764L87.4875 89.4244C85.3801 89.194 83.3272 88.7459 81.2612 88.4241C78.551 88.0434 75.8673 87.4934 73.2258 86.7775C70.6306 86.1039 68.0708 85.3008 65.5559 84.371C63.9884 83.7944 64.4128 83.2066 66.0041 82.8732C68.3937 82.4277 70.8497 82.4836 73.2164 83.0374C83.6254 85.5177 94.2681 86.8863 104.966 87.1204C108.255 87.26 111.55 87.1459 114.821 86.7791C116.475 86.6374 118.132 86.5979 119.78 86.3342L124.722 85.6259C126.507 85.3317 128.35 85.2094 130.109 84.7977L135.48 83.7061C139.085 83.0894 142.576 81.9634 146.096 81.0572C148.31 80.5648 150.406 79.7285 152.533 79.0293C154.66 78.3302 156.835 77.6615 158.894 76.7511C162.039 75.4553 165.25 74.2683 168.28 72.7309C169.824 71.997 171.371 71.2827 172.886 70.514L177.301 67.9901C181.744 65.3025 185.938 62.223 189.832 58.7882C190.674 58.0457 191.397 57.227 192.235 56.465C193.073 55.7029 193.661 55.2021 194.218 54.7492C194.646 54.3377 195.116 53.9714 195.62 53.6561C196.337 53.259 197.153 53.0775 197.971 53.1332C198.31 53.1269 198.65 53.1407 198.987 53.1744C199.447 53.2985 199.516 53.797 199.31 54.6242C198.912 55.8738 198.277 57.0345 197.438 58.0424C190.852 65.4081 182.012 70.6844 172.987 75.2205L167.894 77.6487C166.187 78.4806 164.413 79.1013 162.68 79.8157C160.947 80.53 159.199 81.2683 157.397 81.8542L152.062 83.6576L152.018 83.6467Z" fill="#F9AF8C"/>
<path d="M111.677 49.4406C115.287 48.1033 119.055 47.2036 122.766 46.2342C126.478 45.2648 130.27 44.5654 134.062 43.866C136.805 43.2559 139.607 43.0029 142.378 42.6128C152.162 41.5821 162.025 41.5447 171.817 42.5012C176.169 42.9315 180.523 43.4641 184.803 44.2188L188.937 44.9648L193.01 45.9916C194.366 46.4507 195.677 46.7966 197.044 47.3972C198.455 48.0842 199.725 49.0291 200.789 50.1831C201.423 50.9057 201.521 51.4391 201.314 51.5262C201.107 51.6133 200.615 51.4349 199.875 51.25C198.923 50.9816 197.948 50.8061 196.962 50.7258C196.35 50.6562 195.867 50.702 195.114 50.6434C194.391 50.5487 193.675 50.4129 192.967 50.2367C187.631 49.0794 182.178 47.9483 176.799 47.1503C171.419 46.3523 165.746 45.8046 160.166 45.5857C158.488 45.5272 156.799 45.5122 155.109 45.4973C153.42 45.4823 151.7 45.7003 149.974 45.7964C148.248 45.8925 146.545 46.0038 144.849 46.237L139.738 46.9214C135.97 47.266 132.308 48.1832 128.59 48.8456C124.872 49.508 121.271 50.6994 117.606 51.5969C115.387 52.2548 113.208 53.0889 110.984 53.8099C108.766 54.5081 106.586 55.3223 104.453 56.2491C101.236 57.6843 97.9206 58.9562 94.7599 60.461L85.4674 65.5501C83.1557 66.9895 80.9463 68.6117 78.7217 70.0728C76.4971 71.5339 74.2791 73.117 72.2374 74.8458L69.4861 77.082C65.9773 79.7951 64.7191 80.4245 63.2605 80.1526C62.9307 80.1275 62.6054 80.0617 62.2917 79.9568C61.4252 79.5738 62.4438 77.8669 64.9534 75.7461C66.7927 74.124 68.6994 72.528 70.6454 70.9232L72.1037 69.7147L73.6709 68.626L76.8337 66.4833C78.9799 65.0397 81.1262 63.596 83.3051 62.2067L90.1858 58.4764C91.9033 57.601 93.5619 56.5536 95.3535 55.8262L100.713 53.4829C102.598 52.7141 104.237 51.8561 106.089 51.2179L111.634 49.2447L111.677 49.4406Z" fill="#F9AF8C"/>
<path d="M129.313 239.12C131.022 238.206 132.767 237.365 134.513 236.524C135.144 236.22 135.734 235.821 136.35 235.54C138.612 234.523 140.943 233.635 143.227 232.716C144.246 232.304 145.26 231.873 146.242 231.387C147.437 230.557 148.881 230.163 150.332 230.272C150.846 230.363 150.859 230.607 150.735 231.251L150.443 232.529C150.322 232.952 150.076 233.329 149.738 233.611C147.317 235.02 144.732 236.127 142.041 236.906C140.438 237.494 138.885 238.21 137.398 239.049C135.691 239.881 133.989 240.733 132.315 241.619C131.288 242.176 130.26 242.734 129.261 243.326C127.724 244.21 126.237 245.179 124.808 246.229C123.768 247.063 122.788 247.968 121.874 248.937L121.282 249.604C120.989 249.88 120.604 250.037 120.201 250.042C119.799 250.048 119.409 249.903 119.109 249.635C118.936 249.545 118.774 249.436 118.626 249.31C118.149 248.923 118.133 248.207 118.484 247.286C119.148 246.159 120.014 245.165 121.039 244.353C122.036 243.481 123.085 242.671 124.18 241.927C125.806 240.825 127.517 239.828 129.191 238.757L129.313 239.12Z" fill="#F9AF8C"/>
<path d="M222.706 247.834C213.763 253.121 204.28 257.435 194.419 260.705C190.838 261.892 187.238 263.083 183.576 264C170.664 267.189 157.389 268.669 144.091 268.402C138.222 268.268 132.312 267.856 126.521 267.149C122.748 266.71 119.023 265.928 115.392 264.813C111.673 263.78 108.205 261.997 105.2 259.575C104.262 258.776 104.003 258.258 104.162 258.14C104.321 258.023 104.889 258.266 105.871 258.521C107.186 258.868 108.526 259.114 109.879 259.254C111.503 259.53 113.362 259.939 115.365 260.439C118.838 261.483 122.386 262.261 125.978 262.767C129.663 263.25 133.363 263.585 137.078 263.773C144.537 264.237 152.017 264.248 159.477 263.808C168.656 263.113 177.731 261.412 186.538 258.736C196.295 255.951 205.731 252.143 214.689 247.376C220.207 244.441 225.553 241.193 230.701 237.647C232.636 236.271 234.497 234.746 236.282 233.342C238.042 231.909 239.609 230.254 240.944 228.419C241.524 227.662 241.892 226.764 242.01 225.817C242.014 225.443 241.912 225.075 241.718 224.755C241.523 224.434 241.243 224.175 240.908 224.006C238.96 223.008 236.827 222.419 234.643 222.275C227.434 221.666 220.188 221.641 212.975 222.2L208.214 222.519C202.263 222.752 200.314 222.219 198.975 221.469C198.661 221.293 198.361 221.091 198.08 220.866C197.44 220.206 199.796 219.333 204.239 218.509C207.571 217.995 210.928 217.661 214.296 217.506C217.666 217.312 221.077 217.211 224.528 217.287C228.061 217.285 231.592 217.482 235.103 217.875C237.017 218.075 238.907 218.46 240.746 219.026C241.891 219.4 242.971 219.951 243.947 220.658C244.557 221.145 245.093 221.718 245.538 222.36C246.023 223.082 246.34 223.904 246.464 224.765C246.646 225.892 246.542 227.046 246.162 228.122C246.023 228.558 245.849 228.982 245.642 229.389C245.467 229.779 245.261 230.155 245.028 230.513C244.219 231.773 243.281 232.947 242.229 234.014C240.308 235.963 238.24 237.763 236.045 239.398C231.818 242.531 227.426 245.437 222.889 248.102L222.706 247.834Z" fill="#F9AF8C"/>
<path d="M178.227 95.9116C178.732 95.9638 179.217 96.0203 179.731 96.1117C180.532 96.2354 181.317 96.447 182.071 96.7426C182.807 97.0111 183.452 97.48 183.935 98.0963C184.308 98.7574 184.476 99.5143 184.419 100.271L184.095 102.79C184.012 103.343 183.886 103.885 183.784 104.442C183.599 105.552 183.318 106.602 183.055 107.73C182.539 109.914 181.899 112.068 181.138 114.18C179.647 118.345 177.79 122.371 175.589 126.209C173.677 129.663 171.425 132.919 168.868 135.928C166.576 138.616 163.925 140.976 160.991 142.943C159.504 143.932 157.898 144.659 156.341 145.52C154.785 146.38 153.009 146.713 151.356 147.327C144.48 148.959 137.271 148.477 130.673 145.944C124.965 143.808 119.597 140.853 114.74 137.171C108.502 132.63 103.039 127.11 98.5629 120.825C97.1976 118.847 98.0836 118.67 99.8319 119.782C102.609 121.648 105.192 123.788 107.544 126.168C112.816 131.509 118.853 136.036 125.458 139.599C131.86 143.213 139.168 144.907 146.508 144.478C150.928 143.915 155.151 142.314 158.833 139.805C162.524 137.094 165.742 133.794 168.36 130.037C174.382 121.728 178.434 112.158 180.209 102.05L180.328 101.201C180.293 101.045 180.415 100.853 180.361 100.701C180.273 100.546 180.13 100.431 179.96 100.378L179.46 100.161L179.224 100.213L178.715 100.141C177.287 99.9514 175.849 99.8455 174.409 99.8243C171.474 99.7573 168.516 99.8601 165.551 100.026C155.858 100.636 146.226 101.988 136.74 104.069C129.508 105.682 122.445 107.976 115.646 110.919C114.168 111.577 112.781 112.276 111.34 113.008C106.073 115.762 104.642 116.821 102.929 116.791C102.553 116.82 102.176 116.822 101.799 116.795C100.804 116.667 102.18 114.161 106.111 111.498C112.06 107.745 118.518 104.868 125.286 102.957C132.11 100.901 139.062 99.2996 146.097 98.1637C151.383 97.2761 156.664 96.6155 161.941 96.1822C167.34 95.6489 172.774 95.5613 178.187 95.9204L178.227 95.9116Z" fill="#F9AF8C"/>
<path d="M156.719 161.083C156.09 160.647 155.593 160.046 155.284 159.346C154.986 158.739 154.792 158.087 154.711 157.417C154.63 156.876 154.64 156.325 154.739 155.786C155.017 154.893 155.565 154.108 156.307 153.538C157.049 152.968 157.949 152.641 158.883 152.603C159.624 152.537 160.37 152.586 161.095 152.748C161.573 152.791 162.034 152.942 162.446 153.189C162.857 153.435 163.206 153.772 163.468 154.174C163.529 154.448 163.229 154.762 162.715 155.04C162.288 155.309 161.803 155.473 161.3 155.52C160.346 155.017 159.241 154.882 158.194 155.141C157.891 155.241 157.627 155.432 157.438 155.688C157.248 155.943 157.142 156.251 157.134 156.57C157.054 157.395 157.275 158.222 157.755 158.899C157.887 159.089 158.057 159.25 158.254 159.373C158.451 159.495 158.671 159.576 158.9 159.611C159.317 159.639 159.735 159.582 160.128 159.441C160.521 159.3 160.881 159.08 161.185 158.794C161.398 158.622 161.56 158.396 161.655 158.139C161.749 157.883 161.774 157.606 161.725 157.337C161.725 157.337 161.725 157.337 161.699 157.22C161.673 157.102 161.621 156.867 161.951 156.321L162.093 155.94C162.223 155.602 162.741 155.343 163.456 155.78C163.724 156.011 163.936 156.3 164.076 156.625C164.216 156.95 164.28 157.303 164.264 157.657C164.26 158.266 164.095 158.863 163.785 159.388C163.263 160.266 162.501 160.978 161.589 161.439C160.865 161.848 160.046 162.057 159.215 162.043C158.384 162.029 157.571 161.793 156.862 161.359L156.719 161.083Z" fill="#F9AF8C"/>
<path d="M172.493 166.374C173.162 166.571 173.769 166.94 174.252 167.443C174.675 167.88 175.018 168.389 175.265 168.945C175.507 169.362 175.665 169.823 175.731 170.301C175.774 171.099 175.566 171.89 175.137 172.564C174.708 173.238 174.08 173.762 173.339 174.061C172.771 174.327 172.167 174.51 171.547 174.603C171.173 174.692 170.784 174.695 170.409 174.611C170.034 174.527 169.683 174.358 169.383 174.118C169.179 173.938 169.449 173.487 169.801 173.038C170.057 172.65 170.389 172.318 170.776 172.061C171.552 172.104 172.325 171.932 173.01 171.564C173.192 171.43 173.327 171.243 173.397 171.028C173.468 170.813 173.469 170.582 173.401 170.367C173.239 169.758 172.873 169.223 172.365 168.849C172.23 168.751 172.075 168.682 171.912 168.648C171.748 168.613 171.579 168.614 171.416 168.649C171.102 168.727 170.81 168.873 170.56 169.078C170.31 169.283 170.11 169.541 169.973 169.834C169.746 170.295 169.857 170.888 170.04 170.97C170.223 171.053 170.138 170.948 170.04 170.97C169.942 170.992 170.101 171.244 169.96 171.811L169.945 172.205C170.023 172.557 169.588 173.004 168.821 172.886C168.53 172.785 168.266 172.619 168.05 172.399C167.834 172.18 167.671 171.914 167.574 171.622C167.378 171.122 167.328 170.577 167.43 170.05C167.576 169.182 167.977 168.377 168.581 167.738C169.05 167.141 169.679 166.69 170.394 166.437C171.109 166.183 171.881 166.137 172.621 166.305L172.493 166.374Z" fill="#F9AF8C"/>
<path d="M165.26 188.03C164.655 188.339 163.98 188.488 163.301 188.465C162.701 188.489 162.101 188.414 161.525 188.244C161.066 188.118 160.631 187.916 160.24 187.645C159.631 187.123 159.2 186.425 159.004 185.647C158.809 184.869 158.86 184.05 159.151 183.302C159.36 182.713 159.643 182.153 159.993 181.635C160.185 181.281 160.459 180.979 160.79 180.751C161.122 180.524 161.503 180.378 161.902 180.326C162.137 180.274 162.294 180.794 162.381 181.371C162.488 181.818 162.507 182.281 162.438 182.736C161.854 183.25 161.432 183.922 161.224 184.671C161.184 184.893 161.219 185.122 161.323 185.322C161.427 185.522 161.594 185.682 161.798 185.777C162.349 186.087 162.991 186.192 163.612 186.073C163.778 186.052 163.937 185.993 164.077 185.901C164.216 185.81 164.334 185.687 164.419 185.544C164.579 185.263 164.674 184.951 164.699 184.629C164.723 184.307 164.676 183.984 164.561 183.682C164.447 183.173 163.866 182.871 163.698 182.949L163.121 182.296L162.875 182.022C162.61 181.752 162.527 181.195 163.147 180.748C163.418 180.608 163.717 180.532 164.022 180.524C164.327 180.517 164.629 180.579 164.906 180.706C165.41 180.908 165.848 181.244 166.171 181.679C166.698 182.395 167.008 183.246 167.066 184.133C167.151 184.858 167.037 185.592 166.735 186.257C166.434 186.922 165.957 187.492 165.356 187.906L165.26 188.03Z" fill="#F9AF8C"/>
<path d="M213.984 25.1045C214.549 24.4767 215.34 24.0972 216.183 24.0482C217.027 23.9991 217.856 24.2845 218.49 24.8425C223.992 30.6301 206.773 31.9718 213.984 25.1045Z" stroke="#F9AF8C" stroke-width="1.2" stroke-miterlimit="10"/>
<path d="M42.0998 121.827C42.5093 121.086 43.1932 120.536 44.0046 120.294C44.8159 120.052 45.6898 120.138 46.4382 120.534C53.1027 124.891 36.6523 130.153 42.0998 121.827Z" stroke="#F9AF8C" stroke-width="1.2" stroke-miterlimit="10"/>
<path d="M228.98 40.665C229.546 40.0373 230.336 39.6578 231.179 39.6087C232.023 39.5597 232.852 39.8451 233.486 40.403C238.984 46.171 221.778 47.5715 228.98 40.665Z" fill="#F9AF8C"/>
</g>
<defs>
<clipPath id="clip0_54_4404">
<rect width="256.903" height="256.903" fill="white" transform="translate(0 55.7726) rotate(-12.5385)"/>
</clipPath>
</defs>
</svg>
