<svg width="96" height="96" viewBox="0 0 96 96" fill="none" xmlns="http://www.w3.org/2000/svg">
<path d="M69.8904 31.18L55.5304 42.86C53.1504 44.86 50.7904 46.76 48.4704 48.74C47.3104 49.74 46.1604 50.74 45.0304 51.74L44.5204 52.18L44.1004 52.55C43.8901 52.7378 43.7022 52.9492 43.5404 53.18C43.4704 53.29 43.3904 53.44 43.4704 53.55C43.5504 53.66 43.7304 53.61 43.8504 53.62C44.4104 53.62 44.9204 53.53 45.4604 53.53L53.0804 52.91C55.7304 52.71 58.4004 52.49 61.0804 52.39C62.4204 52.39 63.7704 52.33 65.0804 52.32H67.0804H68.0804C68.5579 52.3189 69.0352 52.3423 69.5104 52.39L70.3004 52.48C70.5504 52.48 70.7704 52.61 71.0104 52.67C71.4825 52.7879 71.9646 52.8616 72.4504 52.89C73.3525 52.9917 74.2475 53.1487 75.1304 53.36C75.8714 53.539 76.5822 53.8253 77.2404 54.21C77.8525 54.5549 78.363 55.0551 78.7204 55.66C78.7204 55.74 78.7904 55.84 78.8304 55.93C78.8704 56.02 78.8304 56.13 78.8304 56.22C78.8554 56.3958 78.8554 56.5742 78.8304 56.75C78.7693 57.047 78.6649 57.3334 78.5204 57.6C78.2185 58.1839 77.8271 58.7171 77.3604 59.18C75.9719 60.4568 74.4097 61.5308 72.7204 62.37L71.3604 63.11L70.2904 63.67L68.5204 64.57L65.1704 66.4C62.0604 68 59.0004 69.65 56.0004 71.44C55.2604 71.89 54.5304 72.35 53.8204 72.82L52.8204 73.54L52.3504 73.87L52.0704 74.08C51.4069 74.539 50.8396 75.1233 50.4004 75.8C50.3457 75.9076 50.3053 76.0219 50.2804 76.14C50.2804 76.28 50.3904 76.38 50.5104 76.42C50.7619 76.4866 51.0203 76.5235 51.2804 76.53C51.8104 76.53 52.2804 76.53 52.7904 76.53H53.8704H55.5504C56.6804 76.53 57.8204 76.53 58.9704 76.53C61.3138 76.5183 63.6544 76.6922 65.9704 77.05C68.4564 77.3298 70.8253 78.2574 72.8404 79.74C74.1304 80.83 74.2604 81.74 73.9604 81.85C73.6604 81.96 72.8604 81.66 71.7004 81.47C69.3604 81.05 65.5204 81.38 60.5504 81.38C58.4804 81.38 56.3804 81.45 54.2204 81.53L51.8004 81.61C50.7204 81.61 49.6204 81.61 48.6004 81.61C47.6968 81.5837 46.8041 81.4045 45.9604 81.08C45.3701 80.8404 44.8455 80.4633 44.4304 79.98C44.2276 79.7466 44.0561 79.4878 43.9204 79.21C43.7702 78.8922 43.6626 78.5559 43.6004 78.21C43.4869 77.535 43.5667 76.8416 43.8304 76.21C44.4814 74.4899 45.5749 72.9721 47.0004 71.81C47.7804 71.13 48.6804 70.47 49.4504 69.92L50.2204 69.39L50.9504 68.92C51.9504 68.31 52.8804 67.73 53.8404 67.17C57.6704 65 61.5904 63 65.4604 61.09C66.4604 60.61 67.3704 60.09 68.3204 59.61C68.9804 59.26 68.7804 59.38 68.9204 59.32L69.1704 59.23C69.3404 59.16 69.5404 59.08 69.7704 58.96C69.8921 58.9026 70.0091 58.8357 70.1204 58.76C70.2304 58.68 70.3604 58.56 70.3304 58.44C70.2868 58.3551 70.2261 58.2801 70.1521 58.2199C70.0781 58.1597 69.9924 58.1154 69.9004 58.09C69.5789 57.9704 69.2423 57.8964 68.9004 57.87H68.6104H67.8104L65.8104 57.94C63.0804 58.08 60.3004 58.34 57.5004 58.53C54.7004 58.72 51.8804 59.02 49.0504 59.28L43.9204 59.73C42.7882 59.8543 41.6482 59.8911 40.5104 59.84C39.506 59.8915 38.499 59.8244 37.5104 59.64C36.7641 59.4822 36.0548 59.1835 35.4204 58.76C35.2808 58.6655 35.1503 58.5584 35.0304 58.44C34.9442 58.3726 34.8784 58.2826 34.8404 58.18C34.8328 58.1573 34.8328 58.1327 34.8404 58.11C34.8404 58.11 34.9804 58.03 34.9104 58.11L34.8004 57.97C34.6279 57.5915 34.5622 57.1731 34.6104 56.76C34.6955 55.9717 34.9333 55.2075 35.3104 54.51C35.8266 53.5584 36.4728 52.6833 37.2304 51.91C38.0504 51.01 38.9804 50.13 39.8904 49.26L41.2504 47.98L42.1304 47.19C43.317 46.0633 44.5037 45 45.6904 44C50.4504 39.94 55.2704 36 60.0604 32.07C63.0104 29.65 65.9604 27.22 68.8704 24.77C70.2904 23.53 71.727 22.2733 73.1804 21L74.3504 20C74.7104 19.67 75.0804 19.33 75.4404 19L76.1604 18.28C76.3904 18.01 76.6504 17.73 76.8604 17.43C76.9697 17.2745 77.0603 17.1067 77.1304 16.93C77.2104 16.72 76.9604 16.63 76.8104 16.59C76.1072 16.4901 75.3935 16.4901 74.6904 16.59C73.9704 16.66 73.2404 16.77 72.5104 16.91L71.3104 17.14L69.3104 17.57C64.0636 18.8025 58.8945 20.3453 53.8304 22.19C45.6653 25.2087 37.8201 29.0308 30.4104 33.6C28.7904 34.6 27.2604 35.66 25.6504 36.68L21.9004 39.08C21.4249 39.3755 20.9342 39.6459 20.4304 39.89C20.0226 40.1147 19.6019 40.315 19.1704 40.49C18.0233 40.9952 16.7925 41.2834 15.5404 41.34C15.1087 41.3871 14.6745 41.4071 14.2404 41.4C13.7004 41.31 13.8804 40.66 14.5904 39.4C15.6814 37.56 17.0472 35.8974 18.6404 34.47C20.2004 33.15 21.8304 31.88 23.5004 30.67C25.1704 29.46 26.9204 28.34 28.7004 27.25C32.2923 25.0833 35.9976 23.1105 39.8004 21.34C47.5376 17.737 55.5663 14.7964 63.8004 12.55C65.5004 12.09 67.2104 11.66 68.9504 11.26L70.2804 10.96C71.1204 10.8 71.9604 10.61 72.7904 10.46C74.4604 10.14 76.1104 9.89998 77.6904 9.73998C79.0672 9.57118 80.4611 9.59811 81.8304 9.81998C82.7462 9.99816 83.6025 10.404 84.3204 11C84.6284 11.2664 84.9037 11.5686 85.1404 11.9C85.2873 12.1235 85.4176 12.3574 85.5304 12.6C85.959 13.5083 86.0546 14.5383 85.8004 15.51C85.5816 16.412 85.18 17.2595 84.6204 18C83.8634 19.0327 83.0204 19.9995 82.1004 20.89C81.1004 21.89 80.1004 22.83 79.0204 23.78L77.3604 25.11C77.3604 25.11 77.2604 25.11 77.2504 25.11L77.1804 25.17L77.0804 25.26L76.8804 25.44L76.4804 25.79C74.3404 27.67 72.1904 29.49 70.0404 31.3L69.8904 31.18Z" fill="#F9AF8C"/>
</svg>
