<svg width="197" height="179" viewBox="0 0 197 179" fill="none" xmlns="http://www.w3.org/2000/svg">
<path d="M133.875 110.999C131.2 110.425 128.861 109.004 127.309 107.008C126.99 106.635 126.48 106.113 126.289 105.871L125.588 105.051C125.099 104.491 124.716 104.062 124.249 103.578C123.781 103.093 122.698 102.384 121.996 101.713L121.656 101.433L121.401 101.191C121.299 101.082 121.185 100.982 121.061 100.893C120.787 100.645 120.43 100.481 120.041 100.426C119.149 100.426 118.958 101.265 118.788 102.049C118.788 102.142 118.788 102.664 118.788 102.981C118.788 103.298 118.788 103.727 118.788 104.1C118.791 104.831 118.862 105.56 119 106.281C119.306 107.967 119.886 109.606 120.721 111.148C121.019 111.614 120.721 112.099 119.68 112.304C118.909 112.425 118.116 112.373 117.373 112.155C116.631 111.937 115.963 111.558 115.43 111.054C114.906 110.538 114.423 109.989 113.985 109.414C113.639 108.824 113.381 108.197 113.22 107.549C112.897 106.399 112.698 105.226 112.625 104.044L112.498 102.272C112.468 101.32 112.51 100.367 112.625 99.4195C112.781 98.585 113.124 97.786 113.635 97.0689C114.145 96.3519 114.813 95.7312 115.6 95.2428C116.566 94.7629 117.648 94.4922 118.757 94.4533C119.866 94.4144 120.969 94.6084 121.975 95.0191C123.053 95.4119 124.079 95.9058 125.035 96.4921C125.789 96.91 126.5 97.3841 127.16 97.9092C128.442 98.9441 129.629 100.066 130.709 101.265C131.984 102.608 132.005 102.813 132.579 103.372C132.866 103.73 133.287 103.987 133.769 104.1C134.013 104.105 134.253 104.048 134.461 103.936C134.669 103.823 134.834 103.66 134.938 103.466C135.152 103.192 135.33 102.898 135.469 102.589C135.565 102.42 135.651 102.245 135.724 102.067L136.064 101.303L137.721 97.5735C138.515 95.4144 139.561 93.3336 140.845 91.3645C141.16 90.9001 141.516 90.4575 141.908 90.0406C142.158 89.7384 142.475 89.4835 142.84 89.2913C143.205 89.099 143.611 88.9734 144.033 88.9219C144.806 89.0671 145.501 89.4346 146.009 89.966C146.286 90.1829 146.542 90.4199 146.774 90.6746C147.106 91.1131 147.296 91.6219 147.326 92.1476C147.528 92.693 147.528 93.2803 147.326 93.8257C145.839 96.5777 144.52 99.3972 143.374 102.272L142.375 104.417C142.147 105.056 141.863 105.68 141.525 106.281C141.26 106.888 140.91 107.465 140.484 107.997C140.114 108.515 139.671 108.991 139.166 109.414L138.444 110.01L137.615 110.458C136.46 111.029 135.13 111.271 133.811 111.148L133.875 110.999Z" fill="#F9AF8C"/>
<path d="M105.527 133.523C98.1895 125.854 91.5463 117.693 85.6582 109.115C79.4355 100.211 75.3164 90.3005 73.5457 79.9719C72.2074 72.155 73.016 64.1706 75.9045 56.6833C78.7648 50.0031 83.6512 44.1359 90.0357 39.7155C96.3837 35.4337 103.916 32.7115 111.859 31.8284C119.557 30.9415 127.381 31.475 134.831 33.3946C142.324 35.3513 149.126 38.9514 154.593 43.8549C159.242 48.1781 163.015 53.1661 165.749 58.6038C168.389 63.854 170.412 69.3269 171.784 74.9375C172.665 78.5442 173.248 82.2022 173.527 85.8826C173.863 89.4732 173.976 93.0772 173.867 96.6786C173.757 103.819 173.175 110.947 172.124 118.028C171.444 122.41 169.999 121.757 168.427 117.916C166.32 111.863 165.12 105.595 164.857 99.2703C164.708 95.7276 164.389 92.2036 164.134 88.7541C163.906 85.3845 163.459 82.029 162.796 78.704C161.374 72.1521 158.951 65.7987 155.592 59.8158C153.917 56.9972 151.908 54.3411 149.599 51.8913C147.313 49.5616 144.675 47.5166 141.758 45.8127C138.742 44.1695 135.51 42.8547 132.132 41.8971C128.547 40.9559 124.856 40.3619 121.124 40.1258C112.202 39.4118 103.308 41.7349 96.2832 46.6145C89.373 51.7307 84.9244 58.9513 83.8307 66.8266C83.1849 71.2638 83.2636 75.7592 84.0645 80.177C84.9348 84.6869 86.3598 89.1006 88.3145 93.341C92.6736 101.992 98.2412 110.134 104.889 117.581C108.374 121.645 112.008 125.636 115.748 129.607L126.246 140.664C126.586 141 126.862 141.373 127.223 141.671C127.584 141.969 128.201 141.559 128.647 141.41C129.093 141.261 129.816 140.832 130.389 140.515L133.534 138.65C135.659 137.382 137.912 136.096 140.186 134.921C141.312 134.306 142.481 133.691 143.649 133.057L145.519 132.162C146.242 131.826 146.858 131.528 147.772 131.155C150.938 129.772 154.295 128.757 157.759 128.134C160.678 127.631 163.681 127.631 166.599 128.134C169.362 128.57 171.923 129.697 173.973 131.378C174.485 131.809 174.866 132.345 175.081 132.938C175.296 133.53 175.339 134.161 175.206 134.772C174.897 135.76 174.346 136.676 173.591 137.457C171.904 139.314 169.913 140.941 167.683 142.286C165.558 143.591 163.072 144.897 160.607 146.202L157.016 148.066L155.656 148.85L154.487 149.558C152.976 150.465 151.554 151.482 150.237 152.597C149.138 153.464 148.262 154.525 147.666 155.711L147.538 156.047L144.478 155.171C144.455 155.161 144.43 155.156 144.404 155.156C144.378 155.156 144.353 155.161 144.329 155.171C144.329 155.171 144.329 155.171 144.329 155.04L144.499 154.742C144.585 154.545 144.628 154.337 144.627 154.126C144.748 153.511 144.805 152.887 144.797 152.262H145.243C145.987 152.15 146.901 151.945 147.793 151.74L153.424 150.36C158.758 149.092 165.941 147.339 170.552 147.675C171.821 147.734 173.077 147.928 174.292 148.253C175.435 148.608 176.479 149.174 177.352 149.912C177.685 150.387 177.936 150.902 178.096 151.441C178.179 151.873 178.179 152.315 178.096 152.747C177.913 153.906 177.503 155.029 176.884 156.066C176.142 157.306 175.213 158.454 174.122 159.478C171.796 161.468 169.295 163.295 166.642 164.941L165.218 165.873C164.878 166.114 164.524 166.338 164.156 166.545C163.667 166.787 163.221 166.992 162.796 167.16C162.004 167.463 161.187 167.713 160.352 167.906C159.588 168.157 158.871 168.509 158.227 168.95C157.717 169.248 157.228 169.23 156.846 168.558C156.421 167.515 156.421 166.375 156.846 165.333C157.1 164.618 157.428 163.926 157.823 163.263C158.025 162.891 158.252 162.53 158.503 162.181L158.694 161.902C158.694 161.902 158.694 161.902 158.694 161.771V161.547C158.926 161.035 159.21 160.541 159.544 160.074C159.753 159.804 159.931 159.517 160.076 159.217C160.098 159.099 160.098 158.98 160.076 158.862C160.085 158.82 160.084 158.777 160.072 158.735C160.061 158.694 160.039 158.655 160.009 158.621C159.978 158.588 159.94 158.56 159.897 158.541C159.853 158.521 159.806 158.51 159.757 158.508C158.944 158.496 158.14 158.663 157.419 158.993L156.654 159.291L156.357 159.44H156.229L155.911 159.552L151.321 160.634C149.498 161.07 147.645 161.407 145.774 161.641H144.627H143.692C143.196 161.618 142.705 161.549 142.226 161.436C141.819 161.352 141.421 161.24 141.036 161.1L140.419 160.858C139.909 160.606 139.432 160.306 138.996 159.963C138.101 159.278 137.418 158.406 137.01 157.429C136.601 156.451 136.48 155.398 136.658 154.369C136.658 154.126 136.658 153.865 136.786 153.642C136.913 153.418 136.977 153.082 136.956 153.157V153.045V152.821L137.168 152.355C137.401 151.777 137.7 151.221 138.061 150.696C138.351 150.191 138.693 149.711 139.081 149.26C140.337 147.697 141.815 146.281 143.479 145.046C144.967 143.927 146.433 142.939 147.899 142.025L150.024 140.832L150.641 140.459L150.088 140.72L149.196 141.149C148.431 141.522 147.666 141.932 146.901 142.324C143.841 143.964 140.802 145.792 137.508 147.712L136.254 148.439L135.213 149.036L134.002 149.689C132.456 150.552 130.793 151.241 129.051 151.74C127.43 152.131 125.72 152.131 124.099 151.74C123.705 151.658 123.34 151.491 123.037 151.255L122.017 150.64L119.892 149.409L104.804 133.746L105.527 133.523Z" fill="#F9AF8C"/>
<path d="M125.078 91.0103C126.924 92.0608 128.609 93.314 130.093 94.7395L131.006 95.6158V95.7836L131.24 96.1566L131.835 97.1075C131.941 97.238 132.09 97.6296 132.26 97.4804C132.363 97.3762 132.442 97.256 132.494 97.1262C132.685 96.6973 132.621 96.0447 132.876 95.5972C132.876 95.5972 132.876 95.5972 132.876 95.3921L133.11 94.6463L133.663 93.0054L134.003 92.0918L134.555 90.9357C134.951 90.1318 135.435 89.3637 136 88.6423C136.931 87.3226 138.263 86.257 139.846 85.5657C141.416 84.9117 143.192 84.7473 144.883 85.0996C146.595 85.4358 148.19 86.1263 149.536 87.1133C150.212 87.6188 150.857 88.154 151.47 88.7169C151.98 89.2949 152.384 89.9102 152.83 90.5815C154.116 92.6689 154.897 94.9668 155.125 97.3313C155.274 98.3195 155.274 99.1958 155.38 100.203C155.486 101.21 155.38 102.067 155.38 103C155.404 104.798 155.318 106.597 155.125 108.388C154.87 110.663 154.551 112.901 154.148 115.101C153.935 116.201 153.298 117.245 153.064 118.326C152.83 119.408 152.533 120.489 152.32 121.571C152.108 122.652 151.343 122.746 150.535 121.571C150.018 120.768 149.605 119.918 149.303 119.035C149.069 118.494 148.984 117.935 148.75 117.32C148.454 116.712 148.198 116.089 147.985 115.455C147.688 113.124 147.751 110.905 147.581 108.705L147.348 105.479C147.348 104.435 147.348 103.391 147.178 102.384C147.073 100.548 146.731 98.7272 146.158 96.9583C146.061 96.5853 145.919 96.2227 145.733 95.8769C145.584 95.6158 145.414 95.1497 145.329 95.0378C145.074 94.5903 145.031 94.3479 144.861 94.0496C144.754 93.8557 144.593 93.6889 144.392 93.5649C144.191 93.4409 143.958 93.3639 143.714 93.341C143.472 93.3786 143.245 93.468 143.052 93.6014C142.859 93.7348 142.707 93.908 142.609 94.1055C142.488 94.3084 142.388 94.5206 142.311 94.7395C142.163 95.0938 141.929 95.6904 141.738 96.2871L141.419 97.2567L140.951 98.9348L140.123 102.31C139.763 104.27 138.898 106.132 137.594 107.754C137.347 108.02 137.077 108.27 136.786 108.5C136.468 108.767 136.082 108.965 135.66 109.078C135.299 109.134 134.926 109.068 134.619 108.892C134.321 108.743 134.088 108.687 133.726 108.481L132.685 107.922L131.453 107.083L131.134 106.878L130.794 106.486L130.135 105.703L128.818 104.156L127.5 102.552L126.14 101.172C125.906 100.949 125.694 100.706 125.439 100.501L124.993 100.072C124.695 99.8298 124.44 99.5501 124.143 99.3264C123.044 98.3633 121.773 97.5635 120.381 96.9583C119.889 96.7611 119.338 96.7087 118.809 96.8092C118.287 96.9624 117.828 97.2479 117.491 97.6296C116.957 98.2753 116.721 99.075 116.833 99.8671C116.937 101.077 117.252 102.265 117.768 103.391C118.899 105.909 120.391 108.29 122.209 110.477C125.185 113.855 128.523 116.977 132.175 119.799C132.961 120.452 133.79 121.03 134.555 121.664C137.445 124.107 137.998 125.132 137.254 126.978C137.117 127.402 136.953 127.819 136.765 128.227C136.021 129.495 133.833 129.327 131.283 127.705C123.389 122.581 116.754 116.113 111.775 108.687C110.717 107.063 109.862 105.344 109.225 103.559C108.883 102.51 108.641 101.437 108.503 100.352C108.447 99.638 108.447 98.9215 108.503 98.2076C108.572 97.4529 108.743 96.7081 109.013 95.9888C109.129 95.627 109.271 95.272 109.438 94.9259L110.054 93.9377C110.462 93.27 110.953 92.6446 111.52 92.0731C112.115 91.5883 112.753 91.1035 113.411 90.656C114.09 90.2686 114.8 89.9258 115.536 89.6305C117.143 89.2134 118.832 89.1008 120.491 89.3001C122.151 89.4994 123.743 90.0061 125.163 90.7866L125.078 91.0103Z" fill="#F9AF8C"/>
<path d="M66.3008 46.0924C66.9596 46.0924 66.7683 46.8942 66.0458 48.1435C65.6761 48.7165 65.1858 49.2226 64.6008 49.6351C64.1737 49.7853 63.733 49.9038 63.2833 49.9894C63.0708 49.9894 60.5421 49.2622 59.6071 49.0944C58.768 48.8991 57.9711 48.5841 57.2483 48.1621C55.7608 47.379 54.2096 46.6518 52.6796 45.8873C52.3324 45.7194 52.0343 45.4832 51.8083 45.1974C50.9615 44.2493 49.8485 43.5104 48.5783 43.0532C48.475 42.9813 48.3527 42.9334 48.2228 42.9138C48.0928 42.8943 47.9593 42.9037 47.8346 42.9413C46.3311 42.6432 44.945 41.9997 43.8183 41.0767C43.2233 39.9766 42.4796 39.0629 41.7996 38.0561C41.6933 37.9256 41.5021 37.9069 41.5658 37.5713C41.7358 36.8254 41.3746 36.7136 41.1196 36.4525C40.7318 36.0542 40.4747 35.5708 40.3758 35.0541C40.32 34.7078 40.32 34.3563 40.3758 34.0099C40.3758 33.6929 40.9921 33.1709 41.1196 33.1336C41.2471 33.0963 41.5871 32.6674 41.7996 32.4064C41.8653 32.3058 41.9437 32.2119 42.0333 32.1267C42.0333 32.1267 43.0533 32.0148 44.1583 31.847C44.8627 31.7543 45.579 31.7543 46.2833 31.847L46.9421 32.0894L48.3658 32.5742L50.8096 33.3387C51.0433 33.3387 51.1283 33.6743 51.2771 33.8981C51.4258 34.1218 54.4221 35.2406 54.5283 35.3338C55.0383 35.7626 55.7821 35.9118 55.9521 36.7882C55.9521 36.956 56.1221 36.9933 56.2496 37.0678C57.186 37.678 58.0414 38.3785 58.7996 39.1562C59.2458 39.5291 59.8196 39.7901 60.3083 40.1258C60.3083 40.1258 60.4358 40.3122 60.4996 40.4054C60.5633 40.4987 60.6483 40.6665 60.7758 40.7224C61.9056 41.5794 63.0981 42.3704 64.3458 43.0904C64.6646 43.2396 65.5358 44.6753 65.8971 44.8245C66.2583 44.9737 66.0458 46.1111 66.3008 46.0924Z" fill="#F9AF8C"/>
<path d="M81.7071 32.4996C82.1959 32.8726 81.3884 33.3014 79.8584 33.6743C79.1604 33.8041 78.4452 33.848 77.7334 33.8049C77.2871 33.6184 76.8621 33.4506 76.5434 33.2828C76.2246 33.115 75.2471 31.4182 74.7371 30.7656C74.298 30.1995 73.9811 29.5675 73.8021 28.901C73.3771 27.6144 72.8459 26.3465 72.3359 25.0227C72.2606 24.7154 72.2606 24.3976 72.3359 24.0904C72.4753 23 72.2463 21.8976 71.6771 20.9206C71.6771 20.7528 71.6771 20.5663 71.2309 20.4544C70.3801 19.434 69.8989 18.2126 69.8496 16.949C70.2746 15.8489 70.4871 14.7861 70.8059 13.7233C70.8059 13.5741 70.8059 13.4436 71.0184 13.2571C71.2374 13.1784 71.4176 13.034 71.5265 12.8496C71.6355 12.6651 71.6663 12.4527 71.6134 12.2503C71.6595 11.7621 71.8499 11.2929 72.1659 10.8891C72.4108 10.6319 72.6889 10.4004 72.9946 10.1992C73.3815 10.049 73.8106 10.0036 74.2271 10.0687C74.5459 10.2365 74.9496 10.0687 75.3109 10.0687H75.6934C75.6934 10.0687 76.5009 10.5721 77.3509 11.0383C77.8778 11.3421 78.3504 11.7129 78.7534 12.1384C78.7534 12.1384 78.8596 12.3435 79.0084 12.6418L79.6246 13.7046C80.0709 14.4878 80.6446 15.2709 80.7296 15.4574C80.8146 15.6438 80.7296 15.8489 80.7296 16.054C80.7296 16.2591 81.9196 18.6085 81.9409 18.7204C81.9409 19.2797 82.3871 19.7645 81.8346 20.4544C81.803 20.506 81.7864 20.5637 81.7864 20.6222C81.7864 20.6808 81.803 20.7385 81.8346 20.7901C82.0956 21.7549 82.217 22.7447 82.1959 23.7361C82.2693 24.2321 82.3757 24.724 82.5146 25.2091C82.5349 25.3078 82.5349 25.4088 82.5146 25.5075C82.4745 25.6293 82.4745 25.7586 82.5146 25.8804C82.6704 27.0956 82.8974 28.3029 83.1946 29.4977C83.3009 29.7774 82.7484 31.2317 82.8971 31.5487C83.0459 31.8657 81.5371 32.3691 81.7071 32.4996Z" fill="#F9AF8C"/>
<path d="M62.2837 64.9994C62.9212 64.701 63.3037 65.5028 63.4525 66.864C63.4465 67.5017 63.3097 68.1333 63.0487 68.7285C62.7087 69.0642 62.39 69.3998 62.0925 69.6422C60.8448 69.985 59.6178 70.3833 58.4162 70.8355C57.6055 71.1575 56.747 71.3772 55.8662 71.4881C54.1237 71.8051 52.3812 72.234 50.575 72.6628C50.1613 72.7372 49.7348 72.7372 49.3212 72.6628C47.8977 72.4342 46.4303 72.5436 45.0712 72.9798C44.8162 72.9798 44.5612 72.9798 44.3912 73.3527C42.8974 74.0513 41.2384 74.4343 39.5462 74.4715C38.1012 74.0799 36.6775 73.8934 35.2962 73.6137C35.105 73.6137 34.9137 73.6138 34.68 73.39C34.17 72.7001 33.7662 72.8679 33.3412 72.8306C32.7078 72.7306 32.0929 72.5549 31.5137 72.3085C31.169 72.1007 30.8611 71.8494 30.6 71.5627C30.3237 71.3203 30.4087 70.4626 30.4725 70.3507C30.5362 70.2389 30.4725 69.6422 30.4725 69.2879C30.4725 68.9336 30.4725 69.0082 30.4725 68.8964C30.9267 68.4089 31.409 67.9422 31.9175 67.4979C32.3599 66.9692 32.9069 66.5145 33.5325 66.1554L34.255 65.9317L35.785 65.4096L38.25 64.4959C38.4837 64.3841 38.8025 64.4959 39.0787 64.4959C39.355 64.4959 42.7337 63.3212 42.9037 63.3212C43.69 63.3212 44.4125 62.8924 45.3262 63.4145C45.4962 63.5264 45.645 63.4145 45.815 63.4145C47.2093 63.1433 48.6437 63.0678 50.065 63.1907C50.7875 63.1907 51.4887 63.0975 52.19 63.0789C52.3175 63.0789 52.4662 63.0789 52.5937 63.1907C52.7596 63.2412 52.9303 63.2786 53.1037 63.3026C54.8462 63.1721 56.5887 63.4704 58.3525 63.3026C58.7775 63.3026 60.7112 64.0484 61.1787 64.0298C61.6462 64.0111 62.05 65.1113 62.2837 64.9994Z" fill="#F9AF8C"/>
</svg>
