<svg width="164" height="164" viewBox="0 0 164 164" fill="none" xmlns="http://www.w3.org/2000/svg">
<path d="M85.6736 92.9333C68.7953 92.9333 19.7832 59.5524 19.7832 59.5524C19.7832 59.5524 21.6453 50.7887 22.2432 52.3433C22.6532 53.4195 84.2899 82.9224 84.2899 82.9224L85.6736 92.9333Z" fill="#F9AF8C"/>
<path d="M131.797 120.386C138.374 107.078 138.374 68.8457 131.797 58.0832L145.036 50.9595L144.729 109.043L131.797 120.386Z" fill="#F9AF8C"/>
<path d="M25.7103 101.902L25.6248 106.839V109.333C25.5808 109.485 25.5465 109.639 25.5223 109.795C25.4198 110.136 25.7444 110.324 25.9494 110.58C27.1282 111.4 28.5632 112.289 29.9469 113.16C31.9969 114.424 34.2178 115.398 36.3019 116.577L47.4232 123.41L52.9923 126.827L58.5273 130.243C61.8073 132.293 65.224 134.138 68.5894 135.966C70.759 137.162 72.9628 138.272 75.0811 139.554C77.1696 140.931 79.1358 142.486 80.9578 144.2C82.1023 145.294 81.3336 146.131 79.5228 146.643C77.0834 147.3 74.5138 147.3 72.0744 146.643C67.5303 144.645 63.0544 142.543 58.5957 140.374C54.07 138.235 49.6976 135.787 45.5098 133.045C40.4703 129.628 34.6107 127.373 29.1269 124.503L24.5998 122.009L22.3448 120.694L19.7482 119.088C18.6092 118.393 17.5642 117.555 16.639 116.594C16.1436 116.15 16.024 115.449 15.614 114.971C15.4773 114.339 15.2553 113.724 15.1698 113.075L14.9648 111.042V110.068V109.333V106.72C14.9648 102.466 14.9648 98.1778 14.9648 94.0266C14.9648 87.6545 15.3919 81.2483 15.4603 74.9103C15.4603 69.9733 14.9819 65.0703 14.999 60.0137C14.9707 58.8726 15.0221 57.7309 15.1528 56.597C15.2864 55.7105 15.4921 54.8364 15.7678 53.9833C16.0264 53.3362 16.4228 52.7533 16.9294 52.2749C17.8459 51.5657 18.9832 51.2027 20.1411 51.2499C20.7554 51.2084 21.3718 51.2084 21.9861 51.2499C23.9165 51.4378 25.2661 53.4024 26.0348 56.187L26.3936 59.2791C26.563 60.3183 26.6487 61.3695 26.6498 62.4224C26.7523 64.5408 26.7353 66.6591 26.7523 68.8458C26.7523 73.1508 26.6328 77.6095 26.479 82.0512C26.2911 88.6624 25.9836 95.3762 25.9836 102.022L25.7103 101.902Z" fill="#F9AF8C"/>
<path d="M90.0979 106.532C89.7733 109.385 89.5342 112.272 89.4317 115.193C89.4317 116.252 89.6538 117.294 89.5683 118.37C89.1583 122.163 88.8338 125.99 88.8338 129.833C88.7826 130.681 88.7826 131.531 88.8338 132.379V134.924C89.1056 137.161 88.9783 139.428 88.4579 141.621C88.2358 142.338 87.2792 142.219 86.1687 141.621C84.9101 141.131 83.8557 140.227 83.1792 139.058C82.8033 138.05 82.3933 136.974 82.0346 135.932C81.6259 134.89 81.3282 133.808 81.1463 132.703C80.9239 130.471 80.9239 128.222 81.1463 125.99C81.4196 123.256 80.6167 120.506 80.5312 117.738C80.5312 114.68 80.6508 111.605 80.8046 108.547L81.2146 102.876C81.3854 100.023 81.9321 97.1699 82.2054 94.3341C82.3247 93.1994 82.3646 92.0577 82.325 90.9174C82.325 89.807 82.325 88.6454 82.5471 87.5008C82.5879 86.9986 82.6971 86.5043 82.8717 86.0316C83.555 84.2379 84.3067 83.8449 86.0663 84.0328C86.4675 84.0511 86.8671 84.0968 87.2621 84.1695C87.8859 84.3271 88.4526 84.6576 88.8969 85.123C89.3411 85.5885 89.6449 86.1699 89.7733 86.8004C89.9783 87.757 90.1833 88.6795 90.4567 89.6533C90.73 90.627 90.6104 91.4812 90.6446 92.3866C90.7983 94.2658 90.73 96.0766 90.7812 97.9558C90.8667 100.723 90.3371 103.559 90.2858 106.497L90.0979 106.532Z" fill="#F9AF8C"/>
<path d="M151.853 94.693L151.102 101.8L150.657 105.421L150.333 107.335C150.333 107.608 150.23 108.052 150.128 108.599C150.025 109.145 149.906 109.607 149.786 110.119L149.598 110.683L149.496 110.973C149.308 110.973 149.376 111.144 149.291 111.23C149.124 111.597 148.93 111.951 148.71 112.289C148.512 112.645 148.251 112.964 147.941 113.228C147.668 113.536 147.377 113.827 147.07 114.1L146.13 114.885L145.669 115.261L145.345 115.483C144.935 115.774 144.507 116.098 144.097 116.372C141.996 117.79 140.1 119.276 138.016 120.523C130.721 124.828 123.358 128.808 116.166 133.079C114.56 134.019 113.006 135.01 111.451 136.035L106.805 139.007L100.945 142.936L95.1366 146.678C94.0775 147.412 93.4283 146.678 93.565 144.969C93.9757 142.606 95.1451 140.441 96.8962 138.802C100.495 135.474 104.276 132.349 108.222 129.44C112.254 126.724 116.388 124.162 120.642 121.804C125.693 118.747 130.569 115.411 135.248 111.81C136.564 110.871 137.862 109.914 139.075 108.975L139.946 108.291L140.339 108.018C140.578 107.813 140.869 107.608 140.92 107.283C140.966 107.127 141 106.967 141.022 106.805L141.142 105.763C141.142 105.045 141.279 104.26 141.313 103.474C141.432 101.936 141.501 100.33 141.569 98.7417C141.723 94.7613 141.86 90.7638 141.894 86.7834C142.065 80.7017 142.423 74.5688 142.27 68.5213C142.133 63.8063 141.467 59.1938 141.142 54.5472C141.057 53.5222 140.903 52.5142 140.886 51.4722C140.708 50.0771 140.933 48.6603 141.535 47.3892C142.049 46.4997 142.888 45.8443 143.875 45.5613C144.366 45.3518 144.868 45.1693 145.379 45.0147C147.087 44.6559 148.505 46.2105 149.376 48.978C150.333 53.1788 151.069 57.427 151.58 61.7051C152.058 66.0272 152.28 70.4347 152.468 74.8422C152.588 78.1222 152.656 81.4192 152.673 84.7163C152.69 88.0134 152.297 91.3447 152.11 94.6588L151.853 94.693Z" fill="#F9AF8C"/>
<path d="M105.215 24.3608C107.709 25.7104 110.34 27.06 112.869 28.3412C113.825 28.8025 114.867 29.0417 115.824 29.52C119.241 31.2283 122.504 33.0904 125.835 34.9696C127.309 35.7964 128.832 36.5323 130.396 37.1733C131.387 37.6175 132.412 38.0104 133.403 38.5058C134.396 39.0166 135.284 39.7124 136.016 40.5558C136.478 41.1196 135.504 42.5204 134.154 43.7162C132.805 44.9121 131.114 45.9542 130.089 45.5271C126.157 44.1886 122.431 42.3084 119.019 39.9408C116.734 38.6308 114.318 37.5657 111.809 36.7633C109.144 35.6017 106.479 34.3546 103.797 33.0904L98.8773 30.75C96.366 29.5712 93.9231 28.1704 91.3777 27.0429C89.4302 26.1375 87.2264 25.6933 85.1593 24.805C84.6817 24.66 84.2185 24.4713 83.7756 24.2412C82.1868 23.2846 82.0673 22.4475 83.1606 20.3462C83.4168 19.8679 83.656 19.3725 83.9293 18.9283C84.2771 18.2554 84.8081 17.6946 85.4611 17.3107C86.114 16.9268 86.8622 16.7354 87.6193 16.7587C89.4035 17.0448 91.1507 17.526 92.8298 18.1937C93.6689 18.507 94.4902 18.8663 95.2898 19.27C96.1268 19.6458 96.9981 20.0387 97.7668 20.4487C100.244 21.6446 102.704 22.9942 105.301 24.19L105.215 24.3608Z" fill="#F9AF8C"/>
<path d="M35.5335 53.2488C44.9293 58.4763 54.5302 63.4988 64.1652 68.4188C67.6843 70.2126 71.3231 71.8355 74.8422 73.5438L87.1252 79.728C87.2914 79.8239 87.4799 79.8745 87.6718 79.8745C87.8637 79.8745 88.0523 79.8239 88.2185 79.728L88.4918 79.6255C88.7138 79.5484 88.9307 79.4571 89.141 79.3522L90.5589 78.6688C92.4893 77.7122 94.4368 76.6359 96.3672 75.5084C100.245 73.2534 104.123 70.9301 107.967 68.5213C113.092 65.2413 118.217 61.688 123.137 57.998C129.406 53.3001 135.608 48.2434 141.928 44.058C142.902 43.3917 143.432 43.5797 143.996 44.058C144.34 44.4759 144.579 44.9694 144.695 45.4981C144.811 46.0268 144.8 46.5754 144.662 47.0988C143.946 50.9436 141.85 54.3943 138.768 56.8022C132.379 61.9272 125.853 66.6934 119.122 71.2888C112.381 75.9983 105.339 80.2612 98.0414 84.0501C96.3331 84.8701 94.7614 85.7584 92.9164 86.5272L91.3618 87.2276C90.6689 87.5288 89.9552 87.78 89.2264 87.9792C88.5181 88.1938 87.7795 88.2919 87.0397 88.2697C86.6701 88.2652 86.3047 88.1898 85.9635 88.0476L84.9043 87.7059L75.5597 83.4009C72.6727 82.0684 69.7685 80.7017 66.9156 79.3009C57.0983 74.4379 47.3438 69.421 37.6518 64.2505C34.6622 62.6447 31.6897 61.0388 28.7343 59.3988L26.5135 58.1517L24.9589 57.2976L23.3702 56.358L20.3293 54.6667C19.8882 54.4333 19.5079 54.0999 19.2189 53.693L18.2964 52.7022L17.596 51.9505C17.3739 51.6772 17.0835 51.5234 17.0664 51.1134C17.1091 50.3998 17.365 49.7154 17.801 49.1488C18.7193 47.8467 19.8792 46.7332 21.2177 45.8688C22.7488 44.8288 24.3341 43.8707 25.9668 42.9988L29.5202 41.0001L43.1868 34.0472C50.191 30.4426 56.8535 26.5817 63.6868 22.7722C65.156 21.9351 66.5739 21.0638 68.0602 20.2267C73.6293 17.2201 75.4572 16.6222 77.5927 17.4251C78.0902 17.5621 78.5758 17.7393 79.0447 17.9547C80.3772 18.7063 78.7885 21.3713 74.8935 24.1901C63.2085 32.4584 50.1397 39.2917 37.4127 46.2959L33.996 48.2605L30.7502 50.0884C30.7502 50.0884 30.7502 50.0884 30.5622 50.0884C30.3743 50.0884 30.5622 50.1738 30.5622 50.2422H30.6818L31.126 50.4813L32.0143 50.9767L35.5847 52.9072L35.5335 53.2488Z" fill="#F9AF8C"/>
</svg>
