<svg width="150" height="181" viewBox="0 0 150 181" fill="none" xmlns="http://www.w3.org/2000/svg">
<path d="M25.9404 45.25C32.6024 42.1201 39.7272 40.089 47.0382 39.2356C48.9236 38.9716 50.6393 38.8962 52.4493 38.8019C54.239 38.6982 56.0331 38.6982 57.8228 38.8019L63.1397 38.9716C64.912 39.1413 66.6842 39.4052 68.4377 39.6126C69.7198 39.8012 71.0207 39.8955 72.2085 40.1028L75.9794 40.857L79.7502 41.63C81.0134 41.9506 82.2389 42.4031 83.521 42.8178C92.2784 45.6466 100.413 50.1266 107.485 56.0158C114.439 61.845 120.422 68.7439 125.208 76.4537L128.13 81.6763C128.601 82.5436 129.148 83.3732 129.563 84.2782L130.807 86.9743C131.618 88.8597 132.523 90.5566 133.277 92.3855L135.483 98.0417C136.296 100.42 136.97 102.844 137.501 105.301C138.18 107.725 138.684 110.195 139.009 112.691C139.311 115.18 139.688 117.65 139.82 120.233V124.004C139.82 125.267 139.537 126.53 139.405 127.775C138.915 130.905 137.727 130.471 135.634 128.039C134.266 126.554 133.094 124.9 132.146 123.118C131.017 120.907 130.114 118.589 129.45 116.198C128.966 113.91 128.337 111.656 127.564 109.448C126.81 107.261 126.245 105.018 125.377 102.887C124.51 100.757 123.85 98.5885 123.077 96.4202L120.362 90.1607C116.474 81.8947 111.258 74.3218 104.92 67.7431C101.025 63.6854 96.514 60.2684 91.5529 57.6184C90.3085 56.9396 88.9699 56.4306 87.6689 55.8272C86.3853 55.2112 85.07 54.6637 83.7284 54.1869L79.6182 52.7917L77.6008 52.1129L75.508 51.6416L70.9076 50.5481C69.3804 50.2275 67.7966 50.1144 66.2317 49.8693C63.1091 49.4212 59.9593 49.1881 56.8047 49.1717C42.5933 48.6812 28.7036 53.47 17.8142 62.6147C8.54371 70.4239 1.13026 80.2011 -3.8869 91.2353C-7.6845 99.7245 -10.3531 108.675 -11.8245 117.857C-12.145 119.856 -12.5787 121.798 -12.9558 123.797C-14.4641 131.206 -14.9732 133.544 -17.1414 135.109C-17.575 135.467 -17.971 135.976 -18.3103 136.203C-19.1965 136.994 -21.327 133.695 -21.459 127.605C-21.459 125.361 -21.459 123.099 -21.459 120.836C-21.459 119.686 -21.459 118.555 -21.327 117.405C-21.195 116.255 -21.0253 115.142 -20.8745 114.011C-20.1415 109.462 -19.115 104.966 -17.8013 100.549C-15.0882 91.4115 -11.1226 82.6934 -6.01742 74.6437C1.66381 62.0444 12.6779 51.8133 25.8084 45.0803L25.9404 45.25Z" fill="#FAB794"/>
<path d="M35.4049 67.0643C40.4688 64.9407 45.818 63.5748 51.2801 63.0106C52.6187 62.8786 53.9762 62.8221 55.3149 62.7278C56.6535 62.6335 57.9922 62.7278 59.3308 62.7278C62.0002 62.7405 64.6653 62.9421 67.3061 63.3311C71.2151 63.8185 75.063 64.7094 78.7883 65.9896C85.3202 68.3196 91.3526 71.8636 96.5678 76.4348C101.562 81.0451 105.789 86.4234 109.087 92.3666L111.199 96.1562C111.877 97.476 112.405 98.8524 113.084 100.191C114.283 102.867 115.34 105.605 116.252 108.393C116.836 110.184 117.175 112.031 117.628 113.841L118.269 116.575L118.646 119.347C119.287 123.021 119.287 126.778 118.646 130.452C118.175 132.771 117.119 132.469 115.309 130.697C114.151 129.654 113.137 128.462 112.292 127.153C111.839 126.378 111.429 125.579 111.067 124.758C110.644 123.895 110.31 122.992 110.067 122.062C109.351 118.668 108.182 115.463 107.164 112.239C106.485 110.693 106.051 109.09 105.524 107.488C105.296 106.684 104.999 105.902 104.637 105.15L103.695 102.849C101.11 96.7165 97.5861 91.0235 93.2495 85.975C87.5803 79.9684 80.2802 75.7483 72.2459 73.8329L68.9276 73.0787C68.3808 72.9656 67.8152 72.7959 67.2496 72.7205L65.5339 72.5131L62.1024 72.0795H58.6144C53.9881 71.9208 49.3636 72.4416 44.8885 73.6255C39.3501 75.0676 34.1443 77.5712 29.5601 80.9975C22.4701 86.3409 16.7617 93.3035 12.9119 101.303C10.01 107.438 8.00965 113.96 6.97281 120.667C6.76541 122.137 6.4449 123.551 6.14323 125.022C4.99312 130.452 4.52177 132.168 2.6175 133.356C2.22156 133.638 1.88219 133.997 1.59937 134.166C0.807499 134.751 -1.07792 132.281 -1.30417 127.756C-1.41729 126.078 -1.47386 124.381 -1.49271 122.665C-1.54313 120.948 -1.42314 119.23 -1.13448 117.537C0.412032 106.965 4.33807 96.8827 10.3477 88.049C16.5041 78.7798 25.1497 71.4347 35.2918 66.8569L35.4049 67.0643Z" fill="#FAB794"/>
<path d="M44.8707 92.8191C51.2116 90.1174 58.2366 89.4584 64.9693 90.9337C66.1571 91.2542 67.3449 91.4993 68.5327 91.7821C69.7205 92.0649 70.8329 92.5363 71.9453 92.9888C75.7868 94.7719 79.2892 97.2089 82.2963 100.191C85.2335 103.104 87.7183 106.441 89.6682 110.09L90.9315 112.484L91.9307 115.01C92.7415 116.613 93.2505 118.329 93.8161 119.969C94.1744 121.063 94.3441 122.194 94.6269 123.287L94.9851 124.947L95.1736 126.643C95.5669 128.896 95.4182 131.21 94.74 133.393C94.2309 134.788 93.3259 134.543 91.7988 133.393C90.8756 132.8 90.0328 132.09 89.2911 131.282C88.6181 130.419 88.1071 129.442 87.7828 128.397C87.2484 126.537 86.6191 124.706 85.8974 122.91C85.5274 122.039 85.2126 121.144 84.9547 120.233C84.6878 119.343 84.3731 118.468 84.012 117.612C82.5413 114.098 80.6415 110.78 78.3557 107.733C75.3098 104.1 71.3054 101.396 66.7981 99.9271C61.9325 98.0589 56.6159 97.704 51.5451 98.909C48.3924 99.7481 45.4421 101.217 42.8722 103.227C38.7478 106.407 35.4068 110.489 33.1057 115.161C31.4158 118.744 30.2597 122.556 29.6743 126.474C29.5483 127.315 29.3657 128.146 29.1275 128.963C28.887 130.098 28.4938 131.195 27.9585 132.224C27.7715 132.547 27.529 132.834 27.2421 133.073C26.9076 133.303 26.5544 133.505 26.1862 133.676C25.8469 133.827 25.5452 134.053 25.2813 134.147C25.0173 134.242 24.4328 134.147 23.8483 133.374C23.5016 132.999 23.2495 132.547 23.113 132.055C22.9172 131.442 22.7907 130.81 22.7359 130.169C22.5848 129.126 22.4904 128.074 22.4531 127.021V125.437C22.4714 124.912 22.5281 124.389 22.6228 123.872C23.5252 117.441 25.9136 111.308 29.5989 105.96C33.323 100.206 38.535 95.5677 44.6822 92.5363L44.8707 92.8191Z" fill="#FAB794"/>
</svg>
