<svg width="282" height="282" viewBox="0 0 282 282" fill="none" xmlns="http://www.w3.org/2000/svg">
<path d="M230.094 122.758C220.724 162.649 123.375 213.967 97.8481 220.724C97.4658 220.852 97.0583 220.887 96.6597 220.826C96.2611 220.764 95.8829 220.608 95.5569 220.371L85.1875 211.852C85.1875 211.852 164.177 173.312 178.042 159.976C191.907 146.64 229.272 119.762 229.272 119.762L230.094 122.758Z" fill="#F9AF8C"/>
<path d="M82.2504 222.751C75.6001 218.401 69.4525 213.327 63.9204 207.622C58.4648 201.783 53.767 195.279 49.9379 188.264C42.334 174.114 38.7193 158.162 39.4804 142.116C39.6879 136.339 40.3856 130.591 41.566 124.932C42.6863 119.281 44.3792 113.76 46.6185 108.452C54.4873 89.7937 67.5478 73.7867 84.2479 62.3336C92.5592 56.6981 101.669 52.3413 111.273 49.4086C113.711 48.8211 116.09 48.028 118.558 47.6168L125.99 46.2949L133.451 45.7368C135.948 45.5018 138.445 45.7368 140.912 45.7368H144.232L147.522 46.0893C149.695 46.3536 151.899 46.4711 154.072 46.8236C158.395 47.5517 162.672 48.5326 166.88 49.7611C171.061 50.9553 175.17 52.3872 179.188 54.0499C181.215 54.8724 183.124 55.9005 185.063 56.8111C187.082 57.6633 189.045 58.6445 190.938 59.7486C200.839 65.1763 209.645 72.398 216.905 81.0455C224.155 89.8575 229.012 100.389 231.005 111.625C231.005 115.209 230.712 116.766 229.948 116.824C229.184 116.883 227.892 115.444 225.659 113.241L208.034 92.9424C195.296 78.037 178.023 67.7185 158.86 63.5674C149.355 61.2948 139.56 60.4728 129.809 61.1293C124.961 61.5384 120.156 62.354 115.444 63.5674C110.669 64.9217 106.004 66.6403 101.491 68.708C90.5326 74.0812 80.9397 81.876 73.4379 91.503C65.7223 101.34 60.0406 112.614 56.7235 124.667C52.8865 137.782 52.512 151.667 55.6366 164.97C58.9205 178.336 65.8331 190.534 75.6116 200.22C81.7018 206.299 88.6252 211.482 96.1741 215.612C103.719 219.819 111.861 222.85 120.32 224.601C132.982 227.399 146.138 227.036 158.625 223.544C171.168 219.621 182.865 213.384 193.112 205.155C200.713 198.639 207.167 190.894 212.205 182.242C217.048 173.637 220.62 164.376 222.81 154.747L223.544 151.604C223.75 150.547 223.867 149.489 224.044 148.432C224.308 146.317 224.807 144.202 224.954 142.057C226.041 134.038 225.747 128.868 226.394 125.167C226.662 123.562 227.055 121.981 227.569 120.437C228.185 119.086 228.714 118.029 229.243 116.971C229.772 115.914 230.095 114.768 230.477 114.034C231.182 112.947 232.298 113.887 234.619 116.971C236.696 120.051 238.033 123.57 238.525 127.252C238.82 128.883 238.996 130.532 239.054 132.187C239.609 142.392 238.619 152.623 236.117 162.532C233.414 172.696 229.227 182.406 223.691 191.349C220.766 195.832 217.526 200.102 213.997 204.127C212.264 206.183 210.42 208.144 208.475 210.002L202.394 215.348L200.896 216.699L199.251 217.874L195.932 220.312C193.699 221.811 191.584 223.544 189.234 224.807L182.125 228.537C180.95 229.154 179.775 229.83 178.571 230.388L174.84 231.886L169.347 234.119C167.496 234.916 165.592 235.583 163.649 236.116C161.651 236.674 159.654 237.291 157.774 237.761L151.693 238.848C143.613 240.002 135.417 240.101 127.312 239.142C111.317 237.044 95.9539 231.556 82.2504 223.044V222.751Z" fill="#F9AF8C"/>
<path d="M204.156 150.135C187.688 162.981 170.044 174.242 151.458 183.77C144.731 187.207 138.063 190.937 131.336 193.875C119.351 199.456 107.18 204.665 94.8226 209.502C82.3637 214.312 69.6082 218.315 56.6351 221.487C50.8332 223.002 44.9483 224.179 39.0101 225.012C35.9238 225.417 32.8083 225.555 29.6983 225.424C26.3243 225.367 22.9969 224.627 19.9164 223.25C17.6513 222.172 15.7071 220.522 14.2764 218.462C12.9008 216.371 12.0354 213.986 11.7501 211.5C11.4657 209.179 11.565 206.827 12.0439 204.538C12.5436 202.411 13.2929 200.35 14.2764 198.399C17.9984 190.975 24.0857 185.001 31.5783 181.42C33.987 180.333 35.4264 180.656 35.632 181.42C35.8376 182.184 35.162 183.799 34.1926 185.767C33.2233 187.735 31.872 190.115 30.3739 192.935C29.6101 194.286 28.9051 195.872 28.0533 197.253L25.2626 201.777C23.7742 203.906 22.8265 206.366 22.5014 208.944C22.4322 209.935 22.5416 210.93 22.8245 211.882C22.9967 212.503 23.3683 213.05 23.882 213.439C25.9389 214.74 28.3219 215.432 30.7558 215.436C34.103 215.584 37.4567 215.417 40.7726 214.937C44.2683 214.496 47.8226 213.82 51.377 213.027C54.9314 212.234 58.4564 211 61.9814 209.884C69.0314 207.593 76.0814 205.067 83.1314 202.423C100.442 195.887 117.335 188.294 133.715 179.687C142.88 175.134 151.869 170.551 160.535 165.352C169.2 160.152 177.69 154.571 185.856 148.579C195.939 141.196 205.599 133.252 214.79 124.785C221.723 118.264 228.479 111.625 235 104.634C238.202 101.167 241.316 97.5542 244.576 93.9705C247.837 90.3867 250.892 86.9205 253.653 83.278C255.787 80.5406 257.628 77.5869 259.146 74.4655C259.499 73.7017 259.881 72.9674 260.145 72.2036L260.586 71.0874C260.688 70.8178 260.776 70.5433 260.85 70.2649C261.118 69.388 261.266 68.4789 261.291 67.5624C261.284 67.1291 261.17 66.7042 260.96 66.3251C260.75 65.9461 260.45 65.6245 260.086 65.3886C259.347 64.9596 258.503 64.746 257.648 64.7717C256.661 64.8212 255.678 64.9489 254.711 65.1536C253.165 65.4274 251.657 65.8809 250.216 66.5049C247.554 67.624 245.039 69.0643 242.726 70.7936C239.291 72.6682 235.727 74.2977 232.063 75.6699C230.87 75.9506 229.645 76.0691 228.42 76.0224C227.275 75.8217 226.146 75.537 225.042 75.1705C224.073 74.8474 222.986 74.7299 222.31 74.4067C221.135 73.878 221.253 72.5267 222.046 69.7949C223.41 66.1971 225.864 63.1158 229.066 60.9824C235.09 56.3965 242.154 53.3694 249.629 52.1699C251.802 51.5983 254.025 51.2344 256.268 51.083C259.386 50.8375 262.522 51.217 265.491 52.1992C268.343 53.1687 270.846 54.9566 272.688 57.3399C274.486 59.7827 275.454 62.7374 275.449 65.7705C275.273 68.9568 274.609 72.0972 273.481 75.0824C273.295 75.6934 273.069 76.2919 272.806 76.8742L272.189 78.3136C271.748 79.283 271.278 80.1642 270.808 81.1042C268.968 84.6104 266.815 87.9433 264.375 91.0624C259.793 96.9374 254.799 102.166 250.422 107.072C236.353 122.793 220.952 137.27 204.391 150.341L204.156 150.135Z" fill="#F9AF8C"/>
<path d="M109.599 126.107C108.37 126.866 107.072 127.505 105.721 128.016C104.412 128.388 103.077 128.663 101.726 128.839C99.2516 129.056 96.7577 128.848 94.3534 128.222L91.7977 127.575C90.9274 127.271 90.0827 126.898 89.2715 126.459C86.3558 124.785 84.0895 122.177 82.8384 119.057C82.2516 117.548 81.943 115.946 81.9277 114.327C81.9277 113.534 81.9277 112.77 82.1921 112.036L82.7796 109.862C83.6117 107.47 84.9208 105.271 86.6277 103.4C88.6124 100.972 91.4712 99.4214 94.5884 99.0817C95.5284 99.0817 95.5577 99.816 95.1759 100.932C94.7535 102.186 94.073 103.336 93.1784 104.31C92.337 104.997 91.6299 105.834 91.0927 106.778C90.5827 107.644 90.2157 108.586 90.0059 109.569C89.7952 110.444 89.6965 111.342 89.7121 112.242C89.7709 113.083 89.7709 113.927 89.7121 114.768C89.7121 116.912 91.7684 118.322 94.0302 119.174C96.6397 120.286 99.5666 120.401 102.255 119.497C103.724 118.847 104.948 117.746 105.751 116.354C106.425 115.208 106.85 113.933 106.997 112.612C107.143 111.291 107.009 109.953 106.603 108.687C105.884 106.736 104.632 105.027 102.99 103.752C102.595 103.532 102.222 103.276 101.873 102.989C101.325 102.5 100.934 101.859 100.751 101.148C100.568 100.436 100.601 99.6863 100.845 98.9935C100.845 98.5823 100.992 98.1417 101.08 97.7304C101.433 96.4085 102.755 95.7329 104.958 95.9092C108.387 96.4978 111.503 98.2637 113.77 100.903C115.004 102.306 115.996 103.904 116.708 105.632C116.943 106.543 117.148 107.483 117.295 108.423C117.442 109.363 117.295 110.362 117.442 111.36C117.406 114.279 116.692 117.148 115.356 119.743C114.02 122.338 112.1 124.587 109.746 126.312L109.599 126.107Z" fill="#F9AF8C"/>
</svg>
