<svg width="127" height="127" viewBox="0 0 127 127" fill="none" xmlns="http://www.w3.org/2000/svg">
<path d="M36.5249 99.5892C36.0619 98.2663 35.5989 97.0624 35.202 95.7263C34.9776 95.0316 34.7921 94.325 34.6464 93.6096C34.6464 93.4244 34.567 93.173 34.5273 92.9481V92.1808C34.533 91.6816 34.5951 91.1845 34.7126 90.6992C34.9682 89.4661 35.5021 88.3078 36.2736 87.3125C37.5086 85.915 38.9389 84.7031 40.5202 83.7142C41.9886 82.7352 43.5099 81.9018 45.0181 81.0683C46.5262 80.2349 47.6639 79.6131 48.9868 78.9649C50.6504 78.0179 52.4289 77.2887 54.2785 76.7953C54.8738 76.663 55.0326 77.2583 54.8341 78.0389C54.588 79.0025 54.0064 79.8468 53.1937 80.4201C51.5665 81.3991 50.0055 82.4574 48.3915 83.3834L43.5232 86.0293C41.6967 87.094 40.1574 88.5879 39.0385 90.3817C38.7922 90.7405 38.6088 91.1387 38.4961 91.5591C38.3964 91.9542 38.3964 92.3678 38.4961 92.7629C38.7786 93.9689 39.132 95.1572 39.5544 96.3216C40.0799 97.8106 40.6804 99.2721 41.3536 100.7C42.3076 102.886 43.4589 104.981 44.7932 106.958C45.8212 108.366 47.083 109.588 48.5238 110.569C48.8148 110.755 49.1191 110.9 49.3705 111.032C49.8732 111.297 50.0716 111.456 50.1642 111.76C50.2805 112.193 50.3558 112.636 50.3891 113.083C50.3891 113.334 50.5082 113.586 50.5479 113.811C50.5899 114.019 50.5682 114.235 50.4856 114.431C50.403 114.627 50.2634 114.793 50.0848 114.909C49.8463 115.133 49.5381 115.268 49.2117 115.292C48.832 115.37 48.4405 115.37 48.0608 115.292C46.0763 114.589 44.3235 113.353 42.994 111.72C41.7628 110.285 40.6854 108.724 39.7793 107.064C38.4575 104.664 37.3038 102.175 36.3265 99.6156L36.5249 99.5892Z" fill="#F9AF8C"/>
<path d="M78.3956 57.097C79.1842 59.7108 80.6224 62.0822 82.576 63.9894C82.9597 64.3466 83.3433 64.6773 83.7402 64.9948C84.1371 65.3123 84.6133 65.5504 85.0631 65.8547C87.7089 67.9978 91.5057 68.6196 95.3422 68.5005C97.0446 68.39 98.7167 67.9965 100.29 67.3364C101.266 66.9214 102.208 66.4304 103.108 65.8679C103.968 65.3123 104.894 64.8361 105.754 64.2143C106.283 63.8703 106.931 64.3334 107.156 65.3785C107.299 66.0092 107.272 66.6668 107.076 67.2835C106.876 68.0351 106.44 68.7027 105.833 69.1885C103.634 70.7703 101.143 71.9005 98.5044 72.5136C95.8658 73.1267 93.1318 73.2106 90.4606 72.7603C88.8219 72.4627 87.2078 72.0426 85.632 71.5036C84.8088 71.2104 84.0121 70.8475 83.2507 70.4188C82.576 69.9822 81.9278 69.5324 81.2399 69.0959C78.3945 66.936 76.1232 64.1104 74.6253 60.8673C74.1653 59.8758 73.7978 58.844 73.5273 57.7849C73.3817 57.2558 73.3288 56.7001 73.223 56.171C73.1105 55.6352 73.0441 55.0908 73.0246 54.5438C72.7938 51.2399 73.5145 47.939 75.1015 45.032C76.2423 42.7656 77.8469 40.7644 79.8111 39.1583C80.2609 38.8275 80.7239 38.5233 81.134 38.2322C82.9861 37.2929 83.7799 37.4914 84.4942 38.1528C84.6584 38.2971 84.813 38.4518 84.9573 38.6159C85.0517 38.7738 85.1015 38.9544 85.1015 39.1384C85.1015 39.3224 85.0517 39.503 84.9573 39.661C84.7279 40.1767 84.3786 40.6303 83.9386 40.9839C83.1581 41.5263 82.6157 42.4259 81.941 42.9418C81.6235 43.2593 81.3722 43.6297 81.0679 43.9472C80.7585 44.2513 80.4835 44.5885 80.2477 44.9526C80.0096 45.3231 79.7714 45.667 79.5201 46.011C79.2687 46.3549 79.1497 46.7783 78.938 47.1487C78.7263 47.5191 78.7396 47.5191 78.647 47.7175L78.4485 48.3128C78.3427 48.7229 78.131 49.0934 78.0649 49.5167C77.4548 52.0201 77.5974 54.6479 78.475 57.0705L78.3956 57.097Z" fill="#F9AF8C"/>
<path d="M46.0233 35.4012C45.4951 34.4819 44.9073 33.5981 44.2639 32.7554C43.5363 31.9087 42.7822 31.0621 41.962 30.2418C41.3931 29.6465 40.6391 29.1967 40.0702 28.6014C37.9403 26.4583 35.7178 24.4078 33.3763 22.4102C32.3595 21.5182 31.2905 20.6877 30.1748 19.9231C28.6885 19.0182 27.3123 17.9438 26.0738 16.7216C25.7033 16.3115 26.0738 15.7956 26.8807 15.3987C27.7761 14.9548 28.806 14.8651 29.7647 15.1474C31.4183 15.8485 33.0588 16.5893 34.633 17.4492C35.4323 17.8595 36.1976 18.3329 36.9217 18.8648C37.6228 19.4468 38.2446 20.0422 38.959 20.6904C40.5068 22.2382 42.5176 23.3362 44.2506 24.6591C46.1856 26.2452 48.0316 27.9367 49.7804 29.7259C50.3228 30.3344 50.852 30.9165 51.3812 31.5648L52.1749 32.5702C52.4395 32.9009 52.6776 33.3507 52.929 33.7343C53.3457 34.4365 53.6493 35.1999 53.8285 35.9965C53.9476 36.6183 54.0402 37.2401 54.1064 37.9148C54.2738 39.3941 54.1204 40.8921 53.6566 42.3068C53.2804 43.5148 52.7276 44.6605 52.0162 45.7067C51.6846 46.1974 51.3269 46.6699 50.9446 47.1223C50.5731 47.5237 50.1706 47.8953 49.7407 48.2335C49.3973 48.5383 49.035 48.8211 48.6559 49.0802C47.214 49.8607 46.5128 49.4638 45.3487 47.5588C45.0841 47.1223 44.793 46.6857 44.5681 46.2359C44.2013 45.6476 43.9831 44.9789 43.9324 44.2875C43.8817 43.596 44 42.9027 44.2771 42.2672C44.8353 41.3313 45.3388 40.364 45.7852 39.37C45.7777 39.3351 45.7777 39.299 45.7852 39.2641C45.7852 39.2641 46.1556 39.4626 45.9704 39.3964L45.7191 39.3038C45.7191 39.3038 45.7191 39.1451 45.8381 39.026L45.9837 38.6159L46.1159 38.0471L46.1953 37.3856L48.2194 37.0416H47.9548H47.6505C47.4495 37.0731 47.2506 37.1173 47.0552 37.1739L46.4996 37.3591C46.3673 37.3591 46.4202 37.3591 46.4202 37.3591C46.5657 37.4253 46.4202 37.1872 46.4202 37.0681C46.4442 36.9102 46.4442 36.7497 46.4202 36.5918C46.2829 36.1576 46.0965 35.7404 45.8646 35.3483L46.0233 35.4012Z" fill="#F9AF8C"/>
<path d="M47.1347 34.925C42.9279 30.9562 38.4432 27.1065 33.8394 23.5214C32.1593 22.1985 30.3469 21.127 28.6404 19.9099C27.8863 19.3807 27.1455 18.8383 26.3782 18.3488L25.8093 17.9916L25.5315 17.8197L25.4389 17.7403L25.1346 17.4889C24.8644 17.2947 24.5765 17.1264 24.2747 16.9862C24.1152 16.9057 23.9371 16.8692 23.7588 16.8804C23.5736 16.8804 23.5736 17.1053 23.5074 17.2376C23.4413 17.3699 23.309 17.8461 23.2032 18.2033C23.139 18.374 23.0946 18.5516 23.0709 18.7325C22.9915 19.1293 22.9121 19.6321 22.8328 20.0554C22.5285 21.9075 22.2639 23.786 22.0126 25.6778C21.5892 29.0248 21.3908 32.4247 21.1659 35.7981C21.0204 37.9809 20.941 40.1505 20.6896 42.4127C20.5484 43.5231 20.3363 44.6234 20.0546 45.7067C19.8959 46.2624 19.7504 46.8048 19.5652 47.3604C19.3799 47.916 19.1683 48.4716 18.8772 49.067C17.9909 50.6412 17.2765 49.6226 16.5357 48.3129C15.4383 46.5691 14.8011 44.5755 14.6836 42.5185C14.8953 38.272 15.0672 33.8799 15.3583 29.4746C15.517 27.2521 15.7022 25.0428 15.9668 22.7938C16.0859 21.6826 16.2446 20.5581 16.4166 19.4204L16.7341 17.4625C16.824 16.4832 16.9787 15.5109 17.1971 14.5521L17.6602 13.0042L17.8851 12.2237C17.9644 11.9591 18.1364 11.8533 18.2555 11.6681C18.8111 10.9934 19.1021 10.16 20.1472 9.84247C22.1284 9.39804 24.2038 9.69452 25.9813 10.6759C26.4972 10.8876 27.0132 11.1522 27.5291 11.4035L28.852 12.1311L30.8232 13.2291C32.0667 13.9303 33.2706 14.6579 34.4347 15.4252C39.5412 18.7986 44.3698 22.4631 49.0927 26.2731C50.5479 27.4373 51.9898 28.6411 53.4186 29.8714L54.4769 30.8107C54.6754 30.9695 54.8077 31.115 55.0325 31.287L55.7998 31.9881C56.8248 32.8497 57.752 33.8212 58.5647 34.8853C58.7499 35.1631 58.9087 35.4277 59.0675 35.7055C59.2839 36.075 59.4234 36.4845 59.4776 36.9093C59.558 37.3495 59.5353 37.8023 59.4114 38.2323C59.1596 39.1175 58.752 39.9508 58.2076 40.6929C57.6656 41.4737 57.0546 42.2042 56.3819 42.8757L55.3501 43.8811L54.4902 44.622C52.32 46.3958 50.0497 48.0433 47.6904 49.5564C44.0179 52.1619 40.1222 54.4374 36.0487 56.3562C35.1227 56.7531 34.2231 57.2029 33.2309 57.5204C32.4559 57.7725 31.6585 57.9497 30.8496 58.0496C30.2593 58.0964 29.6655 58.0244 29.1034 57.8379C28.6369 57.6808 28.2092 57.4261 27.8488 57.0907C27.4883 56.7554 27.2035 56.3472 27.0132 55.8932C26.7611 55.4708 26.5443 55.0283 26.3649 54.5703C25.9681 53.0225 27.1587 51.5937 29.1034 50.2708C32.1858 48.7098 35.2682 46.9106 38.3638 44.9791C39.8852 43.987 41.4594 43.1006 43.0072 42.1349C44.555 41.1691 46.0499 40.1637 47.4655 39.1318C48.0476 38.6953 48.6164 38.2455 49.1456 37.8089C49.6747 37.3724 49.3969 37.6237 49.4234 37.5973C49.4616 37.6127 49.5043 37.6127 49.5424 37.5973C49.5543 37.554 49.5543 37.5083 49.5424 37.465L49.4102 37.3327L49.1059 37.0416L48.418 36.3934L47.0157 35.0705L47.1347 34.925Z" fill="#F9AF8C"/>
<path d="M89.5215 75.9354C86.11 75.499 82.8322 74.3339 79.9105 72.5193C76.9888 70.7047 74.4916 68.2829 72.5882 65.4182C71.1284 63.3889 70.0483 61.112 69.4 58.6978C68.8558 56.5375 68.7079 54.2963 68.9634 52.0832C69.1871 49.9004 69.7916 47.7736 70.7493 45.7994C71.6354 43.8512 72.8379 42.0632 74.308 40.5077C75.6976 38.9795 77.286 37.6446 79.0308 36.539C81.9748 34.5659 85.2508 33.1408 88.7013 32.3321C90.9789 31.7542 93.3483 31.6328 95.6731 31.9749C98.1223 32.3438 100.338 33.6361 101.864 35.5865C102.777 36.8168 101.864 37.1607 100.422 37.2533C99.5849 37.298 98.7503 37.3863 97.922 37.5179C97.0817 37.6487 96.2325 37.715 95.382 37.7163C93.7797 37.6676 92.1824 37.9188 90.6725 38.4572C89.0585 38.9996 87.4842 39.7801 85.857 40.5077C85.0501 40.8913 84.2695 41.3279 83.5155 41.7645C82.7972 42.2114 82.1039 42.6972 81.4385 43.2197C80.1038 44.2676 78.908 45.4812 77.8798 46.8312C76.6152 48.4708 75.8731 50.4529 75.7499 52.5198C75.6297 54.5971 75.9872 56.6744 76.7951 58.592C77.2426 59.6953 77.8011 60.7502 78.4619 61.7405C79.1315 62.7069 79.9081 63.5945 80.777 64.3863C82.5787 66.0554 84.7233 67.3106 87.0609 68.0641C88.5266 68.5455 90.0463 68.8432 91.5853 68.9504C93.1485 69.0408 94.7169 68.9386 96.2552 68.6461C98.5244 68.2698 100.673 67.3633 102.526 66.0003C104.331 64.5946 105.706 62.7109 106.495 60.5631C107.628 57.2084 107.53 53.5595 106.217 50.2708C105.939 49.5961 105.648 48.9479 105.357 48.3526C104.94 47.5805 104.654 46.7445 104.51 45.8787C104.543 45.0825 104.732 44.3004 105.066 43.5769C105.238 43.1535 105.33 42.6773 105.502 42.254C105.65 41.9002 105.914 41.6076 106.251 41.4248C106.588 41.2419 106.977 41.1797 107.354 41.2485C108.678 41.3936 109.892 42.0485 110.741 43.0742C111.552 43.9549 112.258 44.9272 112.845 45.9713C113.425 46.9849 113.869 48.0701 114.167 49.1993C114.877 51.4568 115.19 53.82 115.093 56.1843C114.9 61.1909 112.93 65.9651 109.537 69.6516C106.941 72.4414 103.606 74.4369 99.9196 75.4062C98.2176 75.8767 96.4703 76.165 94.7073 76.2661C92.9753 76.4001 91.2345 76.3691 89.5083 76.1735L89.5215 75.9354Z" fill="#F9AF8C"/>
<path d="M33.0713 101.613C31.9865 99.6685 30.9678 97.6445 30.0021 95.6469L29.592 94.7605C29.3936 94.3107 29.1819 93.8609 28.9967 93.4376C28.8115 93.0143 28.6527 92.5116 28.494 92.1147C28.3352 91.7178 27.978 91.2019 27.9516 90.7918C27.649 89.9358 27.649 89.0019 27.9516 88.1459C28.1119 87.7497 28.3304 87.3797 28.5998 87.0479C28.9008 86.7185 29.2187 86.4049 29.5523 86.1086C30.0947 85.7515 30.6106 85.3678 31.1795 85.0371L32.0129 84.5344L32.7009 84.1375L34.7249 83.0659C36.6696 82.0738 38.5085 80.9757 40.4532 80.1026C43.906 78.568 47.3985 77.1525 51.0365 75.8825C52.8357 75.2475 54.6216 74.5596 56.5663 74.1363L57.3071 73.9643C57.643 73.8805 57.983 73.8142 58.3258 73.7658C59.0119 73.6153 59.7138 73.5487 60.416 73.5674C60.7492 73.5576 61.0825 73.5887 61.4082 73.66C61.7477 73.71 62.075 73.8221 62.3739 73.9907C62.9602 74.3262 63.473 74.7761 63.882 75.3137L64.4244 76.0677L64.8874 76.8747L65.3108 77.7081L65.6547 78.4754C66.0119 79.2824 66.3294 80.0894 66.6337 80.8831C67.2422 82.4706 67.8111 84.0317 68.3667 85.5663C69.8969 89.3337 71.1828 93.1958 72.2164 97.1285C72.2917 97.3436 72.2908 97.578 72.2137 97.7924C72.1366 98.0068 71.9881 98.1881 71.793 98.3059C71.5018 98.4753 71.1782 98.5817 70.8432 98.6182C70.5082 98.6546 70.1693 98.6204 69.8484 98.5176C68.8171 98.2719 67.8455 97.8221 66.9909 97.1947C66.507 96.8333 66.0635 96.4208 65.6679 95.9644C65.2883 95.4799 64.9767 94.9458 64.7419 94.3769C63.1015 90.3155 61.7653 86.2409 60.3234 82.5632L59.781 81.2403L59.7016 81.0948V80.8302C59.7016 80.7376 59.7016 80.5392 59.5825 80.473C59.5218 80.4318 59.4548 80.4005 59.3841 80.3804H59.2386L58.5639 80.5524L55.5609 81.2271C50.7587 82.55 46.0491 85.0503 41.4321 87.2861C40.2283 87.8814 39.0244 88.4767 37.847 89.0984L36.1008 90.0245L35.3335 90.4346L34.9366 90.6595C34.7778 90.7389 34.8308 90.9373 34.844 91.0564C34.9048 91.3522 34.9843 91.6438 35.0821 91.9295L35.2541 92.3793L35.6642 93.345C35.9552 94.0065 36.2595 94.6679 36.577 95.3558C37.3178 96.9169 38.1116 98.4779 38.945 100.013C39.7785 101.547 40.7442 103.029 41.6835 104.51C42.8179 106.272 44.0456 107.973 45.3612 109.604C45.9133 110.278 46.5099 110.914 47.1471 111.509C47.5704 111.906 48.2054 112.342 48.8008 111.972C48.9463 111.972 49.0786 111.866 49.2241 111.826L49.4358 111.734L49.7797 111.575L51.182 110.94C54.8994 109.154 58.4184 106.971 62.2813 105.145C63.1147 104.735 63.9614 104.312 64.9271 103.955C68.3006 102.632 69.8616 103.029 70.8405 104.749C71.0823 105.085 71.2822 105.449 71.4359 105.833C71.5238 106.165 71.53 106.512 71.454 106.846C71.3779 107.18 71.2219 107.491 70.9993 107.752C70.7482 108.08 70.4596 108.377 70.1394 108.638C69.7283 108.949 69.2848 109.216 68.8165 109.432C66.1707 110.755 63.2602 112.316 60.2837 113.797C58.802 114.551 57.2939 115.332 55.7064 116.033L53.2854 117.105L51.9625 117.634C51.8832 117.634 51.6186 117.713 51.4334 117.793L50.8248 118.017L49.6077 118.454C48.0303 118.832 46.3678 118.575 44.9775 117.74C44.3559 117.39 43.7747 116.973 43.2445 116.496C42.9799 116.245 42.7021 116.02 42.4508 115.755C42.2629 115.581 42.0862 115.396 41.9216 115.2C41.313 114.551 40.7839 113.877 40.2812 113.281C39.289 111.958 38.4159 110.715 37.6353 109.432C36.8548 108.148 36.0346 106.786 35.2805 105.542L34.1693 103.584L33.0184 101.653L33.0713 101.613Z" fill="#F9AF8C"/>
</svg>
