<svg width="127" height="87" viewBox="0 0 127 87" fill="none" xmlns="http://www.w3.org/2000/svg">
<path d="M36.5249 99.5892C36.0619 98.2663 35.5989 97.0624 35.202 95.7263C34.9776 95.0316 34.7921 94.325 34.6464 93.6096C34.6464 93.4244 34.567 93.173 34.5273 92.9481V92.1808C34.533 91.6816 34.5951 91.1845 34.7126 90.6992C34.9682 89.4661 35.5021 88.3078 36.2736 87.3125C37.5086 85.915 38.9389 84.7031 40.5202 83.7142C41.9886 82.7352 43.5099 81.9018 45.0181 81.0683C46.5262 80.2349 47.6639 79.6131 48.9868 78.9649C50.6504 78.0179 52.4289 77.2887 54.2785 76.7953C54.8738 76.663 55.0326 77.2583 54.8341 78.0389C54.588 79.0025 54.0064 79.8468 53.1937 80.4201C51.5665 81.3991 50.0055 82.4574 48.3915 83.3834L43.5232 86.0293C41.6967 87.094 40.1574 88.5879 39.0385 90.3817C38.7922 90.7405 38.6088 91.1387 38.4961 91.5591C38.3964 91.9542 38.3964 92.3678 38.4961 92.7629C38.7786 93.9689 39.132 95.1572 39.5544 96.3216C40.0799 97.8106 40.6804 99.2721 41.3536 100.7C42.3076 102.886 43.4589 104.981 44.7932 106.958C45.8212 108.366 47.083 109.588 48.5238 110.569C48.8148 110.755 49.1191 110.9 49.3705 111.032C49.8732 111.297 50.0716 111.456 50.1642 111.76C50.2805 112.193 50.3558 112.636 50.3891 113.083C50.3891 113.334 50.5082 113.586 50.5479 113.811C50.5899 114.019 50.5682 114.235 50.4856 114.431C50.403 114.627 50.2634 114.793 50.0848 114.909C49.8463 115.133 49.5381 115.268 49.2117 115.292C48.832 115.37 48.4405 115.37 48.0608 115.292C46.0763 114.589 44.3235 113.353 42.994 111.72C41.7628 110.285 40.6854 108.724 39.7793 107.064C38.4575 104.664 37.3038 102.175 36.3265 99.6156L36.5249 99.5892Z" fill="#F9AF8C"/>
<path d="M78.3956 57.0971C79.1842 59.711 80.6224 62.0823 82.576 63.9895C82.9597 64.3467 83.3433 64.6774 83.7402 64.9949C84.1371 65.3124 84.6133 65.5506 85.0631 65.8548C87.7089 67.998 91.5057 68.6197 95.3422 68.5007C97.0446 68.3901 98.7167 67.9967 100.29 67.3365C101.266 66.9215 102.208 66.4305 103.108 65.8681C103.968 65.3124 104.894 64.8362 105.754 64.2144C106.283 63.8705 106.931 64.3335 107.156 65.3786C107.299 66.0094 107.272 66.6669 107.076 67.2836C106.876 68.0352 106.44 68.7029 105.833 69.1886C103.634 70.7705 101.143 71.9006 98.5044 72.5137C95.8658 73.1268 93.1318 73.2107 90.4606 72.7605C88.8219 72.4628 87.2078 72.0427 85.632 71.5037C84.8088 71.2105 84.0121 70.8476 83.2507 70.4189C82.576 69.9823 81.9278 69.5325 81.2399 69.096C78.3945 66.9361 76.1232 64.1105 74.6253 60.8674C74.1653 59.8759 73.7978 58.8441 73.5273 57.785C73.3817 57.2559 73.3288 56.7003 73.223 56.1711C73.1105 55.6353 73.0441 55.091 73.0246 54.5439C72.7938 51.24 73.5145 47.9391 75.1015 45.0321C76.2423 42.7657 77.8469 40.7645 79.8111 39.1584C80.2609 38.8277 80.7239 38.5234 81.134 38.2323C82.9861 37.2931 83.7799 37.4915 84.4942 38.153C84.6584 38.2972 84.813 38.4519 84.9573 38.616C85.0517 38.7739 85.1015 38.9545 85.1015 39.1385C85.1015 39.3226 85.0517 39.5031 84.9573 39.6611C84.7279 40.1769 84.3786 40.6304 83.9386 40.984C83.1581 41.5264 82.6157 42.426 81.941 42.9419C81.6235 43.2594 81.3722 43.6298 81.0679 43.9473C80.7585 44.2515 80.4835 44.5886 80.2477 44.9528C80.0096 45.3232 79.7714 45.6671 79.5201 46.0111C79.2687 46.355 79.1497 46.7784 78.938 47.1488C78.7263 47.5192 78.7396 47.5192 78.647 47.7177L78.4485 48.313C78.3427 48.7231 78.131 49.0935 78.0649 49.5168C77.4548 52.0202 77.5974 54.648 78.475 57.0707L78.3956 57.0971Z" fill="#F9AF8C"/>
<path d="M46.0233 35.4013C45.4951 34.482 44.9073 33.5982 44.2639 32.7555C43.5363 31.9088 42.7822 31.0622 41.962 30.242C41.3931 29.6467 40.6391 29.1969 40.0702 28.6015C37.9403 26.4584 35.7178 24.4079 33.3763 22.4103C32.3595 21.5183 31.2905 20.6878 30.1748 19.9232C28.6885 19.0183 27.3123 17.944 26.0738 16.7218C25.7033 16.3117 26.0738 15.7957 26.8807 15.3988C27.7761 14.9549 28.806 14.8652 29.7647 15.1475C31.4183 15.8486 33.0588 16.5895 34.633 17.4494C35.4323 17.8596 36.1976 18.333 36.9217 18.8649C37.6228 19.447 38.2446 20.0423 38.959 20.6905C40.5068 22.2383 42.5176 23.3363 44.2506 24.6593C46.1856 26.2453 48.0316 27.9368 49.7804 29.726C50.3228 30.3346 50.852 30.9167 51.3812 31.5649L52.1749 32.5703C52.4395 32.901 52.6776 33.3508 52.929 33.7345C53.3457 34.4366 53.6493 35.2 53.8285 35.9967C53.9476 36.6184 54.0402 37.2402 54.1064 37.9149C54.2738 39.3942 54.1204 40.8923 53.6566 42.307C53.2804 43.5149 52.7276 44.6606 52.0162 45.7069C51.6846 46.1975 51.3269 46.6701 50.9446 47.1224C50.5731 47.5238 50.1706 47.8954 49.7407 48.2336C49.3973 48.5384 49.035 48.8212 48.6559 49.0803C47.214 49.8608 46.5128 49.4639 45.3487 47.5589C45.0841 47.1224 44.793 46.6858 44.5681 46.236C44.2013 45.6477 43.9831 44.979 43.9324 44.2876C43.8817 43.5962 44 42.9028 44.2771 42.2673C44.8353 41.3315 45.3388 40.3641 45.7852 39.3701C45.7777 39.3352 45.7777 39.2991 45.7852 39.2643C45.7852 39.2643 46.1556 39.4627 45.9704 39.3965L45.7191 39.3039C45.7191 39.3039 45.7191 39.1452 45.8381 39.0261L45.9837 38.616L46.1159 38.0472L46.1953 37.3857L48.2194 37.0418H47.9548H47.6505C47.4495 37.0732 47.2506 37.1174 47.0552 37.174L46.4996 37.3593C46.3673 37.3593 46.4202 37.3593 46.4202 37.3593C46.5657 37.4254 46.4202 37.1873 46.4202 37.0682C46.4442 36.9104 46.4442 36.7498 46.4202 36.592C46.2829 36.1577 46.0965 35.7405 45.8646 35.3484L46.0233 35.4013Z" fill="#F9AF8C"/>
<path d="M47.1347 34.9251C42.9279 30.9563 38.4432 27.1067 33.8394 23.5216C32.1593 22.1986 30.3469 21.1271 28.6404 19.91C27.8863 19.3808 27.1455 18.8384 26.3782 18.3489L25.8093 17.9918L25.5315 17.8198L25.4389 17.7404L25.1346 17.4891C24.8644 17.2948 24.5765 17.1265 24.2747 16.9863C24.1152 16.9058 23.9371 16.8693 23.7588 16.8805C23.5736 16.8805 23.5736 17.1054 23.5074 17.2377C23.4413 17.37 23.309 17.8462 23.2032 18.2034C23.139 18.3742 23.0946 18.5517 23.0709 18.7326C22.9915 19.1295 22.9121 19.6322 22.8328 20.0555C22.5285 21.9076 22.2639 23.7861 22.0126 25.6779C21.5892 29.0249 21.3908 32.4248 21.1659 35.7982C21.0204 37.981 20.941 40.1506 20.6896 42.4128C20.5484 43.5232 20.3363 44.6235 20.0546 45.7069C19.8959 46.2625 19.7504 46.8049 19.5652 47.3605C19.3799 47.9161 19.1683 48.4718 18.8772 49.0671C17.9909 50.6413 17.2765 49.6227 16.5357 48.313C15.4383 46.5692 14.8011 44.5756 14.6836 42.5186C14.8953 38.2721 15.0672 33.88 15.3583 29.4747C15.517 27.2522 15.7022 25.0429 15.9668 22.7939C16.0859 21.6827 16.2446 20.5582 16.4166 19.4205L16.7341 17.4626C16.824 16.4833 16.9787 15.511 17.1971 14.5522L17.6602 13.0044L17.8851 12.2238C17.9644 11.9593 18.1364 11.8534 18.2555 11.6682C18.8111 10.9935 19.1021 10.1601 20.1472 9.8426C22.1284 9.39816 24.2038 9.69464 25.9813 10.676C26.4972 10.8877 27.0132 11.1523 27.5291 11.4036L28.852 12.1312L30.8232 13.2293C32.0667 13.9304 33.2706 14.658 34.4347 15.4253C39.5412 18.7987 44.3698 22.4632 49.0927 26.2732C50.5479 27.4374 51.9898 28.6412 53.4186 29.8716L54.4769 30.8108C54.6754 30.9696 54.8077 31.1151 55.0325 31.2871L55.7998 31.9882C56.8248 32.8498 57.752 33.8213 58.5647 34.8854C58.7499 35.1632 58.9087 35.4278 59.0675 35.7056C59.2839 36.0751 59.4234 36.4846 59.4776 36.9095C59.558 37.3496 59.5353 37.8024 59.4114 38.2324C59.1596 39.1177 58.752 39.9509 58.2076 40.693C57.6656 41.4738 57.0546 42.2043 56.3819 42.8758L55.3501 43.8812L54.4902 44.6221C52.32 46.3959 50.0497 48.0434 47.6904 49.5566C44.0179 52.162 40.1222 54.4375 36.0487 56.3563C35.1227 56.7532 34.2231 57.203 33.2309 57.5205C32.4559 57.7727 31.6585 57.9499 30.8496 58.0497C30.2593 58.0965 29.6655 58.0245 29.1034 57.838C28.6369 57.6809 28.2092 57.4262 27.8488 57.0909C27.4883 56.7556 27.2035 56.3473 27.0132 55.8933C26.7611 55.4709 26.5443 55.0284 26.3649 54.5704C25.9681 53.0226 27.1587 51.5938 29.1034 50.2709C32.1858 48.7099 35.2682 46.9107 38.3638 44.9793C39.8852 43.9871 41.4594 43.1007 43.0072 42.135C44.555 41.1693 46.0499 40.1638 47.4655 39.132C48.0476 38.6954 48.6164 38.2456 49.1456 37.8091C49.6747 37.3725 49.3969 37.6238 49.4234 37.5974C49.4616 37.6128 49.5043 37.6128 49.5424 37.5974C49.5543 37.5541 49.5543 37.5084 49.5424 37.4651L49.4102 37.3328L49.1059 37.0418L48.418 36.3935L47.0157 35.0706L47.1347 34.9251Z" fill="#F9AF8C"/>
<path d="M89.5215 75.9354C86.11 75.499 82.8322 74.3339 79.9105 72.5193C76.9888 70.7047 74.4916 68.2829 72.5882 65.4182C71.1284 63.3889 70.0483 61.112 69.4 58.6978C68.8558 56.5375 68.7079 54.2963 68.9634 52.0832C69.1871 49.9004 69.7916 47.7736 70.7493 45.7994C71.6354 43.8512 72.8379 42.0632 74.308 40.5077C75.6976 38.9795 77.286 37.6446 79.0308 36.539C81.9748 34.5659 85.2508 33.1408 88.7013 32.3321C90.9789 31.7542 93.3483 31.6328 95.6731 31.9749C98.1223 32.3438 100.338 33.6361 101.864 35.5865C102.777 36.8168 101.864 37.1607 100.422 37.2533C99.5849 37.298 98.7503 37.3863 97.922 37.5179C97.0817 37.6487 96.2325 37.715 95.382 37.7163C93.7797 37.6676 92.1824 37.9188 90.6725 38.4572C89.0585 38.9996 87.4842 39.7801 85.857 40.5077C85.0501 40.8913 84.2695 41.3279 83.5155 41.7645C82.7972 42.2114 82.1039 42.6972 81.4385 43.2197C80.1038 44.2676 78.908 45.4812 77.8798 46.8312C76.6152 48.4708 75.8731 50.4529 75.7499 52.5198C75.6297 54.5971 75.9872 56.6744 76.7951 58.592C77.2426 59.6953 77.8011 60.7502 78.4619 61.7405C79.1315 62.7069 79.9081 63.5945 80.777 64.3863C82.5787 66.0554 84.7233 67.3106 87.0609 68.0641C88.5266 68.5455 90.0463 68.8432 91.5853 68.9504C93.1485 69.0408 94.7169 68.9386 96.2552 68.6461C98.5244 68.2698 100.673 67.3633 102.526 66.0003C104.331 64.5946 105.706 62.7109 106.495 60.5631C107.628 57.2084 107.53 53.5595 106.217 50.2708C105.939 49.5961 105.648 48.9479 105.357 48.3526C104.94 47.5805 104.654 46.7445 104.51 45.8787C104.543 45.0825 104.732 44.3004 105.066 43.5769C105.238 43.1535 105.33 42.6773 105.502 42.254C105.65 41.9002 105.914 41.6076 106.251 41.4248C106.588 41.2419 106.977 41.1797 107.354 41.2485C108.678 41.3936 109.892 42.0485 110.741 43.0742C111.552 43.9549 112.258 44.9272 112.845 45.9713C113.425 46.9849 113.869 48.0701 114.167 49.1993C114.877 51.4568 115.19 53.82 115.093 56.1843C114.9 61.1909 112.93 65.9651 109.537 69.6516C106.941 72.4414 103.606 74.4369 99.9196 75.4062C98.2176 75.8767 96.4703 76.165 94.7073 76.2661C92.9753 76.4001 91.2345 76.3691 89.5083 76.1735L89.5215 75.9354Z" fill="#F9AF8C"/>
<path d="M33.0713 101.613C31.9865 99.6687 30.9678 97.6446 30.0021 95.647L29.592 94.7606C29.3936 94.3109 29.1819 93.8611 28.9967 93.4377C28.8115 93.0144 28.6527 92.5117 28.494 92.1148C28.3352 91.7179 27.978 91.202 27.9516 90.7919C27.649 89.9359 27.649 89.002 27.9516 88.1461C28.1119 87.7499 28.3304 87.3798 28.5998 87.0481C28.9008 86.7186 29.2187 86.4051 29.5523 86.1088C30.0947 85.7516 30.6106 85.3679 31.1795 85.0372L32.0129 84.5345L32.7009 84.1376L34.7249 83.0661C36.6696 82.0739 38.5085 80.9759 40.4532 80.1027C43.906 78.5681 47.3985 77.1526 51.0365 75.8826C52.8357 75.2476 54.6216 74.5597 56.5663 74.1364L57.3071 73.9644C57.643 73.8806 57.983 73.8143 58.3258 73.766C59.0119 73.6155 59.7138 73.5488 60.416 73.5675C60.7492 73.5577 61.0825 73.5888 61.4082 73.6601C61.7477 73.7101 62.075 73.8222 62.3739 73.9909C62.9602 74.3263 63.473 74.7762 63.882 75.3138L64.4244 76.0678L64.8874 76.8748L65.3108 77.7083L65.6547 78.4755C66.0119 79.2825 66.3294 80.0895 66.6337 80.8833C67.2422 82.4708 67.8111 84.0318 68.3667 85.5664C69.8969 89.3338 71.1828 93.1959 72.2164 97.1287C72.2917 97.3437 72.2908 97.5781 72.2137 97.7925C72.1366 98.0069 71.9881 98.1883 71.793 98.3061C71.5018 98.4755 71.1782 98.5818 70.8432 98.6183C70.5082 98.6548 70.1693 98.6205 69.8484 98.5177C68.8171 98.272 67.8455 97.8222 66.9909 97.1948C66.507 96.8334 66.0635 96.4209 65.6679 95.9645C65.2883 95.4801 64.9767 94.9459 64.7419 94.377C63.1015 90.3156 61.7653 86.2411 60.3234 82.5634L59.781 81.2404L59.7016 81.0949V80.8303C59.7016 80.7377 59.7016 80.5393 59.5825 80.4732C59.5218 80.4319 59.4548 80.4006 59.3841 80.3805H59.2386L58.5639 80.5525L55.5609 81.2272C50.7587 82.5501 46.0491 85.0504 41.4321 87.2862C40.2283 87.8815 39.0244 88.4768 37.847 89.0986L36.1008 90.0246L35.3335 90.4347L34.9366 90.6596C34.7778 90.739 34.8308 90.9374 34.844 91.0565C34.9048 91.3523 34.9843 91.6439 35.0821 91.9296L35.2541 92.3794L35.6642 93.3451C35.9552 94.0066 36.2595 94.668 36.577 95.356C37.3178 96.917 38.1116 98.478 38.945 100.013C39.7785 101.547 40.7442 103.029 41.6835 104.511C42.8179 106.272 44.0456 107.973 45.3612 109.604C45.9133 110.278 46.5099 110.914 47.1471 111.509C47.5704 111.906 48.2054 112.342 48.8008 111.972C48.9463 111.972 49.0786 111.866 49.2241 111.826L49.4358 111.734L49.7797 111.575L51.182 110.94C54.8994 109.154 58.4184 106.971 62.2813 105.146C63.1147 104.735 63.9614 104.312 64.9271 103.955C68.3006 102.632 69.8616 103.029 70.8405 104.749C71.0823 105.085 71.2822 105.449 71.4359 105.833C71.5238 106.165 71.53 106.512 71.454 106.846C71.3779 107.181 71.2219 107.491 70.9993 107.752C70.7482 108.08 70.4596 108.377 70.1394 108.638C69.7283 108.95 69.2848 109.216 68.8165 109.432C66.1707 110.755 63.2602 112.316 60.2837 113.797C58.802 114.551 57.2939 115.332 55.7064 116.033L53.2854 117.105L51.9625 117.634C51.8832 117.634 51.6186 117.713 51.4334 117.793L50.8248 118.018L49.6077 118.454C48.0303 118.832 46.3678 118.575 44.9775 117.74C44.3559 117.39 43.7747 116.973 43.2445 116.496C42.9799 116.245 42.7021 116.02 42.4508 115.755C42.2629 115.581 42.0862 115.396 41.9216 115.2C41.313 114.551 40.7839 113.877 40.2812 113.281C39.289 111.959 38.4159 110.715 37.6353 109.432C36.8548 108.149 36.0346 106.786 35.2805 105.542L34.1693 103.585L33.0184 101.653L33.0713 101.613Z" fill="#F9AF8C"/>
</svg>
