<svg width="226" height="226" viewBox="0 0 226 226" fill="none" xmlns="http://www.w3.org/2000/svg">
<path d="M165.379 148.901C161.317 150.913 157.386 153.178 153.608 155.681C152.266 156.646 151.042 157.706 149.747 158.694C145.098 162.047 140.986 166.088 137.552 170.677C136.158 172.75 135.028 174.988 134.186 177.339C133.55 178.823 133.315 180.4 132.679 181.883C132.42 182.66 132.138 183.413 131.855 184.237C131.573 185.061 131.361 185.814 131.055 186.591C130.749 187.368 129.996 187.392 129.219 186.403C128.131 184.941 127.552 183.163 127.571 181.342C127.628 179.449 128.027 177.583 128.748 175.833L129.784 173.22L131.055 170.701C132.86 167.455 135.137 164.496 137.811 161.92C140.942 158.859 143.956 155.563 147.393 152.809C151.159 149.866 155.089 147.139 159.164 144.64C161.518 143.086 164.155 141.65 166.673 140.191C170.44 137.837 174.395 136.071 178.044 133.787C180.748 131.983 183.335 130.01 185.789 127.878L187.249 126.513C189.109 124.936 189.603 124.842 191.533 125.571C191.957 125.736 192.405 125.854 192.805 126.042C193.134 126.176 193.416 126.403 193.617 126.696C193.818 126.989 193.929 127.335 193.935 127.69C193.947 128.704 193.615 129.691 192.993 130.492C190.994 133.176 188.615 135.555 185.931 137.554C183.32 139.38 180.617 141.069 177.832 142.616C173.807 144.97 169.616 146.947 165.591 149.16L165.379 148.901Z" fill="#F9AF8C"/>
<path d="M186.331 67.6117C185.908 67.0232 185.508 66.4346 185.06 65.8696L183.624 64.2923L180.634 61.2084L177.315 58.3363L175.667 56.8767L173.878 55.5819L170.253 52.9923C169.005 52.1919 167.686 51.4857 166.392 50.6382C163.799 49.1082 161.109 47.7477 158.34 46.5655C146.96 41.8774 134.871 39.1396 122.581 38.4671C113.568 38.0734 104.54 38.7132 95.6725 40.374C79.9035 43.1378 64.8567 49.0636 51.4377 57.7948C44.8729 62.0977 39.0525 67.441 34.2052 73.6148C29.4784 79.6823 26.2519 86.7807 24.7886 94.3315C23.566 100.881 24.303 107.645 26.9073 113.777C29.545 120.184 33.3983 126.02 38.2544 130.962C47.7887 140.74 59.5856 148.017 72.6017 152.15C74.7675 152.785 76.9569 153.468 79.1698 154.08C81.4034 154.676 83.6665 155.155 85.9498 155.516C91.6469 156.317 91.0584 156.952 85.9498 158.294C82.3473 159.138 78.6752 159.65 74.9794 159.824C69.6474 159.863 64.3495 158.971 59.3242 157.188C54.3617 155.461 49.57 153.278 45.0109 150.667C42.6567 149.372 40.4909 147.936 38.325 146.429C36.1771 144.815 34.1181 143.087 32.1571 141.25C23.834 133.943 17.5137 124.633 13.7946 114.201C11.9123 108.598 11.2227 102.664 11.77 96.7799C12.1061 93.9253 12.6569 91.1001 13.4179 88.3284L13.9123 86.3038L14.6421 84.3263L16.1252 80.4184C20.5365 70.4328 27.3162 61.6734 35.8767 54.8992C45.6821 47.0089 56.5972 40.6074 68.27 35.9011C74.0895 33.5427 80.0491 31.5457 86.1146 29.9215L90.8229 28.8151L95.5313 27.9676C98.6152 27.3319 101.77 27.0965 104.948 26.7198C118.667 25.5556 132.483 26.5646 145.887 29.7096C152.594 31.3242 159.136 33.5626 165.426 36.3955C171.799 39.1916 177.839 42.6895 183.436 46.8244C190.315 52.0615 196.254 58.43 200.998 65.6578C205.88 72.9508 209.095 81.2296 210.415 89.9057C211.512 96.5721 211.216 103.394 209.544 109.94C207.706 116.529 204.488 122.652 200.103 127.902C191.581 138.237 180.47 144.828 170.323 151.279C162.901 155.713 156.095 161.103 150.077 167.311C147.348 170.24 145.078 173.566 143.344 177.175C142.991 178.069 142.52 178.917 142.238 179.835L141.955 180.729C141.814 181.13 141.673 181.506 141.555 181.954C141.262 182.861 141.088 183.803 141.037 184.755L140.825 187.839V189.416V191.3C140.825 193.889 140.825 196.432 141.155 199.092L139.225 199.469C139.144 199.467 139.065 199.483 138.992 199.515C138.918 199.548 138.853 199.596 138.801 199.657L138.542 199.892L138.024 200.34L137.765 200.552C137.765 200.552 137.6 200.552 137.412 200.552L136.941 200.41C136.282 200.222 135.811 199.987 135.246 199.798C133.055 198.984 130.962 197.926 129.008 196.644C127.957 195.879 126.958 195.045 126.018 194.148C125.029 193.277 124.111 192.241 123.216 191.37C121.474 189.463 119.873 187.651 118.508 185.909L117.566 184.708L117.001 183.955L115.989 182.495C115.353 181.577 114.835 180.706 114.388 179.905C113.63 178.575 113.074 177.139 112.74 175.644C112.516 174.423 112.516 173.17 112.74 171.948C112.83 170.883 113.011 169.828 113.282 168.794C113.823 167.358 115.636 167.617 118.155 169.17C119.695 170.122 121.125 171.244 122.416 172.513C123.216 173.243 124.017 174.067 124.77 174.868L126.065 176.257L126.748 176.986L126.983 177.198C127.73 177.885 128.57 178.463 129.478 178.917C129.761 178.917 130.067 179.152 130.302 178.917C130.538 178.681 130.114 177.834 130.067 177.363C130.02 176.892 130.067 176.751 130.067 176.515V176.162C130.067 175.95 130.067 176.162 130.067 175.597C131.351 171.774 133.14 168.14 135.387 164.792C139.616 158.639 144.77 153.175 150.666 148.595C156.292 144.028 162.107 140.238 167.592 136.518C173.078 132.799 178.351 129.338 182.8 125.524C186.993 122.167 190.502 118.035 193.135 113.353C194.351 111.113 195.314 108.744 196.007 106.291C196.681 103.803 197.045 101.241 197.09 98.6632C197.202 93.1777 196.3 87.7187 194.43 82.5607C193.501 79.9094 192.285 77.3675 190.804 74.9803C190.051 73.7561 189.392 72.4848 188.615 71.2842L186.002 67.8471L186.331 67.6117Z" fill="#F9AF8C"/>
<path d="M126.418 99.6755C126.738 101.585 126.501 103.547 125.735 105.326C125.444 106.104 125.065 106.846 124.605 107.538C124.346 107.892 124.182 108.221 123.875 108.574C123.569 108.927 123.193 109.328 122.84 109.657C122.311 110.205 121.718 110.688 121.074 111.093C120.432 111.573 119.679 111.881 118.885 111.988C117.784 112.178 116.656 112.144 115.568 111.89C114.48 111.635 113.454 111.164 112.552 110.505C111.207 109.545 110.057 108.339 109.162 106.95C108.297 105.799 107.599 104.53 107.09 103.183C106.929 102.697 106.795 102.202 106.69 101.7C106.69 101.159 106.69 100.594 106.69 100.029C106.761 99.511 106.871 98.9995 107.02 98.4984C107.288 98.0211 107.678 97.6231 108.15 97.3449C108.738 96.9211 110.057 98.0747 111.469 99.1812C112.371 99.9605 113.42 100.553 114.553 100.923C114.788 100.617 115.142 100.476 115.212 100.923C115.283 101.371 115.565 102.03 115.801 102.759C115.836 102.908 115.912 103.044 116.02 103.152C116.128 103.26 116.264 103.336 116.413 103.372C116.39 103.559 116.39 103.749 116.413 103.937C116.393 104.014 116.393 104.095 116.413 104.172C116.403 104.219 116.403 104.267 116.413 104.313L116.295 104.172C116.295 104.172 116.06 103.583 116.083 103.583C116.072 103.521 116.072 103.457 116.083 103.395L116.272 103.207L116.389 102.924C116.389 102.736 116.625 102.524 116.601 102.453C116.578 102.383 116.837 102.171 116.766 101.888C116.523 101.572 116.193 101.333 115.818 101.199C115.442 101.066 115.035 101.043 114.647 101.135C114.493 101.218 114.35 101.321 114.223 101.441C114.158 101.562 114.102 101.688 114.059 101.818C114.028 101.728 113.988 101.641 113.941 101.559C113.812 101.342 113.653 101.144 113.47 100.97C113.413 100.841 113.324 100.727 113.211 100.641C113.211 100.641 112.834 100.429 112.929 100.452H113.117C113.316 100.514 113.53 100.514 113.729 100.452C114.051 100.413 114.368 100.334 114.671 100.217H114.506L113.964 100.476C113.564 100.688 113.093 100.947 112.528 101.3C111.963 101.653 111.493 101.959 110.998 102.289C109.35 103.466 107.49 103.819 106.125 102.289C105.667 101.422 105.364 100.482 105.23 99.5107C105.236 98.332 105.468 97.1652 105.913 96.0737C106.394 95.1189 107.022 94.2451 107.773 93.4841C108.389 92.8674 109.086 92.3368 109.845 91.9068C112.239 90.5688 115.065 90.2304 117.708 90.9651C119.665 91.3821 121.492 92.271 123.028 93.5547C124.875 95.1162 126.158 97.2423 126.677 99.6049L126.418 99.6755Z" fill="#F9AF8C"/>
<path d="M84.7487 104.831C85.4396 107.157 85.315 109.649 84.3956 111.894C83.4817 114.012 82.0388 115.861 80.2052 117.261C79.0372 118.323 77.6571 119.126 76.156 119.615C75.509 119.771 74.8433 119.834 74.1785 119.804C73.4818 119.814 72.7887 119.702 72.1304 119.474C70.6729 119.087 69.3675 118.266 68.3873 117.12C66.8815 115.422 65.8645 113.347 65.4446 111.117C65.1092 109.38 65.0299 107.603 65.2091 105.843C65.2268 104.656 65.5529 103.493 66.1555 102.47C66.758 101.446 67.6164 100.597 68.6462 100.005C69.3289 99.6755 70.0116 100.735 70.7414 102.006C71.1181 102.618 71.5183 103.277 71.895 103.795C72.1979 104.175 72.4733 104.577 72.7189 104.996C73.0031 105.826 73.3907 106.617 73.8725 107.35C73.8725 107.538 74.1079 107.703 74.0844 107.915C74.0718 108.119 74.0718 108.323 74.0844 108.527C74.0726 108.731 74.0726 108.935 74.0844 109.139V109.728C74.0558 109.876 74.0558 110.027 74.0844 110.175C74.0143 110.256 73.9657 110.353 73.9431 110.458C73.8934 110.572 73.854 110.69 73.8254 110.811C74.1785 109.657 73.8254 110.505 73.9902 110.246C73.9902 110.246 74.1785 110.246 74.3669 110.246L74.8612 110.081C75.3057 109.932 75.7031 109.669 76.0131 109.318C76.3232 108.966 76.5349 108.539 76.6269 108.08C76.6445 107.72 76.5794 107.361 76.4366 107.031C76.2937 106.7 76.0769 106.407 75.8029 106.173C75.3661 105.728 74.8256 105.398 74.2298 105.213C73.634 105.028 73.0016 104.994 72.3894 105.114C72.1707 105.184 71.9759 105.314 71.8264 105.489C71.6768 105.663 71.5784 105.876 71.5419 106.102V106.338H71.3771L71.7066 106.479C71.9185 106.479 71.9421 106.479 72.0127 106.714C72.0833 106.95 72.2481 106.95 72.2481 107.068C72.2934 107.213 72.2934 107.369 72.2481 107.515C72.0755 107.704 71.8865 107.877 71.6831 108.033C70.9881 108.507 70.2466 108.909 69.4702 109.233L68.0812 109.893C67.3513 110.253 66.5295 110.386 65.7231 110.272C64.9168 110.159 64.1634 109.805 63.5612 109.257C62.6988 108.081 62.1848 106.686 62.0781 105.231C61.9998 104.272 62.1365 103.307 62.4783 102.406C62.7733 101.519 63.1934 100.679 63.726 99.9109C64.713 98.6193 65.9959 97.5836 67.4667 96.8913C68.9375 96.1989 70.5531 95.87 72.1775 95.9324C74.9197 95.9868 77.593 96.8019 79.8991 98.2866C82.1904 99.7693 83.9346 101.96 84.8664 104.525L84.7487 104.831Z" fill="#F9AF8C"/>
<path d="M69.0465 111.117C69.226 110.528 69.3753 109.931 69.4938 109.328C69.4938 109.116 69.329 109.021 69.4938 108.81C69.7479 108.037 69.9601 107.251 70.1295 106.455C70.1337 106.312 70.1013 106.17 70.0354 106.042C69.9695 105.914 69.8723 105.805 69.7528 105.726C69.4468 105.49 68.8111 105.467 69.4468 104.737C70.0824 104.007 76.7447 100.735 77.1684 101.229C77.5232 101.63 77.7306 102.141 77.7562 102.676C77.7819 103.211 77.6244 103.739 77.3097 104.172C76.8859 104.925 77.4745 105.255 77.5451 105.796C77.5804 106.384 77.5804 106.974 77.5451 107.562C77.521 107.915 77.521 108.269 77.5451 108.621C77.5451 109.139 77.5451 109.704 77.7805 110.104C78.0159 110.505 78.6986 110.552 79.193 110.74C79.3107 110.74 79.499 110.74 79.5697 110.74C79.6403 110.74 79.5697 110.975 79.0988 111.258L78.2278 111.682L76.8153 112.317L75.5911 112.859C74.3363 113.433 73.0161 113.852 71.6597 114.106C69.8234 114.106 69.3055 113.447 68.9288 112.788C68.7719 112.254 68.7317 111.692 68.8111 111.14L69.0465 111.117Z" fill="#F9AF8C"/>
<path d="M164.296 96.5209C163.79 98.2522 162.924 99.8568 161.754 101.229C161.085 102.021 160.289 102.697 159.4 103.23C158.929 103.513 158.481 103.772 158.011 104.007C157.536 104.192 157.048 104.341 156.551 104.454C155.256 104.886 153.882 105.03 152.525 104.878C151.859 104.736 151.205 104.539 150.571 104.29C150.016 104.014 149.481 103.7 148.971 103.348C148.148 102.676 147.434 101.882 146.852 100.994C145.931 99.5555 145.285 97.9592 144.945 96.2855C144.491 94.8488 144.362 93.3288 144.568 91.8361C144.603 91.3267 144.603 90.8154 144.568 90.3059C144.702 89.8257 144.917 89.3719 145.204 88.9641C145.887 88.2107 146.405 87.3868 147.723 87.4574C148.32 87.5857 148.853 87.9188 149.23 88.3991L150.171 89.4113L150.995 90.353C151.774 91.2694 152.687 92.0631 153.702 92.7072C153.478 93.2329 153.297 93.7762 153.161 94.3316C152.996 94.8495 153.161 94.9436 153.161 95.0614C152.975 95.3613 152.832 95.6863 152.737 96.0266C152.737 96.0266 152.737 96.1443 152.737 96.2149C152.737 95.6263 152.596 97.5803 152.737 94.873C152.743 94.9671 152.743 95.0614 152.737 95.1555C152.719 95.2329 152.719 95.3135 152.737 95.3909C152.737 95.3909 152.902 95.2261 153.067 95.132C153.405 94.6635 153.601 94.1079 153.632 93.5311C153.632 92.5895 153.632 91.4359 153.02 91.177C152.408 90.918 152.431 91.8361 152.384 92.3776C152.384 92.3776 152.384 92.7072 152.384 92.613C152.384 92.5189 151.96 92.4482 151.584 91.9303C151.207 91.4124 150.736 90.7297 150.053 89.7174L149.135 88.3755C148.614 87.722 148.276 86.9414 148.156 86.1139C148.036 85.2864 148.138 84.4419 148.453 83.6672C148.716 83.1352 149.075 82.6564 149.512 82.2547C150.027 81.8697 150.599 81.5678 151.207 81.3601C151.513 81.3601 151.796 81.1247 152.125 81.0541C152.509 81.0298 152.895 81.0298 153.279 81.0541C154.061 80.9587 154.851 80.9587 155.633 81.0541C157.128 81.402 158.531 82.065 159.749 82.9987C160.967 83.9325 161.971 85.1155 162.695 86.4686C164.571 89.4611 165.236 93.0556 164.555 96.5209H164.296Z" fill="#F9AF8C"/>
</svg>
